{"glyphs":{"0":{"ha":942,"x_min":28,"x_max":914,"o":"m 392 -33 q 384 -33 389 -33 q 372 -31 379 -32 l 340 -26 l 265 -11 q 250 -4 254 -6 q 228 4 236 0 q 222 11 222 6 q 208 17 215 14 q 192 25 200 21 q 161 39 176 31 l 142 53 q 131 60 136 57 q 122 67 125 64 q 65 151 88 97 q 32 289 43 204 q 28 397 28 331 q 31 485 28 449 q 42 558 33 521 q 65 644 50 594 q 97 699 71 649 q 106 714 103 704 q 108 719 107 717 q 113 726 110 722 l 118 735 q 125 740 119 740 q 157 761 136 740 q 167 769 163 765 q 176 778 172 774 q 194 792 186 788 q 292 825 235 815 q 317 828 301 826 q 343 831 333 831 q 374 832 361 831 q 396 835 386 833 q 497 829 454 833 q 579 819 539 825 q 671 803 619 814 q 685 799 675 803 q 754 771 725 786 q 771 754 771 763 l 771 742 q 833 693 804 742 q 856 653 847 675 q 865 615 865 631 q 880 614 878 615 q 882 601 882 613 q 889 570 885 583 q 896 546 893 557 q 900 535 899 540 q 903 522 901 529 q 906 508 904 515 q 910 490 908 500 l 911 479 l 914 428 l 914 393 q 894 203 914 271 q 824 90 874 135 q 778 57 803 72 l 729 25 q 693 13 708 18 q 668 1 678 7 l 608 -19 q 558 -22 583 -19 q 501 -26 532 -24 q 447 -31 475 -29 q 392 -33 419 -33 m 472 168 q 535 206 517 168 q 542 233 539 215 q 544 268 544 251 l 546 307 q 550 388 550 349 q 551 421 551 393 q 529 544 551 465 l 518 581 q 475 633 513 633 q 419 589 435 633 q 410 550 411 568 q 406 513 410 542 l 396 444 q 386 376 386 419 q 396 289 386 322 q 408 246 397 269 q 415 226 413 235 q 419 213 418 218 q 444 185 421 199 q 472 168 464 168 z "},"1":{"ha":649,"x_min":13,"x_max":600,"o":"m 554 0 q 481 0 506 0 q 449 1 457 0 q 439 1 442 1 l 388 1 q 333 3 357 3 q 288 4 310 4 l 229 4 q 169 19 185 4 q 154 75 154 33 l 156 88 q 157 97 156 94 q 158 108 158 100 l 161 139 l 158 178 q 157 189 158 186 q 156 199 156 192 l 154 208 q 153 223 153 214 q 153 261 153 232 l 153 386 q 151 419 151 401 q 151 486 151 438 q 147 501 151 501 q 131 490 142 501 q 78 438 110 465 q 47 428 64 428 q 23 436 33 428 q 13 456 13 444 l 13 721 q 15 728 13 725 l 21 732 q 28 736 24 735 l 50 749 q 67 759 58 754 q 82 768 75 764 q 123 790 101 782 q 154 800 144 797 q 186 807 172 807 q 301 806 257 807 q 378 806 346 806 l 563 804 q 589 794 578 804 q 600 768 600 783 l 600 306 q 596 192 600 244 q 592 85 592 136 q 583 19 592 38 q 554 0 575 0 z "},"2":{"ha":751,"x_min":7,"x_max":731,"o":"m 235 0 q 147 2 188 0 q 76 7 106 4 q 28 19 38 14 q 10 42 10 28 q 10 87 10 61 q 10 133 10 113 q 10 156 10 153 q 15 190 10 179 q 35 213 19 201 q 97 246 54 228 q 185 307 140 264 q 202 325 188 311 q 228 349 217 339 q 253 376 247 365 q 281 418 260 388 q 288 451 292 436 q 283 483 283 467 q 260 538 283 522 q 181 553 238 553 q 152 551 168 553 q 107 546 136 550 q 82 538 94 543 q 42 518 69 532 q 28 517 33 513 q 22 533 22 522 q 18 574 19 554 q 14 618 17 594 l 10 690 l 8 719 l 7 744 q 7 753 7 749 q 19 760 7 757 l 68 782 q 381 831 222 831 q 513 815 450 831 q 619 772 575 800 q 729 567 729 704 q 681 424 729 493 q 531 282 633 354 l 646 282 q 710 273 690 282 q 731 244 731 264 q 730 200 731 222 q 728 154 729 178 l 728 82 q 712 22 728 39 q 656 6 696 6 q 638 1 651 1 q 612 0 629 0 q 533 0 594 0 l 235 0 z "},"3":{"ha":735,"x_min":3,"x_max":728,"o":"m 307 -40 q 271 -37 294 -40 q 224 -31 247 -35 q 185 -22 200 -26 l 154 -14 q 143 -7 143 -11 l 129 -3 q 119 0 124 0 q 111 1 115 0 q 87 11 101 4 q 63 25 72 18 q 47 32 56 29 q 44 57 39 35 l 56 208 q 88 219 57 229 q 156 206 131 210 q 219 203 181 203 q 324 276 324 203 q 236 335 324 329 q 194 335 210 335 q 147 332 179 335 q 125 345 128 332 q 122 368 122 358 l 122 454 q 140 481 118 481 q 149 479 143 479 q 172 479 154 479 q 286 549 286 479 q 263 594 286 581 q 185 608 239 608 q 125 602 153 608 q 49 576 97 596 q 28 574 36 571 q 19 589 19 578 l 8 735 q 29 772 3 767 q 354 831 179 831 l 451 824 q 535 807 500 815 l 546 804 q 573 793 561 799 q 590 785 585 788 q 601 775 601 781 l 601 764 q 647 724 626 764 q 657 707 654 715 q 664 692 658 699 l 674 665 q 685 629 685 636 q 693 588 688 608 q 673 505 693 544 q 617 438 653 465 q 728 261 728 372 q 693 78 728 146 q 665 33 681 51 q 636 11 649 14 q 476 -33 563 -26 q 399 -38 442 -36 q 307 -40 356 -40 z "},"4":{"ha":889,"x_min":7,"x_max":896,"o":"m 507 -74 q 479 -32 485 -74 q 478 -14 479 -18 q 476 4 476 -10 q 476 22 476 18 q 475 26 476 25 l 472 78 l 382 78 q 269 77 318 78 q 188 76 221 76 q 139 76 172 76 q 69 74 106 75 q 18 88 33 75 q 7 101 7 92 l 7 175 q 9 224 7 201 q 14 265 11 246 q 18 301 15 276 q 36 361 21 326 l 72 442 l 81 463 q 86 485 83 469 q 99 528 89 501 l 121 594 l 182 729 q 208 775 197 758 q 222 799 218 792 q 226 802 224 800 q 233 807 228 804 q 237 810 235 808 q 240 813 239 811 l 246 817 l 333 817 q 414 813 364 817 q 461 819 425 819 q 502 819 493 819 q 517 818 511 819 q 574 817 526 817 l 576 817 l 579 818 l 632 818 q 640 817 633 817 l 650 817 q 669 817 661 819 l 736 817 q 747 815 743 815 q 751 814 750 814 q 765 805 761 814 q 768 772 768 796 l 767 725 q 766 675 767 717 q 765 581 765 633 q 764 483 764 528 q 762 419 763 453 q 761 354 761 386 l 761 331 l 847 331 q 896 189 896 331 q 893 171 896 178 q 892 138 893 156 q 890 111 892 121 q 889 96 890 99 q 879 90 888 93 q 862 88 871 89 q 844 88 853 88 q 835 85 839 86 q 828 85 831 85 l 800 85 q 770 85 778 85 q 758 83 763 85 l 757 61 q 755 37 756 49 q 754 13 754 25 q 744 -53 754 -37 q 722 -60 738 -60 q 718 -57 724 -60 q 713 -60 715 -57 l 708 -60 q 701 -61 703 -60 l 674 -60 l 667 -60 q 657 -57 664 -57 q 649 -61 653 -57 l 572 -61 l 563 -62 q 541 -68 551 -65 q 521 -74 531 -71 l 507 -74 m 404 331 l 458 331 l 458 661 q 454 674 458 671 q 447 668 450 676 l 447 646 q 437 619 447 632 q 424 597 426 606 l 413 568 q 408 540 411 557 q 403 499 404 522 q 383 449 393 476 q 356 376 372 421 q 346 348 350 358 q 340 332 342 338 q 385 332 375 332 q 404 331 396 332 z "},"5":{"ha":751,"x_min":3,"x_max":744,"o":"m 265 -26 q 205 -21 243 -26 q 142 -8 167 -15 q 122 -3 128 -4 q 114 0 117 -1 q 100 7 101 1 l 71 15 q 54 22 61 18 q 40 26 47 25 l 3 35 l 11 82 l 10 132 l 13 171 l 17 226 q 85 215 40 221 q 178 206 129 210 q 263 203 228 203 q 365 274 365 203 q 279 335 365 328 q 207 334 251 335 q 119 333 163 333 q 47 331 75 332 l 43 400 l 44 422 l 44 511 q 43 517 43 514 q 43 529 43 519 q 38 594 38 544 l 38 796 q 50 810 40 803 l 53 810 q 58 807 58 807 q 76 808 72 807 q 92 810 79 810 q 124 814 107 814 q 148 813 135 814 q 176 811 161 813 q 200 810 186 810 q 232 810 214 810 l 238 813 l 369 813 q 379 810 372 810 l 390 810 q 404 813 397 813 l 421 810 l 640 810 q 650 804 643 804 q 657 806 656 804 q 672 807 668 806 q 682 810 676 808 l 689 810 q 703 793 697 810 q 714 726 710 776 q 718 608 718 676 q 704 593 718 596 q 695 591 699 592 q 688 590 692 590 q 675 590 682 589 l 640 590 q 626 590 633 590 q 606 588 618 590 q 510 588 538 588 q 479 586 482 588 q 453 585 475 585 l 426 585 q 411 588 414 585 l 400 581 l 394 554 q 386 488 389 533 q 430 486 410 486 q 485 487 450 486 q 588 483 521 488 l 596 481 q 643 463 621 476 q 654 450 654 456 l 654 442 q 700 400 678 442 l 717 367 q 725 344 718 353 q 739 301 733 325 q 744 261 744 278 q 738 180 744 214 q 710 96 731 146 q 650 25 676 32 q 576 -5 614 7 q 504 -19 538 -17 q 460 -22 486 -21 q 388 -24 433 -24 q 265 -26 343 -25 z "},"6":{"ha":890,"x_min":28,"x_max":883,"o":"m 472 -43 q 258 5 354 -43 q 97 146 163 53 q 28 386 28 249 q 33 503 28 463 q 53 578 39 544 q 174 744 90 665 q 326 816 247 794 q 510 838 404 838 q 616 833 572 838 q 699 818 660 829 l 744 801 q 769 792 758 796 q 786 782 779 789 q 789 781 788 781 q 792 779 790 781 q 800 775 794 778 q 817 743 817 769 l 808 624 q 774 583 811 594 l 767 583 q 740 588 757 583 q 642 598 690 594 q 553 601 594 601 q 438 569 497 601 q 394 525 401 550 q 385 478 388 500 q 551 506 476 506 q 676 494 615 506 q 765 464 738 482 q 883 254 883 396 q 851 128 883 186 q 757 32 818 71 q 628 -24 701 -4 q 472 -43 554 -43 m 493 181 q 564 249 564 181 q 500 300 564 300 q 428 289 465 300 q 413 285 421 288 q 396 278 404 282 q 493 181 418 181 z "},"7":{"ha":746,"x_min":7,"x_max":732,"o":"m 374 -107 q 334 -92 356 -107 q 260 -47 313 -76 q 156 6 197 -12 q 94 35 115 24 q 74 63 74 47 q 76 68 74 63 q 78 74 78 71 q 81 82 79 76 q 90 100 86 92 q 96 115 93 108 q 115 146 100 125 q 149 191 131 167 q 182 235 167 215 q 201 263 197 254 l 246 311 q 261 337 249 318 q 290 380 274 356 q 324 426 307 404 q 351 460 342 449 q 374 484 356 468 q 393 507 392 500 q 363 506 386 507 q 316 503 339 504 q 283 503 293 503 l 157 483 l 60 483 q 20 531 33 483 q 7 681 7 579 q 8 690 7 685 q 10 701 8 694 l 10 735 q 10 756 10 751 q 11 765 10 761 q 13 781 11 778 q 24 789 15 785 q 43 792 32 790 q 61 793 54 793 l 79 793 l 160 797 q 200 801 179 800 q 240 803 221 803 q 456 803 353 803 q 663 806 558 804 q 718 793 699 804 q 732 775 732 783 l 732 553 q 726 522 732 539 q 700 463 719 504 l 618 292 q 614 280 617 286 q 608 265 611 274 q 582 207 599 235 q 547 147 565 179 l 521 100 q 494 50 511 81 q 458 -11 478 19 q 424 -65 439 -42 q 401 -96 408 -89 q 374 -107 394 -107 z "},"8":{"ha":951,"x_min":28,"x_max":931,"o":"m 489 -15 q 139 60 267 -15 l 119 67 q 104 76 106 71 q 42 153 54 108 q 28 261 28 186 q 47 371 28 331 q 111 438 67 411 q 56 505 78 463 q 35 588 35 547 q 78 724 35 668 q 97 743 82 731 q 103 747 100 746 q 108 751 106 749 q 118 758 114 757 q 175 796 153 789 q 340 838 238 826 l 521 838 q 733 796 647 838 q 809 756 774 781 q 858 707 844 731 q 890 590 890 646 q 875 507 890 556 q 819 438 853 465 q 931 261 931 372 q 883 104 931 161 q 824 51 856 69 q 731 11 793 32 l 690 1 q 675 -1 682 0 q 663 -1 668 -1 q 634 -3 649 -1 q 607 -7 619 -4 q 548 -15 575 -14 q 489 -15 521 -15 m 467 479 q 508 497 499 479 q 524 576 524 521 q 504 665 524 638 q 482 681 493 678 q 465 685 469 683 q 450 682 465 685 q 413 636 424 678 q 407 576 407 615 q 424 494 407 518 q 467 479 439 479 m 486 136 q 524 157 513 136 q 539 269 539 185 q 524 344 539 317 q 486 372 510 372 l 465 372 q 438 347 449 372 q 425 269 425 317 q 444 157 425 185 q 486 136 451 136 z "},"9":{"ha":897,"x_min":14,"x_max":869,"o":"m 386 -43 q 196 -14 299 -43 l 153 4 q 125 17 135 10 q 108 26 108 26 q 97 33 106 29 q 79 78 75 43 q 94 138 79 94 q 114 185 111 169 q 132 215 124 206 q 153 226 140 224 q 169 225 161 226 q 183 222 176 224 q 283 208 249 213 q 343 203 317 203 q 458 226 418 203 q 499 266 492 244 q 511 318 507 288 q 343 289 428 289 q 217 306 278 289 q 110 351 156 322 q 44 417 65 381 q 14 542 14 468 q 139 764 14 685 q 424 838 256 838 q 523 828 481 838 q 621 790 565 818 q 806 640 743 736 q 869 410 869 543 q 863 303 869 349 q 843 217 857 257 q 724 50 813 131 q 569 -22 647 0 q 386 -43 492 -43 m 396 494 q 426 497 410 494 q 468 506 443 500 q 501 518 485 510 q 404 615 476 615 q 333 547 333 615 q 396 494 333 494 z "},"A":{"ha":1085,"x_min":7,"x_max":1078,"o":"m 1032 -3 q 1015 -2 1022 -3 q 1001 0 1008 -1 l 771 0 q 767 1 769 0 q 760 3 764 1 l 718 3 l 658 4 q 651 3 653 4 q 640 0 649 0 l 636 0 l 635 1 q 629 3 629 1 q 621 4 625 4 q 614 4 617 4 q 607 45 611 15 q 588 131 603 75 l 576 169 l 499 169 q 460 171 476 169 q 425 176 443 172 q 424 164 425 171 q 421 144 422 157 q 401 54 411 93 q 385 4 392 15 q 358 4 374 4 q 322 3 343 4 q 296 0 301 3 l 283 0 q 282 3 282 0 q 278 4 281 4 q 263 3 267 4 l 263 0 l 78 0 q 65 -2 72 -1 q 46 -3 57 -3 l 32 -3 q 17 4 21 -3 q 7 35 7 18 q 8 49 7 44 q 8 62 8 56 q 10 76 8 68 q 17 99 13 92 q 21 119 21 114 q 47 237 24 136 q 110 508 69 338 q 204 904 150 679 q 208 911 204 906 q 217 919 211 917 l 222 919 l 225 917 q 235 919 232 917 q 243 924 239 922 q 260 926 254 926 q 278 926 269 926 q 297 924 288 925 q 304 924 300 924 q 311 922 308 925 q 320 920 314 921 q 332 919 326 919 q 339 923 332 922 q 349 924 346 924 q 378 926 361 925 q 422 926 394 926 l 554 926 q 567 925 554 925 q 578 925 574 925 q 589 924 583 925 l 658 924 q 665 921 661 922 q 671 919 668 919 q 685 920 678 919 q 700 922 693 921 q 715 924 707 924 q 725 924 722 924 q 753 926 740 925 q 779 926 765 926 q 796 928 788 926 q 814 924 804 929 q 834 917 825 918 q 850 917 843 917 q 856 919 856 917 l 861 919 q 869 912 865 918 q 874 904 874 906 q 906 777 888 851 q 944 618 924 703 q 985 446 964 533 q 1025 278 1006 358 q 1058 135 1044 199 q 1062 115 1061 121 q 1064 103 1063 110 q 1072 71 1065 93 q 1078 38 1078 49 q 1072 25 1078 26 q 1049 -3 1067 -3 l 1032 -3 m 442 335 q 450 338 450 335 l 458 338 q 468 342 461 339 q 485 344 475 344 l 486 344 l 496 338 l 561 338 l 551 400 l 546 426 q 540 452 543 442 q 538 472 538 463 q 533 509 538 479 q 524 578 529 539 l 518 617 q 512 640 514 629 q 508 661 510 651 l 506 678 l 506 685 q 503 692 503 688 q 501 697 503 697 l 501 692 q 496 678 501 686 l 496 661 q 492 639 493 650 q 488 617 490 628 l 475 551 q 458 442 464 496 q 442 335 453 388 z "},"Á":{"ha":1085,"x_min":7,"x_max":1078,"o":"m 1032 -3 q 1015 -2 1022 -3 q 1001 0 1008 -1 l 771 0 q 767 1 769 0 q 760 3 764 1 l 718 3 l 658 4 q 651 3 653 4 q 640 0 649 0 l 636 0 l 635 1 q 629 3 629 1 q 621 4 625 4 q 614 4 617 4 q 607 45 611 15 q 588 131 603 75 l 576 169 l 499 169 q 460 171 476 169 q 425 176 443 172 q 424 164 425 171 q 421 144 422 157 q 401 54 411 93 q 385 4 392 15 q 358 4 374 4 q 322 3 343 4 q 296 0 301 3 l 283 0 q 282 3 282 0 q 278 4 281 4 q 263 3 267 4 l 263 0 l 78 0 q 65 -2 72 -1 q 46 -3 57 -3 l 32 -3 q 17 4 21 -3 q 7 35 7 18 q 8 49 7 44 q 8 62 8 56 q 10 76 8 68 q 17 99 13 92 q 21 119 21 114 q 47 237 24 136 q 110 508 69 338 q 204 904 150 679 q 208 911 204 906 q 217 919 211 917 l 222 919 l 225 917 q 235 919 232 917 q 243 924 239 922 q 260 926 254 926 q 278 926 269 926 q 297 924 288 925 q 304 924 300 924 q 311 922 308 925 q 320 920 314 921 q 332 919 326 919 q 339 923 332 922 q 349 924 346 924 q 378 926 361 925 q 422 926 394 926 l 554 926 q 567 925 554 925 q 578 925 574 925 q 589 924 583 925 l 658 924 q 665 921 661 922 q 671 919 668 919 q 685 920 678 919 q 700 922 693 921 q 715 924 707 924 q 725 924 722 924 q 753 926 740 925 q 779 926 765 926 q 796 928 788 926 q 814 924 804 929 q 834 917 825 918 q 850 917 843 917 q 856 919 856 917 l 861 919 q 869 912 865 918 q 874 904 874 906 q 906 777 888 851 q 944 618 924 703 q 985 446 964 533 q 1025 278 1006 358 q 1058 135 1044 199 q 1062 115 1061 121 q 1064 103 1063 110 q 1072 71 1065 93 q 1078 38 1078 49 q 1072 25 1078 26 q 1049 -3 1067 -3 l 1032 -3 m 442 335 q 450 338 450 335 l 458 338 q 468 342 461 339 q 485 344 475 344 l 486 344 l 496 338 l 561 338 l 551 400 l 546 426 q 540 452 543 442 q 538 472 538 463 q 533 509 538 479 q 524 578 529 539 l 518 617 q 512 640 514 629 q 508 661 510 651 l 506 678 l 506 685 q 503 692 503 688 q 501 697 503 697 l 501 692 q 496 678 501 686 l 496 661 q 492 639 493 650 q 488 617 490 628 l 475 551 q 458 442 464 496 q 442 335 453 388 m 554 1018 l 543 1022 l 539 1018 l 424 1018 q 402 1029 407 1018 q 397 1060 397 1040 q 402 1102 397 1083 q 408 1132 407 1121 q 438 1231 424 1182 q 467 1335 451 1279 l 478 1343 l 538 1353 l 619 1357 l 628 1353 q 642 1356 633 1356 l 656 1356 q 660 1354 658 1356 q 665 1353 661 1353 l 674 1351 l 732 1349 l 743 1344 q 746 1346 746 1344 l 753 1346 q 790 1335 782 1340 q 799 1322 799 1331 q 794 1308 799 1317 q 781 1282 792 1301 q 767 1258 778 1276 q 739 1210 757 1240 q 726 1189 732 1197 q 718 1175 721 1181 l 700 1142 q 664 1091 676 1108 q 645 1063 651 1074 q 629 1039 639 1053 q 606 1018 615 1018 l 554 1018 z "},"Ă":{"ha":1085,"x_min":7,"x_max":1078,"o":"m 1032 -3 q 1015 -2 1022 -3 q 1001 0 1008 -1 l 771 0 q 767 1 769 0 q 760 3 764 1 l 718 3 l 658 4 q 651 3 653 4 q 640 0 649 0 l 636 0 l 635 1 q 629 3 629 1 q 621 4 625 4 q 614 4 617 4 q 607 45 611 15 q 588 131 603 75 l 576 169 l 499 169 q 460 171 476 169 q 425 176 443 172 q 424 164 425 171 q 421 144 422 157 q 401 54 411 93 q 385 4 392 15 q 358 4 374 4 q 322 3 343 4 q 296 0 301 3 l 283 0 q 282 3 282 0 q 278 4 281 4 q 263 3 267 4 l 263 0 l 78 0 q 65 -2 72 -1 q 46 -3 57 -3 l 32 -3 q 17 4 21 -3 q 7 35 7 18 q 8 49 7 44 q 8 62 8 56 q 10 76 8 68 q 17 99 13 92 q 21 119 21 114 q 47 237 24 136 q 110 508 69 338 q 204 904 150 679 q 208 911 204 906 q 217 919 211 917 l 222 919 l 225 917 q 235 919 232 917 q 243 924 239 922 q 260 926 254 926 q 278 926 269 926 q 297 924 288 925 q 304 924 300 924 q 311 922 308 925 q 320 920 314 921 q 332 919 326 919 q 339 923 332 922 q 349 924 346 924 q 378 926 361 925 q 422 926 394 926 l 554 926 q 567 925 554 925 q 578 925 574 925 q 589 924 583 925 l 658 924 q 665 921 661 922 q 671 919 668 919 q 685 920 678 919 q 700 922 693 921 q 715 924 707 924 q 725 924 722 924 q 753 926 740 925 q 779 926 765 926 q 796 928 788 926 q 814 924 804 929 q 834 917 825 918 q 850 917 843 917 q 856 919 856 917 l 861 919 q 869 912 865 918 q 874 904 874 906 q 906 777 888 851 q 944 618 924 703 q 985 446 964 533 q 1025 278 1006 358 q 1058 135 1044 199 q 1062 115 1061 121 q 1064 103 1063 110 q 1072 71 1065 93 q 1078 38 1078 49 q 1072 25 1078 26 q 1049 -3 1067 -3 l 1032 -3 m 442 335 q 450 338 450 335 l 458 338 q 468 342 461 339 q 485 344 475 344 l 486 344 l 496 338 l 561 338 l 551 400 l 546 426 q 540 452 543 442 q 538 472 538 463 q 533 509 538 479 q 524 578 529 539 l 518 617 q 512 640 514 629 q 508 661 510 651 l 506 678 l 506 685 q 503 692 503 688 q 501 697 503 697 l 501 692 q 496 678 501 686 l 496 661 q 492 639 493 650 q 488 617 490 628 l 475 551 q 458 442 464 496 q 442 335 453 388 m 525 1013 q 415 1032 469 1013 q 317 1082 360 1051 q 249 1159 274 1114 q 224 1256 224 1204 q 226 1306 224 1282 q 235 1354 229 1331 q 247 1364 238 1364 l 431 1363 q 439 1359 435 1363 q 442 1350 443 1356 q 438 1274 438 1308 l 439 1247 l 440 1246 q 442 1243 442 1244 q 443 1240 442 1242 q 483 1210 450 1222 q 553 1197 515 1197 q 619 1226 590 1197 q 649 1299 649 1256 q 649 1333 649 1317 q 649 1367 650 1350 q 657 1375 649 1375 l 851 1368 q 857 1364 856 1368 q 862 1325 865 1347 q 858 1276 858 1303 q 775 1099 858 1194 q 669 1031 732 1050 q 525 1013 607 1013 z "},"Ắ":{"ha":1085,"x_min":7,"x_max":1078,"o":"m 1032 -3 q 1015 -2 1022 -3 q 1001 0 1008 -1 l 771 0 q 767 1 769 0 q 760 3 764 1 l 718 3 l 658 4 q 651 3 653 4 q 640 0 649 0 l 636 0 l 635 1 q 629 3 629 1 q 621 4 625 4 q 614 4 617 4 q 607 45 611 15 q 588 131 603 75 l 576 169 l 499 169 q 460 171 476 169 q 425 176 443 172 q 424 164 425 171 q 421 144 422 157 q 401 54 411 93 q 385 4 392 15 q 358 4 374 4 q 322 3 343 4 q 296 0 301 3 l 283 0 q 282 3 282 0 q 278 4 281 4 q 263 3 267 4 l 263 0 l 78 0 q 65 -2 72 -1 q 46 -3 57 -3 l 32 -3 q 17 4 21 -3 q 7 35 7 18 q 8 49 7 44 q 8 62 8 56 q 10 76 8 68 q 17 99 13 92 q 21 119 21 114 q 47 237 24 136 q 110 508 69 338 q 204 904 150 679 q 208 911 204 906 q 217 919 211 917 l 222 919 l 225 917 q 235 919 232 917 q 243 924 239 922 q 260 926 254 926 q 278 926 269 926 q 297 924 288 925 q 304 924 300 924 q 311 922 308 925 q 320 920 314 921 q 332 919 326 919 q 339 923 332 922 q 349 924 346 924 q 378 926 361 925 q 422 926 394 926 l 554 926 q 567 925 554 925 q 578 925 574 925 q 589 924 583 925 l 658 924 q 665 921 661 922 q 671 919 668 919 q 685 920 678 919 q 700 922 693 921 q 715 924 707 924 q 725 924 722 924 q 753 926 740 925 q 779 926 765 926 q 796 928 788 926 q 814 924 804 929 q 834 917 825 918 q 850 917 843 917 q 856 919 856 917 l 861 919 q 869 912 865 918 q 874 904 874 906 q 906 777 888 851 q 944 618 924 703 q 985 446 964 533 q 1025 278 1006 358 q 1058 135 1044 199 q 1062 115 1061 121 q 1064 103 1063 110 q 1072 71 1065 93 q 1078 38 1078 49 q 1072 25 1078 26 q 1049 -3 1067 -3 l 1032 -3 m 442 335 q 450 338 450 335 l 458 338 q 468 342 461 339 q 485 344 475 344 l 486 344 l 496 338 l 561 338 l 551 400 l 546 426 q 540 452 543 442 q 538 472 538 463 q 533 509 538 479 q 524 578 529 539 l 518 617 q 512 640 514 629 q 508 661 510 651 l 506 678 l 506 685 q 503 692 503 688 q 501 697 503 697 l 501 692 q 496 678 501 686 l 496 661 q 492 639 493 650 q 488 617 490 628 l 475 551 q 458 442 464 496 q 442 335 453 388 m 526 1017 q 434 1033 485 1017 q 343 1082 383 1050 q 287 1141 307 1113 q 267 1197 267 1169 q 268 1256 267 1233 q 275 1299 269 1279 l 306 1315 l 438 1315 l 465 1299 q 461 1282 463 1289 q 460 1272 460 1275 q 465 1250 460 1263 q 506 1207 475 1225 q 554 1189 536 1189 q 585 1206 569 1189 q 612 1243 601 1222 q 622 1276 622 1264 q 622 1284 622 1279 q 619 1297 621 1289 l 642 1314 l 786 1308 l 818 1292 q 815 1242 822 1278 q 790 1165 807 1206 q 750 1099 774 1125 q 651 1034 707 1051 q 526 1017 596 1017 m 533 1353 l 522 1356 l 517 1353 l 485 1353 q 463 1363 468 1353 q 458 1390 458 1372 q 458 1428 458 1413 q 460 1454 458 1444 q 461 1478 461 1460 q 460 1498 461 1485 q 458 1531 460 1511 q 454 1625 454 1613 l 465 1633 l 500 1643 q 553 1643 532 1643 q 589 1644 575 1643 l 676 1639 l 688 1636 q 690 1638 690 1636 l 697 1638 q 707 1635 701 1636 q 718 1632 713 1633 q 737 1626 731 1629 q 743 1614 743 1622 q 739 1601 743 1610 q 735 1592 738 1599 q 725 1579 732 1586 q 720 1568 724 1575 q 711 1550 717 1561 q 686 1506 700 1525 q 661 1463 671 1483 q 635 1413 649 1436 q 607 1371 622 1390 q 585 1353 594 1353 l 533 1353 z "},"Ặ":{"ha":1085,"x_min":7,"x_max":1078,"o":"m 1032 -3 q 1015 -2 1022 -3 q 1001 0 1008 -1 l 771 0 q 767 1 769 0 q 760 3 764 1 l 718 3 l 658 4 q 651 3 653 4 q 640 0 649 0 l 636 0 l 635 1 q 629 3 629 1 q 621 4 625 4 q 614 4 617 4 q 607 45 611 15 q 588 131 603 75 l 576 169 l 499 169 q 460 171 476 169 q 425 176 443 172 q 424 164 425 171 q 421 144 422 157 q 401 54 411 93 q 385 4 392 15 q 358 4 374 4 q 322 3 343 4 q 296 0 301 3 l 283 0 q 282 3 282 0 q 278 4 281 4 q 263 3 267 4 l 263 0 l 78 0 q 65 -2 72 -1 q 46 -3 57 -3 l 32 -3 q 17 4 21 -3 q 7 35 7 18 q 8 49 7 44 q 8 62 8 56 q 10 76 8 68 q 17 99 13 92 q 21 119 21 114 q 47 237 24 136 q 110 508 69 338 q 204 904 150 679 q 208 911 204 906 q 217 919 211 917 l 222 919 l 225 917 q 235 919 232 917 q 243 924 239 922 q 260 926 254 926 q 278 926 269 926 q 297 924 288 925 q 304 924 300 924 q 311 922 308 925 q 320 920 314 921 q 332 919 326 919 q 339 923 332 922 q 349 924 346 924 q 378 926 361 925 q 422 926 394 926 l 554 926 q 567 925 554 925 q 578 925 574 925 q 589 924 583 925 l 658 924 q 665 921 661 922 q 671 919 668 919 q 685 920 678 919 q 700 922 693 921 q 715 924 707 924 q 725 924 722 924 q 753 926 740 925 q 779 926 765 926 q 796 928 788 926 q 814 924 804 929 q 834 917 825 918 q 850 917 843 917 q 856 919 856 917 l 861 919 q 869 912 865 918 q 874 904 874 906 q 906 777 888 851 q 944 618 924 703 q 985 446 964 533 q 1025 278 1006 358 q 1058 135 1044 199 q 1062 115 1061 121 q 1064 103 1063 110 q 1072 71 1065 93 q 1078 38 1078 49 q 1072 25 1078 26 q 1049 -3 1067 -3 l 1032 -3 m 442 335 q 450 338 450 335 l 458 338 q 468 342 461 339 q 485 344 475 344 l 486 344 l 496 338 l 561 338 l 551 400 l 546 426 q 540 452 543 442 q 538 472 538 463 q 533 509 538 479 q 524 578 529 539 l 518 617 q 512 640 514 629 q 508 661 510 651 l 506 678 l 506 685 q 503 692 503 688 q 501 697 503 697 l 501 692 q 496 678 501 686 l 496 661 q 492 639 493 650 q 488 617 490 628 l 475 551 q 458 442 464 496 q 442 335 453 388 m 526 1017 q 434 1033 485 1017 q 343 1082 383 1050 q 287 1141 307 1113 q 267 1197 267 1169 q 268 1256 267 1233 q 275 1299 269 1279 l 306 1315 l 438 1315 l 465 1299 q 461 1282 463 1289 q 460 1272 460 1275 q 465 1250 460 1263 q 506 1207 475 1225 q 554 1189 536 1189 q 585 1206 569 1189 q 612 1243 601 1222 q 622 1276 622 1264 q 622 1284 622 1279 q 619 1297 621 1289 l 642 1314 l 786 1308 l 818 1292 q 815 1242 822 1278 q 790 1165 807 1206 q 750 1099 774 1125 q 651 1034 707 1051 q 526 1017 596 1017 m 572 -412 l 540 -412 q 519 -411 524 -412 q 508 -410 514 -410 q 497 -410 501 -410 l 390 -400 l 382 -392 q 380 -365 381 -381 q 379 -332 379 -349 q 385 -228 379 -262 q 385 -206 385 -218 q 388 -179 386 -193 l 388 -143 q 424 -124 390 -124 q 451 -124 439 -124 q 469 -125 464 -124 q 492 -126 488 -125 q 504 -128 499 -128 q 515 -128 510 -128 q 531 -127 522 -128 q 549 -125 539 -126 l 656 -125 q 661 -124 658 -125 q 674 -124 664 -124 q 706 -140 706 -124 l 706 -143 q 703 -154 704 -150 q 703 -162 703 -158 l 703 -193 q 704 -207 703 -203 l 704 -367 q 701 -372 701 -372 q 700 -382 700 -375 q 686 -400 697 -392 q 682 -401 683 -400 q 679 -401 681 -401 q 668 -403 676 -403 q 665 -400 665 -403 l 660 -400 l 650 -404 l 622 -407 q 617 -408 618 -407 q 615 -409 615 -408 q 613 -410 615 -410 l 603 -411 q 599 -410 601 -411 q 592 -410 597 -410 q 589 -409 590 -410 q 588 -408 588 -408 q 582 -407 586 -407 q 579 -410 579 -407 l 572 -412 z "},"Ằ":{"ha":1085,"x_min":7,"x_max":1078,"o":"m 1032 -3 q 1015 -2 1022 -3 q 1001 0 1008 -1 l 771 0 q 767 1 769 0 q 760 3 764 1 l 718 3 l 658 4 q 651 3 653 4 q 640 0 649 0 l 636 0 l 635 1 q 629 3 629 1 q 621 4 625 4 q 614 4 617 4 q 607 45 611 15 q 588 131 603 75 l 576 169 l 499 169 q 460 171 476 169 q 425 176 443 172 q 424 164 425 171 q 421 144 422 157 q 401 54 411 93 q 385 4 392 15 q 358 4 374 4 q 322 3 343 4 q 296 0 301 3 l 283 0 q 282 3 282 0 q 278 4 281 4 q 263 3 267 4 l 263 0 l 78 0 q 65 -2 72 -1 q 46 -3 57 -3 l 32 -3 q 17 4 21 -3 q 7 35 7 18 q 8 49 7 44 q 8 62 8 56 q 10 76 8 68 q 17 99 13 92 q 21 119 21 114 q 47 237 24 136 q 110 508 69 338 q 204 904 150 679 q 208 911 204 906 q 217 919 211 917 l 222 919 l 225 917 q 235 919 232 917 q 243 924 239 922 q 260 926 254 926 q 278 926 269 926 q 297 924 288 925 q 304 924 300 924 q 311 922 308 925 q 320 920 314 921 q 332 919 326 919 q 339 923 332 922 q 349 924 346 924 q 378 926 361 925 q 422 926 394 926 l 554 926 q 567 925 554 925 q 578 925 574 925 q 589 924 583 925 l 658 924 q 665 921 661 922 q 671 919 668 919 q 685 920 678 919 q 700 922 693 921 q 715 924 707 924 q 725 924 722 924 q 753 926 740 925 q 779 926 765 926 q 796 928 788 926 q 814 924 804 929 q 834 917 825 918 q 850 917 843 917 q 856 919 856 917 l 861 919 q 869 912 865 918 q 874 904 874 906 q 906 777 888 851 q 944 618 924 703 q 985 446 964 533 q 1025 278 1006 358 q 1058 135 1044 199 q 1062 115 1061 121 q 1064 103 1063 110 q 1072 71 1065 93 q 1078 38 1078 49 q 1072 25 1078 26 q 1049 -3 1067 -3 l 1032 -3 m 442 335 q 450 338 450 335 l 458 338 q 468 342 461 339 q 485 344 475 344 l 486 344 l 496 338 l 561 338 l 551 400 l 546 426 q 540 452 543 442 q 538 472 538 463 q 533 509 538 479 q 524 578 529 539 l 518 617 q 512 640 514 629 q 508 661 510 651 l 506 678 l 506 685 q 503 692 503 688 q 501 697 503 697 l 501 692 q 496 678 501 686 l 496 661 q 492 639 493 650 q 488 617 490 628 l 475 551 q 458 442 464 496 q 442 335 453 388 m 526 1017 q 434 1033 485 1017 q 343 1082 383 1050 q 287 1141 307 1113 q 267 1197 267 1169 q 268 1256 267 1233 q 275 1299 269 1279 l 306 1315 l 438 1315 l 465 1299 q 461 1282 463 1289 q 460 1272 460 1275 q 465 1250 460 1263 q 506 1207 475 1225 q 554 1189 536 1189 q 585 1206 569 1189 q 612 1243 601 1222 q 622 1276 622 1264 q 622 1284 622 1279 q 619 1297 621 1289 l 642 1314 l 786 1308 l 818 1292 q 815 1242 822 1278 q 790 1165 807 1206 q 750 1099 774 1125 q 651 1034 707 1051 q 526 1017 596 1017 m 554 1350 l 503 1350 q 479 1371 494 1350 q 453 1416 465 1390 q 426 1472 440 1442 q 421 1483 424 1478 q 415 1494 418 1489 q 408 1508 413 1501 q 401 1519 404 1514 q 388 1546 394 1532 q 374 1575 381 1560 l 361 1600 q 353 1613 357 1607 q 347 1625 350 1619 q 343 1639 343 1633 q 353 1651 343 1647 q 369 1658 358 1657 q 380 1661 375 1660 q 389 1664 385 1663 l 396 1664 q 400 1663 396 1663 l 410 1665 l 499 1672 q 535 1671 513 1671 q 588 1671 557 1671 l 622 1660 l 632 1651 q 631 1604 632 1629 q 629 1550 631 1579 q 627 1515 628 1529 q 626 1492 626 1500 q 626 1475 626 1482 q 628 1463 626 1468 q 629 1433 629 1451 q 629 1392 629 1415 q 624 1361 629 1372 q 603 1350 619 1350 l 569 1350 l 565 1354 l 554 1350 z "},"Ẳ":{"ha":1085,"x_min":7,"x_max":1078,"o":"m 1032 -3 q 1015 -2 1022 -3 q 1001 0 1008 -1 l 771 0 q 767 1 769 0 q 760 3 764 1 l 718 3 l 658 4 q 651 3 653 4 q 640 0 649 0 l 636 0 l 635 1 q 629 3 629 1 q 621 4 625 4 q 614 4 617 4 q 607 45 611 15 q 588 131 603 75 l 576 169 l 499 169 q 460 171 476 169 q 425 176 443 172 q 424 164 425 171 q 421 144 422 157 q 401 54 411 93 q 385 4 392 15 q 358 4 374 4 q 322 3 343 4 q 296 0 301 3 l 283 0 q 282 3 282 0 q 278 4 281 4 q 263 3 267 4 l 263 0 l 78 0 q 65 -2 72 -1 q 46 -3 57 -3 l 32 -3 q 17 4 21 -3 q 7 35 7 18 q 8 49 7 44 q 8 62 8 56 q 10 76 8 68 q 17 99 13 92 q 21 119 21 114 q 47 237 24 136 q 110 508 69 338 q 204 904 150 679 q 208 911 204 906 q 217 919 211 917 l 222 919 l 225 917 q 235 919 232 917 q 243 924 239 922 q 260 926 254 926 q 278 926 269 926 q 297 924 288 925 q 304 924 300 924 q 311 922 308 925 q 320 920 314 921 q 332 919 326 919 q 339 923 332 922 q 349 924 346 924 q 378 926 361 925 q 422 926 394 926 l 554 926 q 567 925 554 925 q 578 925 574 925 q 589 924 583 925 l 658 924 q 665 921 661 922 q 671 919 668 919 q 685 920 678 919 q 700 922 693 921 q 715 924 707 924 q 725 924 722 924 q 753 926 740 925 q 779 926 765 926 q 796 928 788 926 q 814 924 804 929 q 834 917 825 918 q 850 917 843 917 q 856 919 856 917 l 861 919 q 869 912 865 918 q 874 904 874 906 q 906 777 888 851 q 944 618 924 703 q 985 446 964 533 q 1025 278 1006 358 q 1058 135 1044 199 q 1062 115 1061 121 q 1064 103 1063 110 q 1072 71 1065 93 q 1078 38 1078 49 q 1072 25 1078 26 q 1049 -3 1067 -3 l 1032 -3 m 442 335 q 450 338 450 335 l 458 338 q 468 342 461 339 q 485 344 475 344 l 486 344 l 496 338 l 561 338 l 551 400 l 546 426 q 540 452 543 442 q 538 472 538 463 q 533 509 538 479 q 524 578 529 539 l 518 617 q 512 640 514 629 q 508 661 510 651 l 506 678 l 506 685 q 503 692 503 688 q 501 697 503 697 l 501 692 q 496 678 501 686 l 496 661 q 492 639 493 650 q 488 617 490 628 l 475 551 q 458 442 464 496 q 442 335 453 388 m 526 1017 q 434 1033 485 1017 q 343 1082 383 1050 q 287 1141 307 1113 q 267 1197 267 1169 q 268 1256 267 1233 q 275 1299 269 1279 l 306 1315 l 438 1315 l 465 1299 q 461 1282 463 1289 q 460 1272 460 1275 q 465 1250 460 1263 q 506 1207 475 1225 q 554 1189 536 1189 q 585 1206 569 1189 q 612 1243 601 1222 q 622 1276 622 1264 q 622 1284 622 1279 q 619 1297 621 1289 l 642 1314 l 786 1308 l 818 1292 q 815 1242 822 1278 q 790 1165 807 1206 q 750 1099 774 1125 q 651 1034 707 1051 q 526 1017 596 1017 m 482 1350 q 455 1365 461 1350 q 449 1401 449 1379 q 455 1457 449 1431 q 496 1508 461 1483 q 523 1516 503 1513 q 549 1522 543 1519 q 578 1540 568 1533 q 589 1556 589 1546 q 567 1572 589 1567 q 493 1578 546 1578 q 442 1576 464 1578 q 407 1572 421 1575 q 381 1568 385 1568 q 369 1581 369 1568 q 372 1627 369 1604 q 376 1674 374 1650 q 378 1681 378 1678 q 381 1690 379 1685 q 389 1708 381 1701 q 399 1712 393 1711 q 406 1713 404 1713 q 494 1721 451 1719 q 535 1722 515 1722 q 574 1722 554 1722 q 663 1712 618 1722 q 738 1692 708 1701 q 767 1674 757 1683 q 789 1646 776 1664 q 804 1626 796 1636 q 813 1601 813 1617 q 803 1545 813 1575 q 766 1489 794 1515 q 679 1444 738 1463 q 638 1426 653 1438 q 613 1408 622 1415 q 599 1400 604 1400 q 593 1401 593 1400 l 592 1367 q 579 1350 592 1350 l 571 1350 l 560 1351 l 533 1351 q 513 1350 526 1350 q 482 1350 499 1350 z "},"Ẵ":{"ha":1085,"x_min":7,"x_max":1078,"o":"m 1032 -3 q 1015 -2 1022 -3 q 1001 0 1008 -1 l 771 0 q 767 1 769 0 q 760 3 764 1 l 718 3 l 658 4 q 651 3 653 4 q 640 0 649 0 l 636 0 l 635 1 q 629 3 629 1 q 621 4 625 4 q 614 4 617 4 q 607 45 611 15 q 588 131 603 75 l 576 169 l 499 169 q 460 171 476 169 q 425 176 443 172 q 424 164 425 171 q 421 144 422 157 q 401 54 411 93 q 385 4 392 15 q 358 4 374 4 q 322 3 343 4 q 296 0 301 3 l 283 0 q 282 3 282 0 q 278 4 281 4 q 263 3 267 4 l 263 0 l 78 0 q 65 -2 72 -1 q 46 -3 57 -3 l 32 -3 q 17 4 21 -3 q 7 35 7 18 q 8 49 7 44 q 8 62 8 56 q 10 76 8 68 q 17 99 13 92 q 21 119 21 114 q 47 237 24 136 q 110 508 69 338 q 204 904 150 679 q 208 911 204 906 q 217 919 211 917 l 222 919 l 225 917 q 235 919 232 917 q 243 924 239 922 q 260 926 254 926 q 278 926 269 926 q 297 924 288 925 q 304 924 300 924 q 311 922 308 925 q 320 920 314 921 q 332 919 326 919 q 339 923 332 922 q 349 924 346 924 q 378 926 361 925 q 422 926 394 926 l 554 926 q 567 925 554 925 q 578 925 574 925 q 589 924 583 925 l 658 924 q 665 921 661 922 q 671 919 668 919 q 685 920 678 919 q 700 922 693 921 q 715 924 707 924 q 725 924 722 924 q 753 926 740 925 q 779 926 765 926 q 796 928 788 926 q 814 924 804 929 q 834 917 825 918 q 850 917 843 917 q 856 919 856 917 l 861 919 q 869 912 865 918 q 874 904 874 906 q 906 777 888 851 q 944 618 924 703 q 985 446 964 533 q 1025 278 1006 358 q 1058 135 1044 199 q 1062 115 1061 121 q 1064 103 1063 110 q 1072 71 1065 93 q 1078 38 1078 49 q 1072 25 1078 26 q 1049 -3 1067 -3 l 1032 -3 m 442 335 q 450 338 450 335 l 458 338 q 468 342 461 339 q 485 344 475 344 l 486 344 l 496 338 l 561 338 l 551 400 l 546 426 q 540 452 543 442 q 538 472 538 463 q 533 509 538 479 q 524 578 529 539 l 518 617 q 512 640 514 629 q 508 661 510 651 l 506 678 l 506 685 q 503 692 503 688 q 501 697 503 697 l 501 692 q 496 678 501 686 l 496 661 q 492 639 493 650 q 488 617 490 628 l 475 551 q 458 442 464 496 q 442 335 453 388 m 526 1017 q 434 1033 485 1017 q 343 1082 383 1050 q 287 1141 307 1113 q 267 1197 267 1169 q 268 1256 267 1233 q 275 1299 269 1279 l 306 1315 l 438 1315 l 465 1299 q 461 1282 463 1289 q 460 1272 460 1275 q 465 1250 460 1263 q 506 1207 475 1225 q 554 1189 536 1189 q 585 1206 569 1189 q 612 1243 601 1222 q 622 1276 622 1264 q 622 1284 622 1279 q 619 1297 621 1289 l 642 1314 l 786 1308 l 818 1292 q 815 1242 822 1278 q 790 1165 807 1206 q 750 1099 774 1125 q 651 1034 707 1051 q 526 1017 596 1017 m 643 1640 q 656 1657 643 1656 q 678 1658 669 1658 l 831 1664 q 841 1654 836 1658 q 849 1644 846 1650 q 864 1605 860 1626 q 869 1556 868 1583 l 871 1514 q 867 1482 871 1496 q 857 1457 864 1468 q 778 1369 831 1404 q 726 1346 753 1354 q 661 1338 699 1338 q 602 1346 629 1338 q 550 1369 575 1354 q 545 1374 549 1371 q 535 1382 542 1378 q 521 1391 526 1386 q 511 1401 515 1396 q 446 1458 479 1443 q 410 1467 425 1467 q 389 1447 396 1467 q 382 1413 382 1428 q 380 1391 382 1406 q 375 1369 378 1376 q 369 1369 372 1364 q 260 1375 278 1369 q 229 1393 231 1383 q 222 1410 224 1399 q 221 1419 221 1413 q 217 1426 218 1422 q 215 1435 217 1431 q 220 1499 215 1461 q 239 1574 225 1536 q 279 1635 253 1611 q 431 1676 325 1676 q 447 1674 438 1676 q 468 1667 456 1671 q 488 1659 481 1661 q 500 1656 496 1657 q 544 1637 528 1650 q 565 1608 560 1624 q 569 1599 567 1604 q 576 1592 571 1594 q 585 1584 582 1589 q 593 1572 589 1579 q 632 1547 610 1547 q 663 1572 663 1547 q 660 1592 663 1581 q 653 1617 658 1604 l 653 1618 l 643 1640 z "},"Â":{"ha":1085,"x_min":7,"x_max":1078,"o":"m 1032 -3 q 1015 -2 1022 -3 q 1001 0 1008 -1 l 771 0 q 767 1 769 0 q 760 3 764 1 l 718 3 l 658 4 q 651 3 653 4 q 640 0 649 0 l 636 0 l 635 1 q 629 3 629 1 q 621 4 625 4 q 614 4 617 4 q 607 45 611 15 q 588 131 603 75 l 576 169 l 499 169 q 460 171 476 169 q 425 176 443 172 q 424 164 425 171 q 421 144 422 157 q 401 54 411 93 q 385 4 392 15 q 358 4 374 4 q 322 3 343 4 q 296 0 301 3 l 283 0 q 282 3 282 0 q 278 4 281 4 q 263 3 267 4 l 263 0 l 78 0 q 65 -2 72 -1 q 46 -3 57 -3 l 32 -3 q 17 4 21 -3 q 7 35 7 18 q 8 49 7 44 q 8 62 8 56 q 10 76 8 68 q 17 99 13 92 q 21 119 21 114 q 47 237 24 136 q 110 508 69 338 q 204 904 150 679 q 208 911 204 906 q 217 919 211 917 l 222 919 l 225 917 q 235 919 232 917 q 243 924 239 922 q 260 926 254 926 q 278 926 269 926 q 297 924 288 925 q 304 924 300 924 q 311 922 308 925 q 320 920 314 921 q 332 919 326 919 q 339 923 332 922 q 349 924 346 924 q 378 926 361 925 q 422 926 394 926 l 554 926 q 567 925 554 925 q 578 925 574 925 q 589 924 583 925 l 658 924 q 665 921 661 922 q 671 919 668 919 q 685 920 678 919 q 700 922 693 921 q 715 924 707 924 q 725 924 722 924 q 753 926 740 925 q 779 926 765 926 q 796 928 788 926 q 814 924 804 929 q 834 917 825 918 q 850 917 843 917 q 856 919 856 917 l 861 919 q 869 912 865 918 q 874 904 874 906 q 906 777 888 851 q 944 618 924 703 q 985 446 964 533 q 1025 278 1006 358 q 1058 135 1044 199 q 1062 115 1061 121 q 1064 103 1063 110 q 1072 71 1065 93 q 1078 38 1078 49 q 1072 25 1078 26 q 1049 -3 1067 -3 l 1032 -3 m 442 335 q 450 338 450 335 l 458 338 q 468 342 461 339 q 485 344 475 344 l 486 344 l 496 338 l 561 338 l 551 400 l 546 426 q 540 452 543 442 q 538 472 538 463 q 533 509 538 479 q 524 578 529 539 l 518 617 q 512 640 514 629 q 508 661 510 651 l 506 678 l 506 685 q 503 692 503 688 q 501 697 503 697 l 501 692 q 496 678 501 686 l 496 661 q 492 639 493 650 q 488 617 490 628 l 475 551 q 458 442 464 496 q 442 335 453 388 m 314 1013 l 283 1013 q 271 1031 271 1013 l 271 1040 q 308 1133 276 1072 q 317 1151 313 1140 q 331 1176 322 1163 l 353 1224 l 382 1278 q 395 1299 388 1285 q 414 1331 403 1313 l 421 1338 l 467 1347 l 619 1347 l 649 1344 l 671 1331 l 714 1263 q 788 1118 756 1193 q 814 1040 808 1071 l 815 1036 l 815 1031 q 800 1013 815 1013 l 669 1013 q 656 1022 663 1013 q 631 1053 638 1043 q 618 1074 624 1064 q 608 1085 613 1081 q 600 1096 604 1090 q 572 1132 586 1113 q 542 1174 558 1151 q 513 1121 524 1142 q 492 1090 501 1100 l 478 1076 q 440 1033 454 1053 q 417 1013 425 1013 l 378 1013 l 374 1014 l 369 1013 l 339 1013 q 329 1014 333 1013 q 314 1013 317 1014 z "},"Ấ":{"ha":1085,"x_min":7,"x_max":1078,"o":"m 1032 -3 q 1015 -2 1022 -3 q 1001 0 1008 -1 l 771 0 q 767 1 769 0 q 760 3 764 1 l 718 3 l 658 4 q 651 3 653 4 q 640 0 649 0 l 636 0 l 635 1 q 629 3 629 1 q 621 4 625 4 q 614 4 617 4 q 607 45 611 15 q 588 131 603 75 l 576 169 l 499 169 q 460 171 476 169 q 425 176 443 172 q 424 164 425 171 q 421 144 422 157 q 401 54 411 93 q 385 4 392 15 q 358 4 374 4 q 322 3 343 4 q 296 0 301 3 l 283 0 q 282 3 282 0 q 278 4 281 4 q 263 3 267 4 l 263 0 l 78 0 q 65 -2 72 -1 q 46 -3 57 -3 l 32 -3 q 17 4 21 -3 q 7 35 7 18 q 8 49 7 44 q 8 62 8 56 q 10 76 8 68 q 17 99 13 92 q 21 119 21 114 q 47 237 24 136 q 110 508 69 338 q 204 904 150 679 q 208 911 204 906 q 217 919 211 917 l 222 919 l 225 917 q 235 919 232 917 q 243 924 239 922 q 260 926 254 926 q 278 926 269 926 q 297 924 288 925 q 304 924 300 924 q 311 922 308 925 q 320 920 314 921 q 332 919 326 919 q 339 923 332 922 q 349 924 346 924 q 378 926 361 925 q 422 926 394 926 l 554 926 q 567 925 554 925 q 578 925 574 925 q 589 924 583 925 l 658 924 q 665 921 661 922 q 671 919 668 919 q 685 920 678 919 q 700 922 693 921 q 715 924 707 924 q 725 924 722 924 q 753 926 740 925 q 779 926 765 926 q 796 928 788 926 q 814 924 804 929 q 834 917 825 918 q 850 917 843 917 q 856 919 856 917 l 861 919 q 869 912 865 918 q 874 904 874 906 q 906 777 888 851 q 944 618 924 703 q 985 446 964 533 q 1025 278 1006 358 q 1058 135 1044 199 q 1062 115 1061 121 q 1064 103 1063 110 q 1072 71 1065 93 q 1078 38 1078 49 q 1072 25 1078 26 q 1049 -3 1067 -3 l 1032 -3 m 442 335 q 450 338 450 335 l 458 338 q 468 342 461 339 q 485 344 475 344 l 486 344 l 496 338 l 561 338 l 551 400 l 546 426 q 540 452 543 442 q 538 472 538 463 q 533 509 538 479 q 524 578 529 539 l 518 617 q 512 640 514 629 q 508 661 510 651 l 506 678 l 506 685 q 503 692 503 688 q 501 697 503 697 l 501 692 q 496 678 501 686 l 496 661 q 492 639 493 650 q 488 617 490 628 l 475 551 q 458 442 464 496 q 442 335 453 388 m 344 1024 l 340 1018 l 240 1018 q 228 1025 232 1018 q 225 1042 225 1032 l 225 1049 q 226 1057 225 1056 q 240 1078 233 1068 q 256 1096 247 1088 q 303 1168 292 1143 l 339 1213 q 367 1247 346 1226 q 399 1279 386 1265 l 403 1290 l 454 1321 l 594 1321 q 600 1318 597 1319 q 608 1317 603 1317 l 631 1317 l 668 1314 l 692 1299 l 796 1142 l 822 1106 q 841 1080 832 1092 q 858 1057 850 1068 l 861 1049 l 861 1042 q 843 1018 861 1018 l 690 1018 q 674 1032 681 1018 l 638 1065 q 588 1108 613 1089 q 543 1149 564 1128 q 501 1113 526 1135 q 457 1072 476 1090 q 433 1049 438 1053 q 394 1018 406 1018 l 349 1018 l 344 1024 m 861 1228 l 850 1231 l 844 1228 l 813 1228 q 791 1238 796 1228 q 786 1265 786 1247 q 786 1303 786 1288 q 788 1329 786 1319 q 789 1353 789 1335 q 788 1373 789 1360 q 786 1406 788 1386 q 782 1500 782 1488 l 793 1508 l 828 1518 q 881 1518 860 1518 q 917 1519 903 1518 l 1004 1514 l 1015 1511 q 1018 1513 1018 1511 l 1025 1513 q 1035 1510 1029 1511 q 1046 1507 1040 1508 q 1065 1501 1058 1504 q 1071 1489 1071 1497 q 1067 1476 1071 1485 q 1063 1467 1065 1474 q 1053 1454 1060 1461 q 1048 1443 1051 1450 q 1039 1425 1044 1436 q 1014 1381 1028 1400 q 989 1338 999 1358 q 963 1288 976 1311 q 935 1246 950 1265 q 913 1228 922 1228 l 861 1228 z "},"Ậ":{"ha":1085,"x_min":7,"x_max":1078,"o":"m 1032 -3 q 1015 -2 1022 -3 q 1001 0 1008 -1 l 771 0 q 767 1 769 0 q 760 3 764 1 l 718 3 l 658 4 q 651 3 653 4 q 640 0 649 0 l 636 0 l 635 1 q 629 3 629 1 q 621 4 625 4 q 614 4 617 4 q 607 45 611 15 q 588 131 603 75 l 576 169 l 499 169 q 460 171 476 169 q 425 176 443 172 q 424 164 425 171 q 421 144 422 157 q 401 54 411 93 q 385 4 392 15 q 358 4 374 4 q 322 3 343 4 q 296 0 301 3 l 283 0 q 282 3 282 0 q 278 4 281 4 q 263 3 267 4 l 263 0 l 78 0 q 65 -2 72 -1 q 46 -3 57 -3 l 32 -3 q 17 4 21 -3 q 7 35 7 18 q 8 49 7 44 q 8 62 8 56 q 10 76 8 68 q 17 99 13 92 q 21 119 21 114 q 47 237 24 136 q 110 508 69 338 q 204 904 150 679 q 208 911 204 906 q 217 919 211 917 l 222 919 l 225 917 q 235 919 232 917 q 243 924 239 922 q 260 926 254 926 q 278 926 269 926 q 297 924 288 925 q 304 924 300 924 q 311 922 308 925 q 320 920 314 921 q 332 919 326 919 q 339 923 332 922 q 349 924 346 924 q 378 926 361 925 q 422 926 394 926 l 554 926 q 567 925 554 925 q 578 925 574 925 q 589 924 583 925 l 658 924 q 665 921 661 922 q 671 919 668 919 q 685 920 678 919 q 700 922 693 921 q 715 924 707 924 q 725 924 722 924 q 753 926 740 925 q 779 926 765 926 q 796 928 788 926 q 814 924 804 929 q 834 917 825 918 q 850 917 843 917 q 856 919 856 917 l 861 919 q 869 912 865 918 q 874 904 874 906 q 906 777 888 851 q 944 618 924 703 q 985 446 964 533 q 1025 278 1006 358 q 1058 135 1044 199 q 1062 115 1061 121 q 1064 103 1063 110 q 1072 71 1065 93 q 1078 38 1078 49 q 1072 25 1078 26 q 1049 -3 1067 -3 l 1032 -3 m 442 335 q 450 338 450 335 l 458 338 q 468 342 461 339 q 485 344 475 344 l 486 344 l 496 338 l 561 338 l 551 400 l 546 426 q 540 452 543 442 q 538 472 538 463 q 533 509 538 479 q 524 578 529 539 l 518 617 q 512 640 514 629 q 508 661 510 651 l 506 678 l 506 685 q 503 692 503 688 q 501 697 503 697 l 501 692 q 496 678 501 686 l 496 661 q 492 639 493 650 q 488 617 490 628 l 475 551 q 458 442 464 496 q 442 335 453 388 m 344 1024 l 340 1018 l 240 1018 q 228 1025 232 1018 q 225 1042 225 1032 l 225 1049 q 226 1057 225 1056 q 240 1078 233 1068 q 256 1096 247 1088 q 303 1168 292 1143 l 339 1213 q 367 1247 346 1226 q 399 1279 386 1265 l 403 1290 l 454 1321 l 594 1321 q 600 1318 597 1319 q 608 1317 603 1317 l 631 1317 l 668 1314 l 692 1299 l 796 1142 l 822 1106 q 841 1080 832 1092 q 858 1057 850 1068 l 861 1049 l 861 1042 q 843 1018 861 1018 l 690 1018 q 674 1032 681 1018 l 638 1065 q 588 1108 613 1089 q 543 1149 564 1128 q 501 1113 526 1135 q 457 1072 476 1090 q 433 1049 438 1053 q 394 1018 406 1018 l 349 1018 l 344 1024 m 572 -412 l 540 -412 q 519 -411 524 -412 q 508 -410 514 -410 q 497 -410 501 -410 l 390 -400 l 382 -392 q 380 -365 381 -381 q 379 -332 379 -349 q 385 -228 379 -262 q 385 -206 385 -218 q 388 -179 386 -193 l 388 -143 q 424 -124 390 -124 q 451 -124 439 -124 q 469 -125 464 -124 q 492 -126 488 -125 q 504 -128 499 -128 q 515 -128 510 -128 q 531 -127 522 -128 q 549 -125 539 -126 l 656 -125 q 661 -124 658 -125 q 674 -124 664 -124 q 706 -140 706 -124 l 706 -143 q 703 -154 704 -150 q 703 -162 703 -158 l 703 -193 q 704 -207 703 -203 l 704 -367 q 701 -372 701 -372 q 700 -382 700 -375 q 686 -400 697 -392 q 682 -401 683 -400 q 679 -401 681 -401 q 668 -403 676 -403 q 665 -400 665 -403 l 660 -400 l 650 -404 l 622 -407 q 617 -408 618 -407 q 615 -409 615 -408 q 613 -410 615 -410 l 603 -411 q 599 -410 601 -411 q 592 -410 597 -410 q 589 -409 590 -410 q 588 -408 588 -408 q 582 -407 586 -407 q 579 -410 579 -407 l 572 -412 z "},"Ầ":{"ha":1085,"x_min":7,"x_max":1078,"o":"m 1032 -3 q 1015 -2 1022 -3 q 1001 0 1008 -1 l 771 0 q 767 1 769 0 q 760 3 764 1 l 718 3 l 658 4 q 651 3 653 4 q 640 0 649 0 l 636 0 l 635 1 q 629 3 629 1 q 621 4 625 4 q 614 4 617 4 q 607 45 611 15 q 588 131 603 75 l 576 169 l 499 169 q 460 171 476 169 q 425 176 443 172 q 424 164 425 171 q 421 144 422 157 q 401 54 411 93 q 385 4 392 15 q 358 4 374 4 q 322 3 343 4 q 296 0 301 3 l 283 0 q 282 3 282 0 q 278 4 281 4 q 263 3 267 4 l 263 0 l 78 0 q 65 -2 72 -1 q 46 -3 57 -3 l 32 -3 q 17 4 21 -3 q 7 35 7 18 q 8 49 7 44 q 8 62 8 56 q 10 76 8 68 q 17 99 13 92 q 21 119 21 114 q 47 237 24 136 q 110 508 69 338 q 204 904 150 679 q 208 911 204 906 q 217 919 211 917 l 222 919 l 225 917 q 235 919 232 917 q 243 924 239 922 q 260 926 254 926 q 278 926 269 926 q 297 924 288 925 q 304 924 300 924 q 311 922 308 925 q 320 920 314 921 q 332 919 326 919 q 339 923 332 922 q 349 924 346 924 q 378 926 361 925 q 422 926 394 926 l 554 926 q 567 925 554 925 q 578 925 574 925 q 589 924 583 925 l 658 924 q 665 921 661 922 q 671 919 668 919 q 685 920 678 919 q 700 922 693 921 q 715 924 707 924 q 725 924 722 924 q 753 926 740 925 q 779 926 765 926 q 796 928 788 926 q 814 924 804 929 q 834 917 825 918 q 850 917 843 917 q 856 919 856 917 l 861 919 q 869 912 865 918 q 874 904 874 906 q 906 777 888 851 q 944 618 924 703 q 985 446 964 533 q 1025 278 1006 358 q 1058 135 1044 199 q 1062 115 1061 121 q 1064 103 1063 110 q 1072 71 1065 93 q 1078 38 1078 49 q 1072 25 1078 26 q 1049 -3 1067 -3 l 1032 -3 m 442 335 q 450 338 450 335 l 458 338 q 468 342 461 339 q 485 344 475 344 l 486 344 l 496 338 l 561 338 l 551 400 l 546 426 q 540 452 543 442 q 538 472 538 463 q 533 509 538 479 q 524 578 529 539 l 518 617 q 512 640 514 629 q 508 661 510 651 l 506 678 l 506 685 q 503 692 503 688 q 501 697 503 697 l 501 692 q 496 678 501 686 l 496 661 q 492 639 493 650 q 488 617 490 628 l 475 551 q 458 442 464 496 q 442 335 453 388 m 344 1024 l 340 1018 l 240 1018 q 228 1025 232 1018 q 225 1042 225 1032 l 225 1049 q 226 1057 225 1056 q 240 1078 233 1068 q 256 1096 247 1088 q 303 1168 292 1143 l 339 1213 q 367 1247 346 1226 q 399 1279 386 1265 l 403 1290 l 454 1321 l 594 1321 q 600 1318 597 1319 q 608 1317 603 1317 l 631 1317 l 668 1314 l 692 1299 l 796 1142 l 822 1106 q 841 1080 832 1092 q 858 1057 850 1068 l 861 1049 l 861 1042 q 843 1018 861 1018 l 690 1018 q 674 1032 681 1018 l 638 1065 q 588 1108 613 1089 q 543 1149 564 1128 q 501 1113 526 1135 q 457 1072 476 1090 q 433 1049 438 1053 q 394 1018 406 1018 l 349 1018 l 344 1024 m 882 1225 l 831 1225 q 807 1246 822 1225 q 781 1291 793 1265 q 754 1347 768 1317 q 749 1358 751 1353 q 743 1369 746 1364 q 736 1383 740 1376 q 729 1394 732 1389 q 715 1421 722 1407 q 701 1450 708 1435 l 689 1475 q 681 1488 685 1482 q 675 1500 678 1494 q 671 1514 671 1508 q 681 1526 671 1522 q 697 1533 686 1532 q 708 1536 703 1535 q 717 1539 713 1538 l 724 1539 q 728 1538 724 1538 l 738 1540 l 826 1547 q 863 1546 840 1546 q 915 1546 885 1546 l 950 1535 l 960 1526 q 959 1479 960 1504 q 957 1425 958 1454 q 955 1390 956 1404 q 954 1367 954 1375 q 954 1350 954 1357 q 956 1338 954 1343 q 957 1308 957 1326 q 957 1267 957 1290 q 952 1236 957 1247 q 931 1225 947 1225 l 897 1225 l 893 1229 l 882 1225 z "},"Ẩ":{"ha":1085,"x_min":7,"x_max":1140,"o":"m 1032 -3 q 1015 -2 1022 -3 q 1001 0 1008 -1 l 771 0 q 767 1 769 0 q 760 3 764 1 l 718 3 l 658 4 q 651 3 653 4 q 640 0 649 0 l 636 0 l 635 1 q 629 3 629 1 q 621 4 625 4 q 614 4 617 4 q 607 45 611 15 q 588 131 603 75 l 576 169 l 499 169 q 460 171 476 169 q 425 176 443 172 q 424 164 425 171 q 421 144 422 157 q 401 54 411 93 q 385 4 392 15 q 358 4 374 4 q 322 3 343 4 q 296 0 301 3 l 283 0 q 282 3 282 0 q 278 4 281 4 q 263 3 267 4 l 263 0 l 78 0 q 65 -2 72 -1 q 46 -3 57 -3 l 32 -3 q 17 4 21 -3 q 7 35 7 18 q 8 49 7 44 q 8 62 8 56 q 10 76 8 68 q 17 99 13 92 q 21 119 21 114 q 47 237 24 136 q 110 508 69 338 q 204 904 150 679 q 208 911 204 906 q 217 919 211 917 l 222 919 l 225 917 q 235 919 232 917 q 243 924 239 922 q 260 926 254 926 q 278 926 269 926 q 297 924 288 925 q 304 924 300 924 q 311 922 308 925 q 320 920 314 921 q 332 919 326 919 q 339 923 332 922 q 349 924 346 924 q 378 926 361 925 q 422 926 394 926 l 554 926 q 567 925 554 925 q 578 925 574 925 q 589 924 583 925 l 658 924 q 665 921 661 922 q 671 919 668 919 q 685 920 678 919 q 700 922 693 921 q 715 924 707 924 q 725 924 722 924 q 753 926 740 925 q 779 926 765 926 q 796 928 788 926 q 814 924 804 929 q 834 917 825 918 q 850 917 843 917 q 856 919 856 917 l 861 919 q 869 912 865 918 q 874 904 874 906 q 906 777 888 851 q 944 618 924 703 q 985 446 964 533 q 1025 278 1006 358 q 1058 135 1044 199 q 1062 115 1061 121 q 1064 103 1063 110 q 1072 71 1065 93 q 1078 38 1078 49 q 1072 25 1078 26 q 1049 -3 1067 -3 l 1032 -3 m 442 335 q 450 338 450 335 l 458 338 q 468 342 461 339 q 485 344 475 344 l 486 344 l 496 338 l 561 338 l 551 400 l 546 426 q 540 452 543 442 q 538 472 538 463 q 533 509 538 479 q 524 578 529 539 l 518 617 q 512 640 514 629 q 508 661 510 651 l 506 678 l 506 685 q 503 692 503 688 q 501 697 503 697 l 501 692 q 496 678 501 686 l 496 661 q 492 639 493 650 q 488 617 490 628 l 475 551 q 458 442 464 496 q 442 335 453 388 m 344 1024 l 340 1018 l 240 1018 q 228 1025 232 1018 q 225 1042 225 1032 l 225 1049 q 226 1057 225 1056 q 240 1078 233 1068 q 256 1096 247 1088 q 303 1168 292 1143 l 339 1213 q 367 1247 346 1226 q 399 1279 386 1265 l 403 1290 l 454 1321 l 594 1321 q 600 1318 597 1319 q 608 1317 603 1317 l 631 1317 l 668 1314 l 692 1299 l 796 1142 l 822 1106 q 841 1080 832 1092 q 858 1057 850 1068 l 861 1049 l 861 1042 q 843 1018 861 1018 l 690 1018 q 674 1032 681 1018 l 638 1065 q 588 1108 613 1089 q 543 1149 564 1128 q 501 1113 526 1135 q 457 1072 476 1090 q 433 1049 438 1053 q 394 1018 406 1018 l 349 1018 l 344 1024 m 810 1225 q 783 1240 789 1225 q 776 1276 776 1254 q 783 1332 776 1306 q 824 1383 789 1358 q 851 1391 831 1388 q 876 1397 871 1394 q 906 1415 896 1408 q 917 1431 917 1421 q 895 1447 917 1442 q 821 1453 874 1453 q 770 1451 792 1453 q 735 1447 749 1450 q 708 1443 713 1443 q 697 1456 697 1443 q 699 1502 697 1479 q 704 1549 701 1525 q 706 1556 706 1553 q 708 1565 707 1560 q 717 1583 708 1576 q 726 1587 721 1586 q 733 1588 732 1588 q 822 1596 779 1594 q 863 1597 843 1597 q 901 1597 882 1597 q 991 1587 946 1597 q 1065 1567 1036 1576 q 1094 1549 1085 1558 q 1117 1521 1104 1539 q 1132 1501 1124 1511 q 1140 1476 1140 1492 q 1131 1420 1140 1450 q 1094 1364 1122 1390 q 1007 1319 1065 1338 q 965 1301 981 1313 q 940 1283 950 1290 q 926 1275 932 1275 q 921 1276 921 1275 l 919 1242 q 907 1225 919 1225 l 899 1225 l 888 1226 l 861 1226 q 840 1225 854 1225 q 810 1225 826 1225 z "},"Ẫ":{"ha":1085,"x_min":7,"x_max":1078,"o":"m 1032 -3 q 1015 -2 1022 -3 q 1001 0 1008 -1 l 771 0 q 767 1 769 0 q 760 3 764 1 l 718 3 l 658 4 q 651 3 653 4 q 640 0 649 0 l 636 0 l 635 1 q 629 3 629 1 q 621 4 625 4 q 614 4 617 4 q 607 45 611 15 q 588 131 603 75 l 576 169 l 499 169 q 460 171 476 169 q 425 176 443 172 q 424 164 425 171 q 421 144 422 157 q 401 54 411 93 q 385 4 392 15 q 358 4 374 4 q 322 3 343 4 q 296 0 301 3 l 283 0 q 282 3 282 0 q 278 4 281 4 q 263 3 267 4 l 263 0 l 78 0 q 65 -2 72 -1 q 46 -3 57 -3 l 32 -3 q 17 4 21 -3 q 7 35 7 18 q 8 49 7 44 q 8 62 8 56 q 10 76 8 68 q 17 99 13 92 q 21 119 21 114 q 47 237 24 136 q 110 508 69 338 q 204 904 150 679 q 208 911 204 906 q 217 919 211 917 l 222 919 l 225 917 q 235 919 232 917 q 243 924 239 922 q 260 926 254 926 q 278 926 269 926 q 297 924 288 925 q 304 924 300 924 q 311 922 308 925 q 320 920 314 921 q 332 919 326 919 q 339 923 332 922 q 349 924 346 924 q 378 926 361 925 q 422 926 394 926 l 554 926 q 567 925 554 925 q 578 925 574 925 q 589 924 583 925 l 658 924 q 665 921 661 922 q 671 919 668 919 q 685 920 678 919 q 700 922 693 921 q 715 924 707 924 q 725 924 722 924 q 753 926 740 925 q 779 926 765 926 q 796 928 788 926 q 814 924 804 929 q 834 917 825 918 q 850 917 843 917 q 856 919 856 917 l 861 919 q 869 912 865 918 q 874 904 874 906 q 906 777 888 851 q 944 618 924 703 q 985 446 964 533 q 1025 278 1006 358 q 1058 135 1044 199 q 1062 115 1061 121 q 1064 103 1063 110 q 1072 71 1065 93 q 1078 38 1078 49 q 1072 25 1078 26 q 1049 -3 1067 -3 l 1032 -3 m 442 335 q 450 338 450 335 l 458 338 q 468 342 461 339 q 485 344 475 344 l 486 344 l 496 338 l 561 338 l 551 400 l 546 426 q 540 452 543 442 q 538 472 538 463 q 533 509 538 479 q 524 578 529 539 l 518 617 q 512 640 514 629 q 508 661 510 651 l 506 678 l 506 685 q 503 692 503 688 q 501 697 503 697 l 501 692 q 496 678 501 686 l 496 661 q 492 639 493 650 q 488 617 490 628 l 475 551 q 458 442 464 496 q 442 335 453 388 m 344 1024 l 340 1018 l 240 1018 q 228 1025 232 1018 q 225 1042 225 1032 l 225 1049 q 226 1057 225 1056 q 240 1078 233 1068 q 256 1096 247 1088 q 303 1168 292 1143 l 339 1213 q 367 1247 346 1226 q 399 1279 386 1265 l 403 1290 l 454 1321 l 594 1321 q 600 1318 597 1319 q 608 1317 603 1317 l 631 1317 l 668 1314 l 692 1299 l 796 1142 l 822 1106 q 841 1080 832 1092 q 858 1057 850 1068 l 861 1049 l 861 1042 q 843 1018 861 1018 l 690 1018 q 674 1032 681 1018 l 638 1065 q 588 1108 613 1089 q 543 1149 564 1128 q 501 1113 526 1135 q 457 1072 476 1090 q 433 1049 438 1053 q 394 1018 406 1018 l 349 1018 l 344 1024 m 643 1668 q 656 1685 643 1683 q 678 1686 669 1686 l 831 1692 q 841 1682 836 1686 q 849 1672 846 1678 q 864 1633 860 1654 q 869 1583 868 1611 l 871 1542 q 867 1510 871 1524 q 857 1485 864 1496 q 778 1397 831 1432 q 726 1374 753 1382 q 661 1365 699 1365 q 602 1374 629 1365 q 550 1397 575 1382 q 545 1402 549 1399 q 535 1410 542 1406 q 521 1419 526 1414 q 511 1429 515 1424 q 446 1486 479 1471 q 410 1494 425 1494 q 389 1475 396 1494 q 382 1440 382 1456 q 380 1419 382 1433 q 375 1397 378 1404 q 369 1397 372 1392 q 260 1403 278 1397 q 229 1421 231 1411 q 222 1438 224 1426 q 221 1447 221 1440 q 217 1454 218 1450 q 215 1463 217 1458 q 220 1526 215 1489 q 239 1601 225 1564 q 279 1663 253 1639 q 431 1704 325 1704 q 447 1701 438 1704 q 468 1694 456 1699 q 488 1687 481 1689 q 500 1683 496 1685 q 544 1665 528 1678 q 565 1636 560 1651 q 569 1627 567 1632 q 576 1619 571 1622 q 585 1612 582 1617 q 593 1600 589 1607 q 632 1575 610 1575 q 663 1600 663 1575 q 660 1620 663 1608 q 653 1644 658 1632 l 653 1646 l 643 1668 z "},"Ȁ":{"ha":1085,"x_min":7,"x_max":1078,"o":"m 1032 -3 q 1015 -2 1022 -3 q 1001 0 1008 -1 l 771 0 q 767 1 769 0 q 760 3 764 1 l 718 3 l 658 4 q 651 3 653 4 q 640 0 649 0 l 636 0 l 635 1 q 629 3 629 1 q 621 4 625 4 q 614 4 617 4 q 607 45 611 15 q 588 131 603 75 l 576 169 l 499 169 q 460 171 476 169 q 425 176 443 172 q 424 164 425 171 q 421 144 422 157 q 401 54 411 93 q 385 4 392 15 q 358 4 374 4 q 322 3 343 4 q 296 0 301 3 l 283 0 q 282 3 282 0 q 278 4 281 4 q 263 3 267 4 l 263 0 l 78 0 q 65 -2 72 -1 q 46 -3 57 -3 l 32 -3 q 17 4 21 -3 q 7 35 7 18 q 8 49 7 44 q 8 62 8 56 q 10 76 8 68 q 17 99 13 92 q 21 119 21 114 q 47 237 24 136 q 110 508 69 338 q 204 904 150 679 q 208 911 204 906 q 217 919 211 917 l 222 919 l 225 917 q 235 919 232 917 q 243 924 239 922 q 260 926 254 926 q 278 926 269 926 q 297 924 288 925 q 304 924 300 924 q 311 922 308 925 q 320 920 314 921 q 332 919 326 919 q 339 923 332 922 q 349 924 346 924 q 378 926 361 925 q 422 926 394 926 l 554 926 q 567 925 554 925 q 578 925 574 925 q 589 924 583 925 l 658 924 q 665 921 661 922 q 671 919 668 919 q 685 920 678 919 q 700 922 693 921 q 715 924 707 924 q 725 924 722 924 q 753 926 740 925 q 779 926 765 926 q 796 928 788 926 q 814 924 804 929 q 834 917 825 918 q 850 917 843 917 q 856 919 856 917 l 861 919 q 869 912 865 918 q 874 904 874 906 q 906 777 888 851 q 944 618 924 703 q 985 446 964 533 q 1025 278 1006 358 q 1058 135 1044 199 q 1062 115 1061 121 q 1064 103 1063 110 q 1072 71 1065 93 q 1078 38 1078 49 q 1072 25 1078 26 q 1049 -3 1067 -3 l 1032 -3 m 442 335 q 450 338 450 335 l 458 338 q 468 342 461 339 q 485 344 475 344 l 486 344 l 496 338 l 561 338 l 551 400 l 546 426 q 540 452 543 442 q 538 472 538 463 q 533 509 538 479 q 524 578 529 539 l 518 617 q 512 640 514 629 q 508 661 510 651 l 506 678 l 506 685 q 503 692 503 688 q 501 697 503 697 l 501 692 q 496 678 501 686 l 496 661 q 492 639 493 650 q 488 617 490 628 l 475 551 q 458 442 464 496 q 442 335 453 388 m 697 1014 l 672 1017 l 646 1017 q 629 1040 636 1017 q 613 1096 624 1061 q 592 1163 601 1131 q 578 1207 582 1194 q 572 1222 575 1213 q 564 1243 568 1231 q 561 1252 563 1247 q 557 1263 560 1257 q 549 1294 553 1276 q 543 1315 544 1311 q 539 1326 540 1321 q 536 1333 538 1331 q 535 1340 535 1336 q 533 1346 535 1344 q 533 1351 532 1349 q 533 1356 533 1353 q 547 1371 533 1367 q 563 1374 553 1372 q 588 1378 574 1376 l 593 1378 q 597 1375 593 1375 l 608 1379 l 646 1378 l 653 1379 q 656 1380 654 1379 q 658 1381 657 1381 l 663 1381 l 676 1379 q 690 1376 688 1379 l 701 1379 q 726 1373 718 1375 q 743 1369 733 1371 q 772 1365 753 1368 l 818 1357 l 825 1349 q 833 1288 831 1328 q 838 1202 836 1247 q 839 1117 839 1157 q 838 1056 839 1076 q 824 1026 833 1035 q 800 1017 815 1018 l 739 1011 l 714 1013 l 708 1017 l 697 1014 m 365 1021 l 314 1021 q 292 1042 304 1021 q 272 1078 279 1064 q 256 1110 264 1092 q 232 1164 247 1129 q 222 1181 226 1172 q 213 1197 217 1189 l 196 1232 q 185 1252 192 1240 q 174 1271 179 1264 q 140 1331 160 1289 q 136 1343 136 1339 q 146 1357 136 1351 q 183 1368 157 1363 l 188 1368 q 192 1367 189 1367 l 193 1367 l 203 1371 l 224 1374 l 233 1375 q 238 1376 236 1375 q 240 1378 239 1378 l 254 1378 q 269 1375 264 1378 l 279 1379 l 360 1375 l 419 1365 l 432 1357 q 468 1257 458 1310 q 488 1161 478 1204 q 499 1109 490 1133 q 508 1063 508 1085 q 503 1032 508 1043 q 483 1021 499 1021 l 381 1021 l 375 1025 l 365 1021 z "},"Ä":{"ha":1085,"x_min":7,"x_max":1078,"o":"m 1032 -3 q 1015 -2 1022 -3 q 1001 0 1008 -1 l 771 0 q 767 1 769 0 q 760 3 764 1 l 718 3 l 658 4 q 651 3 653 4 q 640 0 649 0 l 636 0 l 635 1 q 629 3 629 1 q 621 4 625 4 q 614 4 617 4 q 607 45 611 15 q 588 131 603 75 l 576 169 l 499 169 q 460 171 476 169 q 425 176 443 172 q 424 164 425 171 q 421 144 422 157 q 401 54 411 93 q 385 4 392 15 q 358 4 374 4 q 322 3 343 4 q 296 0 301 3 l 283 0 q 282 3 282 0 q 278 4 281 4 q 263 3 267 4 l 263 0 l 78 0 q 65 -2 72 -1 q 46 -3 57 -3 l 32 -3 q 17 4 21 -3 q 7 35 7 18 q 8 49 7 44 q 8 62 8 56 q 10 76 8 68 q 17 99 13 92 q 21 119 21 114 q 47 237 24 136 q 110 508 69 338 q 204 904 150 679 q 208 911 204 906 q 217 919 211 917 l 222 919 l 225 917 q 235 919 232 917 q 243 924 239 922 q 260 926 254 926 q 278 926 269 926 q 297 924 288 925 q 304 924 300 924 q 311 922 308 925 q 320 920 314 921 q 332 919 326 919 q 339 923 332 922 q 349 924 346 924 q 378 926 361 925 q 422 926 394 926 l 554 926 q 567 925 554 925 q 578 925 574 925 q 589 924 583 925 l 658 924 q 665 921 661 922 q 671 919 668 919 q 685 920 678 919 q 700 922 693 921 q 715 924 707 924 q 725 924 722 924 q 753 926 740 925 q 779 926 765 926 q 796 928 788 926 q 814 924 804 929 q 834 917 825 918 q 850 917 843 917 q 856 919 856 917 l 861 919 q 869 912 865 918 q 874 904 874 906 q 906 777 888 851 q 944 618 924 703 q 985 446 964 533 q 1025 278 1006 358 q 1058 135 1044 199 q 1062 115 1061 121 q 1064 103 1063 110 q 1072 71 1065 93 q 1078 38 1078 49 q 1072 25 1078 26 q 1049 -3 1067 -3 l 1032 -3 m 442 335 q 450 338 450 335 l 458 338 q 468 342 461 339 q 485 344 475 344 l 486 344 l 496 338 l 561 338 l 551 400 l 546 426 q 540 452 543 442 q 538 472 538 463 q 533 509 538 479 q 524 578 529 539 l 518 617 q 512 640 514 629 q 508 661 510 651 l 506 678 l 506 685 q 503 692 503 688 q 501 697 503 697 l 501 692 q 496 678 501 686 l 496 661 q 492 639 493 650 q 488 617 490 628 l 475 551 q 458 442 464 496 q 442 335 453 388 m 188 1042 l 179 1050 l 169 1094 l 169 1135 l 168 1163 l 167 1171 q 172 1189 167 1183 l 176 1232 l 176 1236 l 175 1243 q 181 1260 178 1251 q 190 1275 185 1268 q 215 1282 197 1282 l 360 1282 q 392 1285 382 1285 q 408 1286 403 1286 q 422 1286 419 1286 q 426 1285 425 1286 q 435 1283 433 1285 q 444 1282 438 1282 l 454 1282 q 460 1283 458 1282 q 464 1285 461 1285 l 468 1285 q 485 1250 485 1285 l 485 1222 q 483 1208 483 1214 q 482 1194 482 1201 q 483 1192 482 1193 q 485 1185 483 1190 l 485 1111 q 486 1104 486 1108 q 486 1079 486 1100 q 464 1042 486 1044 l 188 1042 m 693 1042 l 611 1050 l 603 1094 l 603 1135 q 599 1171 603 1157 l 599 1178 q 597 1189 597 1179 l 597 1208 q 596 1218 596 1213 q 596 1246 596 1224 q 597 1249 596 1247 q 596 1251 597 1250 l 596 1257 q 599 1261 597 1258 q 604 1268 601 1264 q 614 1278 608 1276 q 649 1282 629 1282 l 793 1282 q 826 1285 817 1285 q 840 1286 836 1286 q 856 1286 853 1286 q 860 1285 858 1286 q 867 1283 865 1285 q 878 1282 869 1282 l 888 1282 q 893 1283 892 1282 q 897 1285 894 1285 l 901 1285 q 917 1250 917 1285 l 917 1232 l 915 1194 l 915 1190 q 917 1185 915 1186 l 917 1140 l 915 1125 l 915 1111 q 917 1097 915 1099 q 919 1088 918 1092 q 919 1079 919 1083 q 897 1042 919 1043 l 693 1042 z "},"Ạ":{"ha":1085,"x_min":7,"x_max":1078,"o":"m 1032 -3 q 1015 -2 1022 -3 q 1001 0 1008 -1 l 771 0 q 767 1 769 0 q 760 3 764 1 l 718 3 l 658 4 q 651 3 653 4 q 640 0 649 0 l 636 0 l 635 1 q 629 3 629 1 q 621 4 625 4 q 614 4 617 4 q 607 45 611 15 q 588 131 603 75 l 576 169 l 499 169 q 460 171 476 169 q 425 176 443 172 q 424 164 425 171 q 421 144 422 157 q 401 54 411 93 q 385 4 392 15 q 358 4 374 4 q 322 3 343 4 q 296 0 301 3 l 283 0 q 282 3 282 0 q 278 4 281 4 q 263 3 267 4 l 263 0 l 78 0 q 65 -2 72 -1 q 46 -3 57 -3 l 32 -3 q 17 4 21 -3 q 7 35 7 18 q 8 49 7 44 q 8 62 8 56 q 10 76 8 68 q 17 99 13 92 q 21 119 21 114 q 47 237 24 136 q 110 508 69 338 q 204 904 150 679 q 208 911 204 906 q 217 919 211 917 l 222 919 l 225 917 q 235 919 232 917 q 243 924 239 922 q 260 926 254 926 q 278 926 269 926 q 297 924 288 925 q 304 924 300 924 q 311 922 308 925 q 320 920 314 921 q 332 919 326 919 q 339 923 332 922 q 349 924 346 924 q 378 926 361 925 q 422 926 394 926 l 554 926 q 567 925 554 925 q 578 925 574 925 q 589 924 583 925 l 658 924 q 665 921 661 922 q 671 919 668 919 q 685 920 678 919 q 700 922 693 921 q 715 924 707 924 q 725 924 722 924 q 753 926 740 925 q 779 926 765 926 q 796 928 788 926 q 814 924 804 929 q 834 917 825 918 q 850 917 843 917 q 856 919 856 917 l 861 919 q 869 912 865 918 q 874 904 874 906 q 906 777 888 851 q 944 618 924 703 q 985 446 964 533 q 1025 278 1006 358 q 1058 135 1044 199 q 1062 115 1061 121 q 1064 103 1063 110 q 1072 71 1065 93 q 1078 38 1078 49 q 1072 25 1078 26 q 1049 -3 1067 -3 l 1032 -3 m 442 335 q 450 338 450 335 l 458 338 q 468 342 461 339 q 485 344 475 344 l 486 344 l 496 338 l 561 338 l 551 400 l 546 426 q 540 452 543 442 q 538 472 538 463 q 533 509 538 479 q 524 578 529 539 l 518 617 q 512 640 514 629 q 508 661 510 651 l 506 678 l 506 685 q 503 692 503 688 q 501 697 503 697 l 501 692 q 496 678 501 686 l 496 661 q 492 639 493 650 q 488 617 490 628 l 475 551 q 458 442 464 496 q 442 335 453 388 m 572 -412 l 540 -412 q 519 -411 524 -412 q 508 -410 514 -410 q 497 -410 501 -410 l 390 -400 l 382 -392 q 380 -365 381 -381 q 379 -332 379 -349 q 385 -228 379 -262 q 385 -206 385 -218 q 388 -179 386 -193 l 388 -143 q 424 -124 390 -124 q 451 -124 439 -124 q 469 -125 464 -124 q 492 -126 488 -125 q 504 -128 499 -128 q 515 -128 510 -128 q 531 -127 522 -128 q 549 -125 539 -126 l 656 -125 q 661 -124 658 -125 q 674 -124 664 -124 q 706 -140 706 -124 l 706 -143 q 703 -154 704 -150 q 703 -162 703 -158 l 703 -193 q 704 -207 703 -203 l 704 -367 q 701 -372 701 -372 q 700 -382 700 -375 q 686 -400 697 -392 q 682 -401 683 -400 q 679 -401 681 -401 q 668 -403 676 -403 q 665 -400 665 -403 l 660 -400 l 650 -404 l 622 -407 q 617 -408 618 -407 q 615 -409 615 -408 q 613 -410 615 -410 l 603 -411 q 599 -410 601 -411 q 592 -410 597 -410 q 589 -409 590 -410 q 588 -408 588 -408 q 582 -407 586 -407 q 579 -410 579 -407 l 572 -412 z "},"À":{"ha":1085,"x_min":7,"x_max":1078,"o":"m 1032 -3 q 1015 -2 1022 -3 q 1001 0 1008 -1 l 771 0 q 767 1 769 0 q 760 3 764 1 l 718 3 l 658 4 q 651 3 653 4 q 640 0 649 0 l 636 0 l 635 1 q 629 3 629 1 q 621 4 625 4 q 614 4 617 4 q 607 45 611 15 q 588 131 603 75 l 576 169 l 499 169 q 460 171 476 169 q 425 176 443 172 q 424 164 425 171 q 421 144 422 157 q 401 54 411 93 q 385 4 392 15 q 358 4 374 4 q 322 3 343 4 q 296 0 301 3 l 283 0 q 282 3 282 0 q 278 4 281 4 q 263 3 267 4 l 263 0 l 78 0 q 65 -2 72 -1 q 46 -3 57 -3 l 32 -3 q 17 4 21 -3 q 7 35 7 18 q 8 49 7 44 q 8 62 8 56 q 10 76 8 68 q 17 99 13 92 q 21 119 21 114 q 47 237 24 136 q 110 508 69 338 q 204 904 150 679 q 208 911 204 906 q 217 919 211 917 l 222 919 l 225 917 q 235 919 232 917 q 243 924 239 922 q 260 926 254 926 q 278 926 269 926 q 297 924 288 925 q 304 924 300 924 q 311 922 308 925 q 320 920 314 921 q 332 919 326 919 q 339 923 332 922 q 349 924 346 924 q 378 926 361 925 q 422 926 394 926 l 554 926 q 567 925 554 925 q 578 925 574 925 q 589 924 583 925 l 658 924 q 665 921 661 922 q 671 919 668 919 q 685 920 678 919 q 700 922 693 921 q 715 924 707 924 q 725 924 722 924 q 753 926 740 925 q 779 926 765 926 q 796 928 788 926 q 814 924 804 929 q 834 917 825 918 q 850 917 843 917 q 856 919 856 917 l 861 919 q 869 912 865 918 q 874 904 874 906 q 906 777 888 851 q 944 618 924 703 q 985 446 964 533 q 1025 278 1006 358 q 1058 135 1044 199 q 1062 115 1061 121 q 1064 103 1063 110 q 1072 71 1065 93 q 1078 38 1078 49 q 1072 25 1078 26 q 1049 -3 1067 -3 l 1032 -3 m 442 335 q 450 338 450 335 l 458 338 q 468 342 461 339 q 485 344 475 344 l 486 344 l 496 338 l 561 338 l 551 400 l 546 426 q 540 452 543 442 q 538 472 538 463 q 533 509 538 479 q 524 578 529 539 l 518 617 q 512 640 514 629 q 508 661 510 651 l 506 678 l 506 685 q 503 692 503 688 q 501 697 503 697 l 501 692 q 496 678 501 686 l 496 661 q 492 639 493 650 q 488 617 490 628 l 475 551 q 458 442 464 496 q 442 335 453 388 m 531 1018 l 479 1018 q 469 1022 474 1018 q 456 1039 464 1026 q 440 1063 447 1053 q 422 1091 433 1074 q 385 1142 410 1108 l 367 1175 q 358 1189 364 1181 q 346 1210 353 1197 q 317 1258 328 1240 q 304 1282 307 1276 q 295 1299 299 1292 q 290 1308 292 1306 q 286 1322 286 1317 q 294 1335 286 1331 q 332 1346 303 1340 l 339 1346 q 342 1344 339 1344 l 353 1349 l 411 1351 l 419 1353 q 425 1354 424 1353 q 429 1356 426 1356 l 443 1356 q 457 1353 451 1356 l 465 1357 l 547 1353 l 607 1343 l 618 1335 q 646 1238 632 1286 q 676 1132 660 1189 q 683 1102 678 1121 q 688 1060 688 1083 q 661 1018 688 1018 l 546 1018 l 542 1022 l 531 1018 z "},"Ả":{"ha":1085,"x_min":7,"x_max":1078,"o":"m 1032 -3 q 1015 -2 1022 -3 q 1001 0 1008 -1 l 771 0 q 767 1 769 0 q 760 3 764 1 l 718 3 l 658 4 q 651 3 653 4 q 640 0 649 0 l 636 0 l 635 1 q 629 3 629 1 q 621 4 625 4 q 614 4 617 4 q 607 45 611 15 q 588 131 603 75 l 576 169 l 499 169 q 460 171 476 169 q 425 176 443 172 q 424 164 425 171 q 421 144 422 157 q 401 54 411 93 q 385 4 392 15 q 358 4 374 4 q 322 3 343 4 q 296 0 301 3 l 283 0 q 282 3 282 0 q 278 4 281 4 q 263 3 267 4 l 263 0 l 78 0 q 65 -2 72 -1 q 46 -3 57 -3 l 32 -3 q 17 4 21 -3 q 7 35 7 18 q 8 49 7 44 q 8 62 8 56 q 10 76 8 68 q 17 99 13 92 q 21 119 21 114 q 47 237 24 136 q 110 508 69 338 q 204 904 150 679 q 208 911 204 906 q 217 919 211 917 l 222 919 l 225 917 q 235 919 232 917 q 243 924 239 922 q 260 926 254 926 q 278 926 269 926 q 297 924 288 925 q 304 924 300 924 q 311 922 308 925 q 320 920 314 921 q 332 919 326 919 q 339 923 332 922 q 349 924 346 924 q 378 926 361 925 q 422 926 394 926 l 554 926 q 567 925 554 925 q 578 925 574 925 q 589 924 583 925 l 658 924 q 665 921 661 922 q 671 919 668 919 q 685 920 678 919 q 700 922 693 921 q 715 924 707 924 q 725 924 722 924 q 753 926 740 925 q 779 926 765 926 q 796 928 788 926 q 814 924 804 929 q 834 917 825 918 q 850 917 843 917 q 856 919 856 917 l 861 919 q 869 912 865 918 q 874 904 874 906 q 906 777 888 851 q 944 618 924 703 q 985 446 964 533 q 1025 278 1006 358 q 1058 135 1044 199 q 1062 115 1061 121 q 1064 103 1063 110 q 1072 71 1065 93 q 1078 38 1078 49 q 1072 25 1078 26 q 1049 -3 1067 -3 l 1032 -3 m 442 335 q 450 338 450 335 l 458 338 q 468 342 461 339 q 485 344 475 344 l 486 344 l 496 338 l 561 338 l 551 400 l 546 426 q 540 452 543 442 q 538 472 538 463 q 533 509 538 479 q 524 578 529 539 l 518 617 q 512 640 514 629 q 508 661 510 651 l 506 678 l 506 685 q 503 692 503 688 q 501 697 503 697 l 501 692 q 496 678 501 686 l 496 661 q 492 639 493 650 q 488 617 490 628 l 475 551 q 458 442 464 496 q 442 335 453 388 m 468 1021 q 438 1038 446 1021 q 431 1085 431 1056 q 438 1153 431 1121 q 485 1217 444 1186 q 515 1225 492 1221 q 544 1233 538 1229 q 578 1256 567 1249 q 589 1274 589 1263 q 565 1294 589 1288 q 481 1301 542 1301 q 424 1299 449 1301 q 385 1294 400 1297 q 365 1291 372 1293 q 354 1289 357 1289 q 342 1306 342 1289 q 350 1419 342 1361 q 353 1430 353 1425 q 354 1440 353 1435 q 364 1463 354 1454 q 376 1467 369 1467 q 383 1468 382 1468 q 433 1474 408 1471 q 482 1478 458 1476 q 527 1480 506 1479 q 571 1481 549 1481 q 672 1467 621 1481 q 756 1442 722 1453 q 789 1419 779 1432 q 813 1385 799 1407 q 831 1360 822 1372 q 840 1331 840 1349 q 830 1260 840 1297 q 788 1192 819 1224 q 689 1138 756 1160 q 643 1115 660 1128 q 615 1093 626 1101 q 599 1083 606 1083 q 593 1085 593 1082 l 592 1042 q 578 1021 592 1021 l 568 1021 l 556 1022 l 526 1022 q 503 1021 518 1021 q 468 1021 488 1021 z "},"Ȃ":{"ha":1085,"x_min":7,"x_max":1078,"o":"m 1032 -3 q 1015 -2 1022 -3 q 1001 0 1008 -1 l 771 0 q 767 1 769 0 q 760 3 764 1 l 718 3 l 658 4 q 651 3 653 4 q 640 0 649 0 l 636 0 l 635 1 q 629 3 629 1 q 621 4 625 4 q 614 4 617 4 q 607 45 611 15 q 588 131 603 75 l 576 169 l 499 169 q 460 171 476 169 q 425 176 443 172 q 424 164 425 171 q 421 144 422 157 q 401 54 411 93 q 385 4 392 15 q 358 4 374 4 q 322 3 343 4 q 296 0 301 3 l 283 0 q 282 3 282 0 q 278 4 281 4 q 263 3 267 4 l 263 0 l 78 0 q 65 -2 72 -1 q 46 -3 57 -3 l 32 -3 q 17 4 21 -3 q 7 35 7 18 q 8 49 7 44 q 8 62 8 56 q 10 76 8 68 q 17 99 13 92 q 21 119 21 114 q 47 237 24 136 q 110 508 69 338 q 204 904 150 679 q 208 911 204 906 q 217 919 211 917 l 222 919 l 225 917 q 235 919 232 917 q 243 924 239 922 q 260 926 254 926 q 278 926 269 926 q 297 924 288 925 q 304 924 300 924 q 311 922 308 925 q 320 920 314 921 q 332 919 326 919 q 339 923 332 922 q 349 924 346 924 q 378 926 361 925 q 422 926 394 926 l 554 926 q 567 925 554 925 q 578 925 574 925 q 589 924 583 925 l 658 924 q 665 921 661 922 q 671 919 668 919 q 685 920 678 919 q 700 922 693 921 q 715 924 707 924 q 725 924 722 924 q 753 926 740 925 q 779 926 765 926 q 796 928 788 926 q 814 924 804 929 q 834 917 825 918 q 850 917 843 917 q 856 919 856 917 l 861 919 q 869 912 865 918 q 874 904 874 906 q 906 777 888 851 q 944 618 924 703 q 985 446 964 533 q 1025 278 1006 358 q 1058 135 1044 199 q 1062 115 1061 121 q 1064 103 1063 110 q 1072 71 1065 93 q 1078 38 1078 49 q 1072 25 1078 26 q 1049 -3 1067 -3 l 1032 -3 m 442 335 q 450 338 450 335 l 458 338 q 468 342 461 339 q 485 344 475 344 l 486 344 l 496 338 l 561 338 l 551 400 l 546 426 q 540 452 543 442 q 538 472 538 463 q 533 509 538 479 q 524 578 529 539 l 518 617 q 512 640 514 629 q 508 661 510 651 l 506 678 l 506 685 q 503 692 503 688 q 501 697 503 697 l 501 692 q 496 678 501 686 l 496 661 q 492 639 493 650 q 488 617 490 628 l 475 551 q 458 442 464 496 q 442 335 453 388 m 561 1375 q 769 1306 676 1375 q 863 1132 863 1236 q 860 1081 863 1106 q 851 1033 857 1057 q 839 1024 849 1024 l 656 1025 q 647 1029 650 1025 q 644 1038 643 1033 q 649 1114 649 1083 l 647 1140 l 646 1142 q 644 1144 644 1143 q 643 1147 644 1146 q 604 1178 636 1165 q 533 1190 572 1190 q 466 1160 494 1190 q 438 1089 438 1131 q 437 1054 438 1071 q 438 1021 436 1038 q 429 1013 438 1013 l 235 1019 q 229 1024 232 1019 q 224 1063 221 1040 q 228 1111 228 1085 q 248 1197 228 1154 q 311 1289 268 1239 q 561 1375 385 1375 z "},"Ā":{"ha":1085,"x_min":7,"x_max":1078,"o":"m 1032 -3 q 1015 -2 1022 -3 q 1001 0 1008 -1 l 771 0 q 767 1 769 0 q 760 3 764 1 l 718 3 l 658 4 q 651 3 653 4 q 640 0 649 0 l 636 0 l 635 1 q 629 3 629 1 q 621 4 625 4 q 614 4 617 4 q 607 45 611 15 q 588 131 603 75 l 576 169 l 499 169 q 460 171 476 169 q 425 176 443 172 q 424 164 425 171 q 421 144 422 157 q 401 54 411 93 q 385 4 392 15 q 358 4 374 4 q 322 3 343 4 q 296 0 301 3 l 283 0 q 282 3 282 0 q 278 4 281 4 q 263 3 267 4 l 263 0 l 78 0 q 65 -2 72 -1 q 46 -3 57 -3 l 32 -3 q 17 4 21 -3 q 7 35 7 18 q 8 49 7 44 q 8 62 8 56 q 10 76 8 68 q 17 99 13 92 q 21 119 21 114 q 47 237 24 136 q 110 508 69 338 q 204 904 150 679 q 208 911 204 906 q 217 919 211 917 l 222 919 l 225 917 q 235 919 232 917 q 243 924 239 922 q 260 926 254 926 q 278 926 269 926 q 297 924 288 925 q 304 924 300 924 q 311 922 308 925 q 320 920 314 921 q 332 919 326 919 q 339 923 332 922 q 349 924 346 924 q 378 926 361 925 q 422 926 394 926 l 554 926 q 567 925 554 925 q 578 925 574 925 q 589 924 583 925 l 658 924 q 665 921 661 922 q 671 919 668 919 q 685 920 678 919 q 700 922 693 921 q 715 924 707 924 q 725 924 722 924 q 753 926 740 925 q 779 926 765 926 q 796 928 788 926 q 814 924 804 929 q 834 917 825 918 q 850 917 843 917 q 856 919 856 917 l 861 919 q 869 912 865 918 q 874 904 874 906 q 906 777 888 851 q 944 618 924 703 q 985 446 964 533 q 1025 278 1006 358 q 1058 135 1044 199 q 1062 115 1061 121 q 1064 103 1063 110 q 1072 71 1065 93 q 1078 38 1078 49 q 1072 25 1078 26 q 1049 -3 1067 -3 l 1032 -3 m 442 335 q 450 338 450 335 l 458 338 q 468 342 461 339 q 485 344 475 344 l 486 344 l 496 338 l 561 338 l 551 400 l 546 426 q 540 452 543 442 q 538 472 538 463 q 533 509 538 479 q 524 578 529 539 l 518 617 q 512 640 514 629 q 508 661 510 651 l 506 678 l 506 685 q 503 692 503 688 q 501 697 503 697 l 501 692 q 496 678 501 686 l 496 661 q 492 639 493 650 q 488 617 490 628 l 475 551 q 458 442 464 496 q 442 335 453 388 m 801 1035 l 754 1035 q 738 1036 747 1036 q 718 1036 729 1036 l 688 1038 l 653 1038 l 639 1039 l 594 1039 q 576 1039 583 1036 q 561 1041 569 1040 q 542 1042 553 1042 l 319 1042 q 261 1056 275 1042 q 251 1076 251 1061 l 251 1208 q 250 1227 250 1215 q 250 1257 250 1239 q 261 1279 250 1271 q 269 1286 263 1281 q 285 1292 276 1292 l 468 1292 q 496 1291 478 1292 q 542 1289 514 1290 l 597 1288 q 677 1285 646 1286 q 722 1285 708 1285 l 754 1285 q 806 1278 782 1285 q 831 1250 831 1271 q 831 1232 831 1240 q 832 1217 831 1224 q 833 1204 833 1210 q 833 1194 833 1199 l 833 1181 q 833 1161 833 1171 q 835 1143 833 1151 l 835 1111 q 829 1063 835 1079 q 801 1035 825 1035 z "},"Ą":{"ha":1085,"x_min":7,"x_max":1078,"o":"m 1032 -3 q 1015 -2 1022 -3 q 1001 0 1008 -1 l 771 0 q 767 1 769 0 q 760 3 764 1 l 718 3 l 658 4 q 651 3 653 4 q 640 0 649 0 l 636 0 l 635 1 q 629 3 629 1 q 621 4 625 4 q 614 4 617 4 q 607 45 611 15 q 588 131 603 75 l 576 169 l 499 169 q 460 171 476 169 q 425 176 443 172 q 424 164 425 171 q 421 144 422 157 q 401 54 411 93 q 385 4 392 15 q 358 4 374 4 q 322 3 343 4 q 296 0 301 3 l 283 0 q 282 3 282 0 q 278 4 281 4 q 263 3 267 4 l 263 0 l 78 0 q 65 -2 72 -1 q 46 -3 57 -3 l 32 -3 q 17 4 21 -3 q 7 35 7 18 q 8 49 7 44 q 8 62 8 56 q 10 76 8 68 q 17 99 13 92 q 21 119 21 114 q 47 237 24 136 q 110 508 69 338 q 204 904 150 679 q 208 911 204 906 q 217 919 211 917 l 222 919 l 225 917 q 235 919 232 917 q 243 924 239 922 q 260 926 254 926 q 278 926 269 926 q 297 924 288 925 q 304 924 300 924 q 311 922 308 925 q 320 920 314 921 q 332 919 326 919 q 339 923 332 922 q 349 924 346 924 q 378 926 361 925 q 422 926 394 926 l 554 926 q 567 925 554 925 q 578 925 574 925 q 589 924 583 925 l 658 924 q 665 921 661 922 q 671 919 668 919 q 685 920 678 919 q 700 922 693 921 q 715 924 707 924 q 725 924 722 924 q 753 926 740 925 q 779 926 765 926 q 796 928 788 926 q 814 924 804 929 q 834 917 825 918 q 850 917 843 917 q 856 919 856 917 l 861 919 q 869 912 865 918 q 874 904 874 906 q 906 777 888 851 q 944 618 924 703 q 985 446 964 533 q 1025 278 1006 358 q 1058 135 1044 199 q 1062 115 1061 121 q 1064 103 1063 110 q 1072 71 1065 93 q 1078 38 1078 49 q 1072 25 1078 26 q 1049 -3 1067 -3 l 1032 -3 m 442 335 q 450 338 450 335 l 458 338 q 468 342 461 339 q 485 344 475 344 l 486 344 l 496 338 l 561 338 l 551 400 l 546 426 q 540 452 543 442 q 538 472 538 463 q 533 509 538 479 q 524 578 529 539 l 518 617 q 512 640 514 629 q 508 661 510 651 l 506 678 l 506 685 q 503 692 503 688 q 501 697 503 697 l 501 692 q 496 678 501 686 l 496 661 q 492 639 493 650 q 488 617 490 628 l 475 551 q 458 442 464 496 q 442 335 453 388 m 922 -394 l 908 -397 q 676 -365 760 -397 q 578 -285 601 -339 q 571 -240 571 -264 q 590 -142 571 -178 q 668 -68 610 -107 q 680 -58 674 -62 q 694 -49 686 -54 q 708 -41 701 -44 q 717 -36 714 -37 l 828 0 q 832 1 831 0 q 834 3 833 1 q 836 6 835 6 l 863 6 l 894 4 q 996 0 958 4 l 938 -60 q 874 -139 901 -90 q 856 -189 856 -171 q 864 -219 856 -210 q 888 -233 872 -229 q 899 -237 890 -235 q 917 -237 908 -240 q 928 -236 922 -236 q 944 -236 935 -236 q 1065 -212 999 -236 q 1075 -226 1075 -217 l 1075 -233 l 1051 -347 q 1040 -359 1050 -353 q 1015 -372 1029 -365 q 978 -384 994 -379 q 950 -390 961 -389 q 940 -392 944 -392 q 933 -393 936 -393 q 922 -394 925 -393 z "},"Å":{"ha":1085,"x_min":7,"x_max":1078,"o":"m 1032 -3 q 1015 -2 1022 -3 q 1001 0 1008 -1 l 771 0 q 767 1 769 0 q 760 3 764 1 l 718 3 l 658 4 q 651 3 653 4 q 640 0 649 0 l 636 0 l 635 1 q 629 3 629 1 q 621 4 625 4 q 614 4 617 4 q 607 45 611 15 q 588 131 603 75 l 576 169 l 499 169 q 460 171 476 169 q 425 176 443 172 q 424 164 425 171 q 421 144 422 157 q 401 54 411 93 q 385 4 392 15 q 358 4 374 4 q 322 3 343 4 q 296 0 301 3 l 283 0 q 282 3 282 0 q 278 4 281 4 q 263 3 267 4 l 263 0 l 78 0 q 65 -2 72 -1 q 46 -3 57 -3 l 32 -3 q 17 4 21 -3 q 7 35 7 18 q 8 49 7 44 q 8 62 8 56 q 10 76 8 68 q 17 99 13 92 q 21 119 21 114 q 47 237 24 136 q 110 508 69 338 q 204 904 150 679 q 208 911 204 906 q 217 919 211 917 l 222 919 l 225 917 q 235 919 232 917 q 243 924 239 922 q 260 926 254 926 q 278 926 269 926 q 297 924 288 925 q 304 924 300 924 q 311 922 308 925 q 320 920 314 921 q 332 919 326 919 q 339 923 332 922 q 349 924 346 924 q 378 926 361 925 q 422 926 394 926 l 554 926 q 567 925 554 925 q 578 925 574 925 q 589 924 583 925 l 658 924 q 665 921 661 922 q 671 919 668 919 q 685 920 678 919 q 700 922 693 921 q 715 924 707 924 q 725 924 722 924 q 753 926 740 925 q 779 926 765 926 q 796 928 788 926 q 814 924 804 929 q 834 917 825 918 q 850 917 843 917 q 856 919 856 917 l 861 919 q 869 912 865 918 q 874 904 874 906 q 906 777 888 851 q 944 618 924 703 q 985 446 964 533 q 1025 278 1006 358 q 1058 135 1044 199 q 1062 115 1061 121 q 1064 103 1063 110 q 1072 71 1065 93 q 1078 38 1078 49 q 1072 25 1078 26 q 1049 -3 1067 -3 l 1032 -3 m 442 335 q 450 338 450 335 l 458 338 q 468 342 461 339 q 485 344 475 344 l 486 344 l 496 338 l 561 338 l 551 400 l 546 426 q 540 452 543 442 q 538 472 538 463 q 533 509 538 479 q 524 578 529 539 l 518 617 q 512 640 514 629 q 508 661 510 651 l 506 678 l 506 685 q 503 692 503 688 q 501 697 503 697 l 501 692 q 496 678 501 686 l 496 661 q 492 639 493 650 q 488 617 490 628 l 475 551 q 458 442 464 496 q 442 335 453 388 m 522 1011 q 360 1049 433 1010 q 316 1088 333 1064 q 283 1144 299 1111 q 267 1201 274 1172 q 261 1261 261 1231 q 321 1444 261 1363 q 392 1509 351 1486 q 482 1532 433 1532 q 500 1532 493 1532 q 511 1531 507 1532 q 515 1532 511 1532 l 518 1532 q 583 1531 557 1532 q 622 1529 608 1531 q 696 1504 661 1521 q 795 1401 767 1457 q 824 1268 824 1346 q 810 1178 824 1224 q 771 1097 797 1133 l 764 1094 q 654 1022 729 1040 q 594 1013 625 1014 q 557 1011 564 1011 l 522 1011 m 531 1178 q 608 1207 579 1178 q 642 1253 636 1231 q 649 1296 649 1275 l 649 1301 q 636 1338 649 1317 q 586 1372 615 1365 q 531 1379 557 1379 q 479 1356 500 1379 q 449 1257 449 1325 l 449 1242 q 453 1233 453 1242 q 488 1189 457 1210 q 531 1178 513 1178 z "},"Ǻ":{"ha":1085,"x_min":7,"x_max":1078,"o":"m 1032 -3 q 1015 -2 1022 -3 q 1001 0 1008 -1 l 771 0 q 767 1 769 0 q 760 3 764 1 l 718 3 l 658 4 q 651 3 653 4 q 640 0 649 0 l 636 0 l 635 1 q 629 3 629 1 q 621 4 625 4 q 614 4 617 4 q 607 45 611 15 q 588 131 603 75 l 576 169 l 499 169 q 460 171 476 169 q 425 176 443 172 q 424 164 425 171 q 421 144 422 157 q 401 54 411 93 q 385 4 392 15 q 358 4 374 4 q 322 3 343 4 q 296 0 301 3 l 283 0 q 282 3 282 0 q 278 4 281 4 q 263 3 267 4 l 263 0 l 78 0 q 65 -2 72 -1 q 46 -3 57 -3 l 32 -3 q 17 4 21 -3 q 7 35 7 18 q 8 49 7 44 q 8 62 8 56 q 10 76 8 68 q 17 99 13 92 q 21 119 21 114 q 47 237 24 136 q 110 508 69 338 q 204 904 150 679 q 208 911 204 906 q 217 919 211 917 l 222 919 l 225 917 q 235 919 232 917 q 243 924 239 922 q 260 926 254 926 q 278 926 269 926 q 297 924 288 925 q 304 924 300 924 q 311 922 308 925 q 320 920 314 921 q 332 919 326 919 q 339 923 332 922 q 349 924 346 924 q 378 926 361 925 q 422 926 394 926 l 554 926 q 567 925 554 925 q 578 925 574 925 q 589 924 583 925 l 658 924 q 665 921 661 922 q 671 919 668 919 q 685 920 678 919 q 700 922 693 921 q 715 924 707 924 q 725 924 722 924 q 753 926 740 925 q 779 926 765 926 q 796 928 788 926 q 814 924 804 929 q 834 917 825 918 q 850 917 843 917 q 856 919 856 917 l 861 919 q 869 912 865 918 q 874 904 874 906 q 906 777 888 851 q 944 618 924 703 q 985 446 964 533 q 1025 278 1006 358 q 1058 135 1044 199 q 1062 115 1061 121 q 1064 103 1063 110 q 1072 71 1065 93 q 1078 38 1078 49 q 1072 25 1078 26 q 1049 -3 1067 -3 l 1032 -3 m 442 335 q 450 338 450 335 l 458 338 q 468 342 461 339 q 485 344 475 344 l 486 344 l 496 338 l 561 338 l 551 400 l 546 426 q 540 452 543 442 q 538 472 538 463 q 533 509 538 479 q 524 578 529 539 l 518 617 q 512 640 514 629 q 508 661 510 651 l 506 678 l 506 685 q 503 692 503 688 q 501 697 503 697 l 501 692 q 496 678 501 686 l 496 661 q 492 639 493 650 q 488 617 490 628 l 475 551 q 458 442 464 496 q 442 335 453 388 m 522 1011 q 360 1049 433 1010 q 316 1088 333 1064 q 283 1144 299 1111 q 267 1201 274 1172 q 261 1261 261 1231 q 321 1444 261 1363 q 392 1509 351 1486 q 482 1532 433 1532 q 500 1532 493 1532 q 511 1531 507 1532 q 515 1532 511 1532 l 518 1532 q 583 1531 557 1532 q 622 1529 608 1531 q 696 1504 661 1521 q 795 1401 767 1457 q 824 1268 824 1346 q 810 1178 824 1224 q 771 1097 797 1133 l 764 1094 q 654 1022 729 1040 q 594 1013 625 1014 q 557 1011 564 1011 l 522 1011 m 531 1178 q 608 1207 579 1178 q 642 1253 636 1231 q 649 1296 649 1275 l 649 1301 q 636 1338 649 1317 q 586 1372 615 1365 q 531 1379 557 1379 q 479 1356 500 1379 q 449 1257 449 1325 l 449 1242 q 453 1233 453 1242 q 488 1189 457 1210 q 531 1178 513 1178 m 624 1432 l 613 1436 l 608 1432 l 493 1432 q 472 1443 476 1432 q 467 1474 467 1454 q 472 1516 467 1497 q 478 1546 476 1535 q 507 1644 493 1596 q 536 1749 521 1693 l 547 1757 l 607 1767 l 689 1771 l 697 1767 q 711 1769 703 1769 l 725 1769 q 729 1768 728 1769 q 735 1767 731 1767 l 743 1765 l 801 1763 l 813 1758 q 815 1760 815 1758 l 822 1760 q 860 1749 851 1754 q 868 1736 868 1744 q 864 1722 868 1731 q 850 1696 861 1715 q 837 1672 847 1690 q 808 1624 826 1654 q 796 1603 801 1611 q 788 1589 790 1594 l 769 1556 q 733 1505 746 1522 q 715 1477 721 1488 q 699 1453 708 1467 q 675 1432 685 1432 l 624 1432 z "},"Ã":{"ha":1085,"x_min":7,"x_max":1078,"o":"m 1032 -3 q 1015 -2 1022 -3 q 1001 0 1008 -1 l 771 0 q 767 1 769 0 q 760 3 764 1 l 718 3 l 658 4 q 651 3 653 4 q 640 0 649 0 l 636 0 l 635 1 q 629 3 629 1 q 621 4 625 4 q 614 4 617 4 q 607 45 611 15 q 588 131 603 75 l 576 169 l 499 169 q 460 171 476 169 q 425 176 443 172 q 424 164 425 171 q 421 144 422 157 q 401 54 411 93 q 385 4 392 15 q 358 4 374 4 q 322 3 343 4 q 296 0 301 3 l 283 0 q 282 3 282 0 q 278 4 281 4 q 263 3 267 4 l 263 0 l 78 0 q 65 -2 72 -1 q 46 -3 57 -3 l 32 -3 q 17 4 21 -3 q 7 35 7 18 q 8 49 7 44 q 8 62 8 56 q 10 76 8 68 q 17 99 13 92 q 21 119 21 114 q 47 237 24 136 q 110 508 69 338 q 204 904 150 679 q 208 911 204 906 q 217 919 211 917 l 222 919 l 225 917 q 235 919 232 917 q 243 924 239 922 q 260 926 254 926 q 278 926 269 926 q 297 924 288 925 q 304 924 300 924 q 311 922 308 925 q 320 920 314 921 q 332 919 326 919 q 339 923 332 922 q 349 924 346 924 q 378 926 361 925 q 422 926 394 926 l 554 926 q 567 925 554 925 q 578 925 574 925 q 589 924 583 925 l 658 924 q 665 921 661 922 q 671 919 668 919 q 685 920 678 919 q 700 922 693 921 q 715 924 707 924 q 725 924 722 924 q 753 926 740 925 q 779 926 765 926 q 796 928 788 926 q 814 924 804 929 q 834 917 825 918 q 850 917 843 917 q 856 919 856 917 l 861 919 q 869 912 865 918 q 874 904 874 906 q 906 777 888 851 q 944 618 924 703 q 985 446 964 533 q 1025 278 1006 358 q 1058 135 1044 199 q 1062 115 1061 121 q 1064 103 1063 110 q 1072 71 1065 93 q 1078 38 1078 49 q 1072 25 1078 26 q 1049 -3 1067 -3 l 1032 -3 m 442 335 q 450 338 450 335 l 458 338 q 468 342 461 339 q 485 344 475 344 l 486 344 l 496 338 l 561 338 l 551 400 l 546 426 q 540 452 543 442 q 538 472 538 463 q 533 509 538 479 q 524 578 529 539 l 518 617 q 512 640 514 629 q 508 661 510 651 l 506 678 l 506 685 q 503 692 503 688 q 501 697 503 697 l 501 692 q 496 678 501 686 l 496 661 q 492 639 493 650 q 488 617 490 628 l 475 551 q 458 442 464 496 q 442 335 453 388 m 647 976 q 550 1004 585 976 q 520 1028 529 1019 q 494 1054 511 1036 q 428 1090 458 1090 q 410 1076 418 1090 q 403 1043 403 1063 q 399 1017 400 1026 q 397 1007 397 1008 q 390 1004 394 1001 q 378 1006 385 1006 q 354 1006 372 1006 q 322 1008 338 1007 q 297 1010 307 1008 q 275 1015 283 1013 q 267 1025 267 1018 q 265 1032 267 1031 q 264 1036 264 1035 q 263 1040 264 1038 q 260 1048 263 1039 q 257 1063 258 1057 q 267 1150 257 1108 q 446 1274 290 1274 q 474 1268 457 1274 q 504 1254 490 1263 q 561 1214 544 1238 q 571 1200 569 1207 q 600 1167 589 1176 q 618 1160 611 1160 q 647 1186 647 1160 q 642 1211 647 1199 q 621 1250 636 1224 q 636 1258 621 1258 l 640 1258 l 796 1260 q 808 1244 804 1253 q 825 1168 822 1217 q 827 1149 826 1157 q 828 1136 828 1142 q 817 1081 828 1106 q 767 1020 800 1046 q 693 983 733 994 q 647 976 674 976 z "},"Æ":{"ha":1454,"x_min":4,"x_max":1447,"o":"m 1444 63 q 1447 42 1447 56 q 1421 13 1447 13 q 1322 8 1376 13 q 1314 8 1318 8 q 1304 7 1310 7 l 1297 7 q 1260 6 1282 7 q 1213 4 1239 6 q 1168 2 1189 3 q 1128 1 1147 1 l 1038 1 q 997 1 1019 1 q 969 0 975 1 l 961 -1 l 940 -1 q 910 0 914 -1 l 813 0 q 794 1 799 0 l 783 1 l 783 4 l 768 4 q 767 3 767 4 q 764 1 765 1 l 749 1 q 735 3 743 3 q 721 4 728 4 q 683 6 700 6 q 656 7 667 7 q 650 67 650 18 q 650 139 650 121 q 651 171 650 157 q 581 165 625 165 l 504 165 q 476 101 488 128 q 457 58 465 75 q 440 27 447 40 q 428 7 433 14 l 415 4 q 406 1 407 1 l 401 1 q 392 4 394 1 l 385 7 l 322 4 l 278 4 q 269 2 272 3 q 263 1 265 1 l 172 1 q 156 0 167 0 q 110 0 146 0 l 74 0 q 61 -1 68 -1 q 44 -1 54 -1 l 24 -1 q 7 26 4 -1 q 24 82 8 36 l 33 108 q 42 126 40 117 q 117 292 78 207 q 200 471 156 378 l 410 910 q 417 919 410 914 q 428 925 424 925 l 433 925 q 440 924 433 924 q 476 928 456 924 q 517 932 496 932 q 572 928 546 932 l 679 931 q 686 932 686 931 l 751 932 q 753 933 753 932 q 756 933 754 933 q 788 935 769 935 q 824 936 807 936 q 909 937 869 936 q 975 940 949 938 q 1032 942 1010 942 q 1076 942 1054 942 q 1125 943 1097 943 l 1186 943 q 1288 940 1244 943 q 1361 935 1331 938 q 1393 883 1382 935 q 1397 867 1396 878 q 1403 832 1399 856 q 1408 785 1406 801 q 1414 753 1411 768 q 1415 738 1415 750 q 1414 726 1414 736 q 1399 714 1413 714 q 1383 715 1396 715 q 1317 712 1353 715 q 1238 706 1282 708 l 1165 700 q 1125 697 1143 699 q 1093 693 1107 694 q 1082 678 1089 693 q 1074 665 1078 668 q 1068 649 1069 661 l 1065 601 q 1069 578 1064 583 q 1090 572 1075 572 l 1214 572 q 1338 564 1267 572 l 1351 564 q 1383 533 1378 564 l 1386 396 l 1386 392 q 1339 364 1386 367 q 1309 360 1326 361 q 1265 357 1292 358 q 1220 353 1246 354 q 1160 351 1194 351 q 1104 351 1126 351 q 1069 353 1082 351 q 1063 335 1063 349 q 1061 279 1063 322 q 1059 265 1060 274 q 1058 225 1058 256 q 1189 226 1142 225 q 1263 229 1236 228 q 1335 231 1303 231 q 1394 232 1368 232 q 1406 222 1399 232 q 1421 172 1411 213 q 1444 63 1431 132 m 693 710 q 692 703 692 708 l 685 689 q 683 683 685 686 l 679 671 q 675 656 676 661 q 671 647 674 651 l 663 624 q 647 581 653 597 q 639 560 642 565 q 628 527 635 546 q 611 483 621 508 l 599 449 q 586 408 592 432 q 577 383 585 403 q 561 344 569 364 l 618 344 q 674 339 661 344 l 683 481 q 685 513 685 494 q 686 556 685 532 l 688 583 q 690 607 689 597 q 690 622 690 617 l 692 671 l 693 689 l 693 710 z "},"Ǽ":{"ha":1454,"x_min":4,"x_max":1447,"o":"m 1444 63 q 1447 42 1447 56 q 1421 13 1447 13 q 1322 8 1376 13 q 1314 8 1318 8 q 1304 7 1310 7 l 1297 7 q 1260 6 1282 7 q 1213 4 1239 6 q 1168 2 1189 3 q 1128 1 1147 1 l 1038 1 q 997 1 1019 1 q 969 0 975 1 l 961 -1 l 940 -1 q 910 0 914 -1 l 813 0 q 794 1 799 0 l 783 1 l 783 4 l 768 4 q 767 3 767 4 q 764 1 765 1 l 749 1 q 735 3 743 3 q 721 4 728 4 q 683 6 700 6 q 656 7 667 7 q 650 67 650 18 q 650 139 650 121 q 651 171 650 157 q 581 165 625 165 l 504 165 q 476 101 488 128 q 457 58 465 75 q 440 27 447 40 q 428 7 433 14 l 415 4 q 406 1 407 1 l 401 1 q 392 4 394 1 l 385 7 l 322 4 l 278 4 q 269 2 272 3 q 263 1 265 1 l 172 1 q 156 0 167 0 q 110 0 146 0 l 74 0 q 61 -1 68 -1 q 44 -1 54 -1 l 24 -1 q 7 26 4 -1 q 24 82 8 36 l 33 108 q 42 126 40 117 q 117 292 78 207 q 200 471 156 378 l 410 910 q 417 919 410 914 q 428 925 424 925 l 433 925 q 440 924 433 924 q 476 928 456 924 q 517 932 496 932 q 572 928 546 932 l 679 931 q 686 932 686 931 l 751 932 q 753 933 753 932 q 756 933 754 933 q 788 935 769 935 q 824 936 807 936 q 909 937 869 936 q 975 940 949 938 q 1032 942 1010 942 q 1076 942 1054 942 q 1125 943 1097 943 l 1186 943 q 1288 940 1244 943 q 1361 935 1331 938 q 1393 883 1382 935 q 1397 867 1396 878 q 1403 832 1399 856 q 1408 785 1406 801 q 1414 753 1411 768 q 1415 738 1415 750 q 1414 726 1414 736 q 1399 714 1413 714 q 1383 715 1396 715 q 1317 712 1353 715 q 1238 706 1282 708 l 1165 700 q 1125 697 1143 699 q 1093 693 1107 694 q 1082 678 1089 693 q 1074 665 1078 668 q 1068 649 1069 661 l 1065 601 q 1069 578 1064 583 q 1090 572 1075 572 l 1214 572 q 1338 564 1267 572 l 1351 564 q 1383 533 1378 564 l 1386 396 l 1386 392 q 1339 364 1386 367 q 1309 360 1326 361 q 1265 357 1292 358 q 1220 353 1246 354 q 1160 351 1194 351 q 1104 351 1126 351 q 1069 353 1082 351 q 1063 335 1063 349 q 1061 279 1063 322 q 1059 265 1060 274 q 1058 225 1058 256 q 1189 226 1142 225 q 1263 229 1236 228 q 1335 231 1303 231 q 1394 232 1368 232 q 1406 222 1399 232 q 1421 172 1411 213 q 1444 63 1431 132 m 693 710 q 692 703 692 708 l 685 689 q 683 683 685 686 l 679 671 q 675 656 676 661 q 671 647 674 651 l 663 624 q 647 581 653 597 q 639 560 642 565 q 628 527 635 546 q 611 483 621 508 l 599 449 q 586 408 592 432 q 577 383 585 403 q 561 344 569 364 l 618 344 q 674 339 661 344 l 683 481 q 685 513 685 494 q 686 556 685 532 l 688 583 q 690 607 689 597 q 690 622 690 617 l 692 671 l 693 689 l 693 710 m 893 1018 l 882 1022 l 878 1018 l 763 1018 q 741 1029 746 1018 q 736 1060 736 1040 q 741 1102 736 1083 q 747 1132 746 1121 q 776 1231 763 1182 q 806 1335 790 1279 l 817 1343 l 876 1353 l 958 1357 l 967 1353 q 981 1356 972 1356 l 994 1356 q 999 1354 997 1356 q 1004 1353 1000 1353 l 1013 1351 l 1071 1349 l 1082 1344 q 1085 1346 1085 1344 l 1092 1346 q 1129 1335 1121 1340 q 1138 1322 1138 1331 q 1133 1308 1138 1317 q 1119 1282 1131 1301 q 1106 1258 1117 1276 q 1078 1210 1096 1240 q 1065 1189 1071 1197 q 1057 1175 1060 1181 l 1039 1142 q 1003 1091 1015 1108 q 984 1063 990 1074 q 968 1039 978 1053 q 944 1018 954 1018 l 893 1018 z "},"B":{"ha":1107,"x_min":42,"x_max":1100,"o":"m 342 -18 q 204 -13 253 -18 q 118 4 156 -8 q 65 46 82 19 q 49 117 49 72 l 49 151 q 51 178 50 165 q 51 219 51 192 q 53 228 53 224 q 53 249 53 232 q 52 315 53 275 q 50 407 51 354 l 49 490 q 44 625 46 568 q 42 729 42 682 l 42 792 q 46 863 42 840 q 50 883 50 874 q 71 921 53 908 q 101 925 82 925 q 115 925 108 925 q 129 926 122 925 q 138 928 133 928 q 160 928 142 928 q 188 928 171 928 q 229 931 206 929 q 262 933 239 932 q 306 936 285 935 q 333 938 328 938 q 457 935 390 938 q 600 931 524 932 q 755 917 675 931 q 902 883 835 904 q 1004 838 969 863 q 1057 775 1042 806 q 1072 703 1072 744 q 976 526 1072 592 l 964 521 q 958 518 961 519 q 953 515 956 517 q 932 508 943 513 q 910 497 921 504 q 896 483 903 494 l 897 483 l 897 481 l 900 478 q 985 435 946 460 q 1056 382 1025 411 q 1100 278 1100 331 q 1075 190 1100 235 q 1007 111 1050 144 q 895 53 961 75 q 756 20 829 32 q 616 1 683 8 q 500 -11 549 -6 q 415 -16 453 -14 q 342 -18 378 -18 m 519 554 q 535 558 525 554 q 567 572 550 565 q 599 586 585 578 q 636 607 618 593 q 650 617 644 613 q 658 624 656 622 l 672 631 l 682 636 q 688 644 688 636 q 658 697 688 681 q 564 713 629 713 q 508 606 508 713 l 508 560 q 519 554 508 554 m 538 213 l 542 213 q 672 325 672 213 q 669 344 674 339 q 651 350 665 349 q 624 351 631 350 q 596 353 617 351 q 549 355 565 354 q 514 356 533 356 q 503 338 504 356 q 498 306 501 326 q 494 265 494 286 q 503 228 493 243 q 538 213 513 213 z "},"C":{"ha":982,"x_min":28,"x_max":961,"o":"m 908 318 q 926 294 926 313 l 926 290 q 961 75 961 194 q 815 -10 906 17 q 578 -36 724 -36 q 188 90 339 -36 q 28 461 28 224 q 66 685 28 594 q 188 840 104 776 q 308 906 236 878 q 464 949 379 933 q 635 964 549 964 q 672 962 657 964 q 709 957 688 960 q 771 949 731 954 q 788 947 779 949 q 806 943 796 944 l 851 936 q 878 931 863 935 q 903 926 893 926 q 906 926 904 926 q 910 924 907 925 q 913 919 911 922 q 915 915 914 917 q 926 910 925 910 l 931 910 l 933 882 q 935 860 935 871 q 936 838 935 849 q 938 800 938 824 q 939 749 939 776 q 933 692 939 711 q 911 663 926 674 l 794 679 l 775 679 q 758 680 761 679 q 750 681 754 681 q 729 681 746 682 l 728 679 q 560 619 622 679 q 499 458 499 560 q 558 307 499 361 q 710 264 617 253 l 769 271 q 826 281 796 274 q 908 318 856 288 z "},"Ć":{"ha":982,"x_min":28,"x_max":961,"o":"m 908 318 q 926 294 926 313 l 926 290 q 961 75 961 194 q 815 -10 906 17 q 578 -36 724 -36 q 188 90 339 -36 q 28 461 28 224 q 66 685 28 594 q 188 840 104 776 q 308 906 236 878 q 464 949 379 933 q 635 964 549 964 q 672 962 657 964 q 709 957 688 960 q 771 949 731 954 q 788 947 779 949 q 806 943 796 944 l 851 936 q 878 931 863 935 q 903 926 893 926 q 906 926 904 926 q 910 924 907 925 q 913 919 911 922 q 915 915 914 917 q 926 910 925 910 l 931 910 l 933 882 q 935 860 935 871 q 936 838 935 849 q 938 800 938 824 q 939 749 939 776 q 933 692 939 711 q 911 663 926 674 l 794 679 l 775 679 q 758 680 761 679 q 750 681 754 681 q 729 681 746 682 l 728 679 q 560 619 622 679 q 499 458 499 560 q 558 307 499 361 q 710 264 617 253 l 769 271 q 826 281 796 274 q 908 318 856 288 m 600 1018 l 589 1022 l 585 1018 l 469 1018 q 448 1029 453 1018 q 443 1060 443 1040 q 448 1102 443 1083 q 454 1132 453 1121 q 483 1231 469 1182 q 513 1335 497 1279 l 524 1343 l 583 1353 l 665 1357 l 674 1353 q 688 1356 679 1356 l 701 1356 q 706 1354 704 1356 q 711 1353 707 1353 l 719 1351 l 778 1349 l 789 1344 q 792 1346 792 1344 l 799 1346 q 836 1335 828 1340 q 844 1322 844 1331 q 840 1308 844 1317 q 826 1282 838 1301 q 813 1258 824 1276 q 785 1210 803 1240 q 772 1189 778 1197 q 764 1175 767 1181 l 746 1142 q 710 1091 722 1108 q 691 1063 697 1074 q 675 1039 685 1053 q 651 1018 661 1018 l 600 1018 z "},"Č":{"ha":982,"x_min":28,"x_max":961,"o":"m 908 318 q 926 294 926 313 l 926 290 q 961 75 961 194 q 815 -10 906 17 q 578 -36 724 -36 q 188 90 339 -36 q 28 461 28 224 q 66 685 28 594 q 188 840 104 776 q 308 906 236 878 q 464 949 379 933 q 635 964 549 964 q 672 962 657 964 q 709 957 688 960 q 771 949 731 954 q 788 947 779 949 q 806 943 796 944 l 851 936 q 878 931 863 935 q 903 926 893 926 q 906 926 904 926 q 910 924 907 925 q 913 919 911 922 q 915 915 914 917 q 926 910 925 910 l 931 910 l 933 882 q 935 860 935 871 q 936 838 935 849 q 938 800 938 824 q 939 749 939 776 q 933 692 939 711 q 911 663 926 674 l 794 679 l 775 679 q 758 680 761 679 q 750 681 754 681 q 729 681 746 682 l 728 679 q 560 619 622 679 q 499 458 499 560 q 558 307 499 361 q 710 264 617 253 l 769 271 q 826 281 796 274 q 908 318 856 288 m 336 1335 q 346 1333 340 1333 q 353 1332 351 1332 q 363 1335 357 1335 l 397 1335 l 401 1332 l 406 1335 l 449 1335 q 475 1317 458 1335 q 517 1276 492 1300 l 532 1263 q 554 1235 542 1254 q 586 1188 567 1215 q 622 1224 606 1208 q 651 1257 638 1240 q 660 1267 656 1263 q 671 1278 664 1272 q 690 1302 679 1290 q 713 1325 701 1314 q 728 1335 722 1335 l 872 1335 q 889 1317 889 1335 l 889 1313 l 888 1308 q 876 1274 883 1292 q 858 1238 869 1257 q 828 1182 847 1215 q 776 1106 808 1149 l 729 1043 l 704 1031 l 672 1028 l 504 1028 l 454 1038 l 446 1043 q 425 1074 433 1061 q 411 1092 417 1086 l 378 1142 l 354 1185 q 340 1208 344 1197 q 329 1224 335 1218 q 302 1272 313 1251 q 288 1308 292 1292 l 288 1317 q 301 1335 288 1335 l 336 1335 z "},"Ç":{"ha":982,"x_min":28,"x_max":961,"o":"m 908 318 q 926 294 926 313 l 926 290 q 961 75 961 194 q 815 -10 906 17 q 578 -36 724 -36 q 188 90 339 -36 q 28 461 28 224 q 66 685 28 594 q 188 840 104 776 q 308 906 236 878 q 464 949 379 933 q 635 964 549 964 q 672 962 657 964 q 709 957 688 960 q 771 949 731 954 q 788 947 779 949 q 806 943 796 944 l 851 936 q 878 931 863 935 q 903 926 893 926 q 906 926 904 926 q 910 924 907 925 q 913 919 911 922 q 915 915 914 917 q 926 910 925 910 l 931 910 l 933 882 q 935 860 935 871 q 936 838 935 849 q 938 800 938 824 q 939 749 939 776 q 933 692 939 711 q 911 663 926 674 l 794 679 l 775 679 q 758 680 761 679 q 750 681 754 681 q 729 681 746 682 l 728 679 q 560 619 622 679 q 499 458 499 560 q 558 307 499 361 q 710 264 617 253 l 769 271 q 826 281 796 274 q 908 318 856 288 m 508 -456 l 485 -456 q 396 -437 442 -456 q 360 -414 372 -429 l 374 -351 q 379 -337 376 -344 q 383 -325 382 -331 q 389 -312 388 -314 q 485 -332 435 -332 q 526 -328 508 -332 q 557 -311 544 -325 q 571 -290 567 -297 q 575 -268 575 -282 q 551 -234 575 -247 q 488 -221 528 -221 q 429 -233 457 -221 l 432 -178 l 451 11 l 458 25 l 607 25 l 589 -67 q 763 -133 707 -85 q 818 -242 818 -181 q 790 -350 818 -301 q 694 -427 761 -399 q 508 -456 626 -456 z "},"Ĉ":{"ha":982,"x_min":28,"x_max":961,"o":"m 908 318 q 926 294 926 313 l 926 290 q 961 75 961 194 q 815 -10 906 17 q 578 -36 724 -36 q 188 90 339 -36 q 28 461 28 224 q 66 685 28 594 q 188 840 104 776 q 308 906 236 878 q 464 949 379 933 q 635 964 549 964 q 672 962 657 964 q 709 957 688 960 q 771 949 731 954 q 788 947 779 949 q 806 943 796 944 l 851 936 q 878 931 863 935 q 903 926 893 926 q 906 926 904 926 q 910 924 907 925 q 913 919 911 922 q 915 915 914 917 q 926 910 925 910 l 931 910 l 933 882 q 935 860 935 871 q 936 838 935 849 q 938 800 938 824 q 939 749 939 776 q 933 692 939 711 q 911 663 926 674 l 794 679 l 775 679 q 758 680 761 679 q 750 681 754 681 q 729 681 746 682 l 728 679 q 560 619 622 679 q 499 458 499 560 q 558 307 499 361 q 710 264 617 253 l 769 271 q 826 281 796 274 q 908 318 856 288 m 360 1013 l 329 1013 q 317 1031 317 1013 l 317 1040 q 354 1133 322 1072 q 363 1151 358 1140 q 376 1176 368 1163 l 399 1224 l 428 1278 q 441 1299 433 1285 q 460 1331 449 1313 l 467 1338 l 513 1347 l 665 1347 l 694 1344 l 717 1331 l 760 1263 q 833 1118 801 1193 q 860 1040 854 1071 l 861 1036 l 861 1031 q 846 1013 861 1013 l 715 1013 q 701 1022 708 1013 q 676 1053 683 1043 q 664 1074 669 1064 q 654 1085 658 1081 q 646 1096 650 1090 q 618 1132 632 1113 q 588 1174 604 1151 q 558 1121 569 1142 q 538 1090 547 1100 l 524 1076 q 485 1033 500 1053 q 463 1013 471 1013 l 424 1013 l 419 1014 l 415 1013 l 385 1013 q 375 1014 379 1013 q 360 1013 363 1014 z "},"Ċ":{"ha":982,"x_min":28,"x_max":961,"o":"m 908 318 q 926 294 926 313 l 926 290 q 961 75 961 194 q 815 -10 906 17 q 578 -36 724 -36 q 188 90 339 -36 q 28 461 28 224 q 66 685 28 594 q 188 840 104 776 q 308 906 236 878 q 464 949 379 933 q 635 964 549 964 q 672 962 657 964 q 709 957 688 960 q 771 949 731 954 q 788 947 779 949 q 806 943 796 944 l 851 936 q 878 931 863 935 q 903 926 893 926 q 906 926 904 926 q 910 924 907 925 q 913 919 911 922 q 915 915 914 917 q 926 910 925 910 l 931 910 l 933 882 q 935 860 935 871 q 936 838 935 849 q 938 800 938 824 q 939 749 939 776 q 933 692 939 711 q 911 663 926 674 l 794 679 l 775 679 q 758 680 761 679 q 750 681 754 681 q 729 681 746 682 l 728 679 q 560 619 622 679 q 499 458 499 560 q 558 307 499 361 q 710 264 617 253 l 769 271 q 826 281 796 274 q 908 318 856 288 m 621 1014 l 586 1014 q 563 1015 567 1014 q 549 1017 556 1017 q 538 1018 543 1018 l 419 1028 l 410 1038 q 408 1067 408 1049 q 407 1104 407 1086 q 413 1219 407 1181 q 413 1244 413 1231 q 415 1274 414 1257 l 417 1314 q 456 1335 419 1335 q 487 1335 474 1335 q 507 1333 500 1335 q 532 1332 528 1333 q 545 1331 539 1331 q 558 1331 551 1331 q 574 1331 565 1331 q 594 1333 583 1332 l 714 1333 q 733 1335 717 1335 q 769 1317 769 1335 l 769 1314 q 767 1302 768 1307 q 767 1292 767 1297 l 767 1258 q 768 1243 767 1247 l 768 1065 q 767 1062 767 1064 q 765 1058 767 1060 q 764 1054 764 1057 q 763 1049 764 1051 q 747 1028 758 1035 q 740 1026 742 1028 q 728 1025 738 1025 q 725 1028 725 1025 l 718 1028 l 708 1024 l 676 1021 q 671 1019 672 1021 q 665 1018 669 1018 l 656 1015 q 651 1016 654 1015 q 643 1018 649 1017 q 638 1019 639 1018 q 632 1021 636 1021 q 629 1018 629 1021 l 621 1014 z "},"D":{"ha":1118,"x_min":42,"x_max":1090,"o":"m 482 -1 l 86 1 q 56 32 63 1 q 49 88 49 57 q 48 186 49 135 q 46 303 47 238 q 43 442 44 371 q 42 590 42 514 l 42 896 q 53 920 42 908 q 78 932 65 932 l 239 931 q 275 929 254 929 q 354 929 296 929 q 447 929 407 929 q 517 931 488 929 l 568 932 q 645 934 611 933 q 704 935 679 935 q 890 894 807 935 q 1022 778 974 853 q 1090 518 1090 672 q 1057 274 1090 372 q 954 115 1024 176 q 769 26 883 54 q 482 -1 656 -3 m 494 397 l 485 160 q 507 158 492 158 q 526 159 515 158 q 550 161 536 160 q 558 163 554 163 q 565 165 561 164 q 570 167 567 167 q 575 168 574 167 q 615 238 597 188 q 653 383 633 288 q 660 453 658 418 q 663 522 663 488 l 663 549 q 656 632 663 589 q 638 710 649 675 q 614 758 626 744 q 575 778 592 778 q 543 775 557 778 q 524 771 529 772 q 507 764 522 769 l 506 597 q 503 569 506 586 q 500 531 501 553 l 499 497 q 494 397 497 429 z "},"Ǆ":{"ha":1992,"x_min":42,"x_max":1964,"o":"m 482 -1 l 86 1 q 56 32 63 1 q 49 88 49 57 q 48 186 49 135 q 46 303 47 238 q 43 442 44 371 q 42 590 42 514 l 42 896 q 53 920 42 908 q 78 932 65 932 l 239 931 q 275 929 254 929 q 354 929 296 929 q 447 929 407 929 q 517 931 488 929 l 568 932 q 645 934 611 933 q 704 935 679 935 q 890 894 807 935 q 1022 778 974 853 q 1090 518 1090 672 q 1057 274 1090 372 q 954 115 1024 176 q 769 26 883 54 q 482 -1 656 -3 m 494 397 l 485 160 q 507 158 492 158 q 526 159 515 158 q 550 161 536 160 q 558 163 554 163 q 565 165 561 164 q 570 167 567 167 q 575 168 574 167 q 615 238 597 188 q 653 383 633 288 q 660 453 658 418 q 663 522 663 488 l 663 549 q 656 632 663 589 q 638 710 649 675 q 614 758 626 744 q 575 778 592 778 q 543 775 557 778 q 524 771 529 772 q 507 764 522 769 l 506 597 q 503 569 506 586 q 500 531 501 553 l 499 497 q 494 397 497 429 m 1857 -19 l 1606 -19 q 1480 -19 1533 -19 q 1392 -17 1426 -18 q 1336 -17 1361 -17 q 1296 -15 1311 -17 l 1179 -14 q 1153 -3 1165 -14 q 1142 19 1142 8 l 1142 285 l 1210 354 l 1300 444 l 1404 558 q 1412 570 1407 565 q 1421 582 1417 575 q 1442 608 1432 593 q 1451 632 1451 624 q 1444 643 1451 643 l 1174 644 q 1144 661 1154 644 q 1125 713 1133 678 q 1119 758 1121 731 q 1118 819 1118 785 l 1118 840 q 1120 869 1119 851 q 1121 907 1121 886 q 1124 915 1122 910 q 1125 921 1125 919 l 1131 929 q 1158 940 1142 940 q 1169 939 1165 940 q 1175 936 1172 938 l 1193 935 q 1246 936 1219 935 q 1300 940 1272 938 q 1358 943 1332 942 q 1403 944 1385 944 q 1606 949 1508 944 l 1814 949 q 1938 940 1900 949 l 1961 929 l 1964 918 l 1964 686 q 1957 643 1964 674 q 1940 605 1949 624 q 1917 567 1931 586 q 1811 433 1874 507 q 1665 274 1749 360 l 1924 274 q 1949 265 1938 274 q 1960 246 1960 257 l 1960 13 q 1951 -6 1960 -1 q 1919 -14 1942 -11 q 1894 -17 1910 -15 q 1857 -19 1878 -19 m 1289 1335 q 1299 1333 1293 1333 q 1306 1332 1304 1332 q 1315 1335 1310 1335 l 1350 1335 l 1354 1332 l 1358 1335 l 1401 1335 q 1428 1317 1411 1335 q 1469 1276 1444 1300 l 1485 1263 q 1507 1235 1494 1254 q 1539 1188 1519 1215 q 1574 1224 1558 1208 q 1604 1257 1590 1240 q 1613 1267 1608 1263 q 1624 1278 1617 1272 q 1643 1302 1632 1290 q 1665 1325 1654 1314 q 1681 1335 1675 1335 l 1825 1335 q 1842 1317 1842 1335 l 1842 1313 l 1840 1308 q 1829 1274 1836 1292 q 1811 1238 1822 1257 q 1781 1182 1800 1215 q 1729 1106 1761 1149 l 1682 1043 l 1657 1031 l 1625 1028 l 1457 1028 l 1407 1038 l 1399 1043 q 1378 1074 1386 1061 q 1364 1092 1369 1086 l 1331 1142 l 1307 1185 q 1292 1208 1297 1197 q 1282 1224 1288 1218 q 1255 1272 1265 1251 q 1240 1308 1244 1292 l 1240 1317 q 1254 1335 1240 1335 l 1289 1335 z "},"Ð":{"ha":1207,"x_min":42,"x_max":1179,"o":"m 42 547 q 53 559 42 551 q 79 567 65 567 l 131 567 l 131 896 q 142 920 131 908 q 167 932 154 932 l 328 931 q 380 929 351 929 q 443 929 408 929 q 536 929 496 929 q 606 931 576 929 l 657 932 q 734 934 700 933 q 793 935 768 935 q 967 900 879 935 q 1111 778 1054 865 q 1179 518 1179 672 q 1147 274 1179 372 q 1043 115 1114 176 q 858 26 972 54 q 571 -1 743 -3 l 175 1 q 144 32 150 1 q 138 88 138 53 q 137 202 138 149 q 135 303 136 256 q 134 338 135 321 q 133 374 133 356 q 98 375 114 374 q 75 376 82 376 q 43 394 43 383 l 43 472 q 42 504 42 488 q 42 547 42 521 m 650 564 q 671 557 663 564 q 679 547 679 550 l 675 475 q 674 461 675 468 q 674 449 674 454 l 674 417 q 663 390 674 399 q 638 381 653 382 l 583 381 l 574 160 q 596 158 581 158 q 615 159 604 158 q 639 161 625 160 q 648 163 644 163 q 654 165 651 164 q 659 167 656 167 q 664 168 663 167 q 705 238 686 188 q 742 383 724 289 q 749 458 747 424 q 751 522 751 493 l 751 549 q 747 615 751 574 q 731 698 742 657 q 703 758 721 739 q 664 778 681 778 q 632 775 646 778 q 613 771 618 772 q 596 764 611 769 l 594 597 q 594 583 594 592 q 592 564 593 575 l 650 564 z "},"Ď":{"ha":1118,"x_min":42,"x_max":1090,"o":"m 482 -1 l 86 1 q 56 32 63 1 q 49 88 49 57 q 48 186 49 135 q 46 303 47 238 q 43 442 44 371 q 42 590 42 514 l 42 896 q 53 920 42 908 q 78 932 65 932 l 239 931 q 275 929 254 929 q 354 929 296 929 q 447 929 407 929 q 517 931 488 929 l 568 932 q 645 934 611 933 q 704 935 679 935 q 890 894 807 935 q 1022 778 974 853 q 1090 518 1090 672 q 1057 274 1090 372 q 954 115 1024 176 q 769 26 883 54 q 482 -1 656 -3 m 494 397 l 485 160 q 507 158 492 158 q 526 159 515 158 q 550 161 536 160 q 558 163 554 163 q 565 165 561 164 q 570 167 567 167 q 575 168 574 167 q 615 238 597 188 q 653 383 633 288 q 660 453 658 418 q 663 522 663 488 l 663 549 q 656 632 663 589 q 638 710 649 675 q 614 758 626 744 q 575 778 592 778 q 543 775 557 778 q 524 771 529 772 q 507 764 522 769 l 506 597 q 503 569 506 586 q 500 531 501 553 l 499 497 q 494 397 497 429 m 303 1335 q 313 1333 307 1333 q 319 1332 318 1332 q 329 1335 324 1335 l 364 1335 l 368 1332 l 372 1335 l 415 1335 q 442 1317 425 1335 q 483 1276 458 1300 l 499 1263 q 521 1235 508 1254 q 553 1188 533 1215 q 588 1224 572 1208 q 618 1257 604 1240 q 626 1267 622 1263 q 638 1278 631 1272 q 657 1302 646 1290 q 679 1325 668 1314 q 694 1335 689 1335 l 839 1335 q 856 1317 856 1335 l 856 1313 l 854 1308 q 843 1274 850 1292 q 825 1238 836 1257 q 794 1182 814 1215 q 743 1106 775 1149 l 696 1043 l 671 1031 l 639 1028 l 471 1028 l 421 1038 l 413 1043 q 392 1074 400 1061 q 378 1092 383 1086 l 344 1142 l 321 1185 q 306 1208 311 1197 q 296 1224 301 1218 q 269 1272 279 1251 q 254 1308 258 1292 l 254 1317 q 268 1335 254 1335 l 303 1335 z "},"Đ":{"ha":1207,"x_min":42,"x_max":1179,"o":"m 42 547 q 53 559 42 551 q 79 567 65 567 l 131 567 l 131 896 q 142 920 131 908 q 167 932 154 932 l 328 931 q 380 929 351 929 q 443 929 408 929 q 536 929 496 929 q 606 931 576 929 l 657 932 q 734 934 700 933 q 793 935 768 935 q 967 900 879 935 q 1111 778 1054 865 q 1179 518 1179 672 q 1147 274 1179 372 q 1043 115 1114 176 q 858 26 972 54 q 571 -1 743 -3 l 175 1 q 144 32 150 1 q 138 88 138 53 q 137 202 138 149 q 135 303 136 256 q 134 338 135 321 q 133 374 133 356 q 98 375 114 374 q 75 376 82 376 q 43 394 43 383 l 43 472 q 42 504 42 488 q 42 547 42 521 m 650 564 q 671 557 663 564 q 679 547 679 550 l 675 475 q 674 461 675 468 q 674 449 674 454 l 674 417 q 663 390 674 399 q 638 381 653 382 l 583 381 l 574 160 q 596 158 581 158 q 615 159 604 158 q 639 161 625 160 q 648 163 644 163 q 654 165 651 164 q 659 167 656 167 q 664 168 663 167 q 705 238 686 188 q 742 383 724 289 q 749 458 747 424 q 751 522 751 493 l 751 549 q 747 615 751 574 q 731 698 742 657 q 703 758 721 739 q 664 778 681 778 q 632 775 646 778 q 613 771 618 772 q 596 764 611 769 l 594 597 q 594 583 594 592 q 592 564 593 575 l 650 564 z "},"ǅ":{"ha":1899,"x_min":42,"x_max":1878,"o":"m 482 -1 l 86 1 q 56 32 63 1 q 49 88 49 57 q 48 186 49 135 q 46 303 47 238 q 43 442 44 371 q 42 590 42 514 l 42 896 q 53 920 42 908 q 78 932 65 932 l 239 931 q 275 929 254 929 q 354 929 296 929 q 447 929 407 929 q 517 931 488 929 l 568 932 q 645 934 611 933 q 704 935 679 935 q 890 894 807 935 q 1022 778 974 853 q 1090 518 1090 672 q 1057 274 1090 372 q 954 115 1024 176 q 769 26 883 54 q 482 -1 656 -3 m 494 397 l 485 160 q 507 158 492 158 q 526 159 515 158 q 550 161 536 160 q 558 163 554 163 q 565 165 561 164 q 570 167 567 167 q 575 168 574 167 q 615 238 597 188 q 653 383 633 288 q 660 453 658 418 q 663 522 663 488 l 663 549 q 656 632 663 589 q 638 710 649 675 q 614 758 626 744 q 575 778 592 778 q 543 775 557 778 q 524 771 529 772 q 507 764 522 769 l 506 597 q 503 569 506 586 q 500 531 501 553 l 499 497 q 494 397 497 429 m 1783 0 l 1564 0 q 1460 0 1496 0 q 1408 1 1425 0 q 1378 1 1392 1 q 1318 1 1333 1 q 1293 3 1303 1 l 1192 4 q 1172 14 1182 4 q 1161 33 1161 24 l 1161 254 l 1219 313 q 1265 357 1243 336 q 1296 386 1286 378 l 1388 485 q 1394 493 1390 489 q 1403 503 1399 497 q 1429 546 1429 529 q 1424 553 1429 553 l 1188 554 q 1144 611 1154 554 q 1139 701 1139 635 l 1139 719 q 1141 747 1140 732 q 1142 775 1142 763 q 1144 786 1144 783 l 1149 793 q 1174 803 1158 803 q 1189 800 1185 803 l 1204 799 q 1296 803 1250 799 q 1347 805 1325 804 q 1386 806 1369 806 q 1564 810 1476 806 l 1744 810 q 1853 803 1811 810 l 1875 793 q 1877 787 1876 789 q 1878 783 1878 785 l 1878 590 q 1868 553 1878 572 q 1852 521 1861 536 q 1832 490 1843 506 q 1614 244 1747 375 l 1840 244 q 1861 238 1851 244 q 1871 221 1871 231 l 1871 26 q 1864 12 1871 17 q 1835 4 1857 7 q 1783 0 1818 0 m 1256 1228 q 1265 1226 1260 1226 q 1272 1225 1271 1225 q 1282 1228 1276 1228 l 1317 1228 l 1321 1225 l 1325 1228 l 1368 1228 q 1394 1210 1378 1228 q 1436 1169 1411 1193 l 1451 1156 q 1474 1128 1461 1147 q 1506 1081 1486 1108 q 1541 1117 1525 1101 q 1571 1150 1557 1133 q 1579 1160 1575 1156 q 1590 1171 1583 1165 q 1610 1195 1599 1183 q 1632 1218 1621 1207 q 1647 1228 1642 1228 l 1792 1228 q 1808 1210 1808 1228 l 1808 1206 l 1807 1201 q 1796 1167 1803 1185 q 1778 1131 1789 1150 q 1747 1075 1767 1108 q 1696 999 1728 1042 l 1649 936 l 1624 924 l 1592 921 l 1424 921 l 1374 931 l 1365 936 q 1344 967 1353 954 q 1331 985 1336 979 l 1297 1035 l 1274 1078 q 1259 1101 1264 1090 q 1249 1117 1254 1111 q 1222 1165 1232 1144 q 1207 1201 1211 1185 l 1207 1210 q 1221 1228 1207 1228 l 1256 1228 z "},"E":{"ha":896,"x_min":42,"x_max":889,"o":"m 375 -6 l 156 -6 q 135 -4 140 -6 q 119 -2 128 -3 q 101 0 111 -1 l 72 7 q 61 11 65 7 q 61 14 61 14 q 57 108 61 50 q 55 146 57 131 q 51 174 53 161 l 49 232 q 48 260 47 244 q 47 294 49 275 l 44 336 q 44 383 43 363 q 43 418 44 404 q 42 435 43 425 q 42 470 42 446 q 42 542 42 494 q 44 755 42 674 q 51 897 46 836 q 86 922 51 911 q 119 924 100 924 q 154 925 138 925 q 252 926 211 925 q 319 929 293 926 q 463 931 401 931 q 567 932 524 932 l 628 932 q 729 929 686 932 q 803 924 772 926 q 835 872 824 924 q 839 856 838 867 q 844 821 840 844 q 850 774 847 790 q 856 742 853 757 q 857 726 857 739 q 856 715 856 725 q 840 703 854 703 q 825 704 838 704 q 759 701 794 704 q 679 694 724 697 l 607 689 l 535 682 q 524 667 531 682 q 515 653 519 657 q 510 638 511 650 l 507 590 q 511 567 506 572 q 532 561 517 561 l 656 561 q 779 553 708 561 l 793 553 q 825 522 819 553 l 828 385 l 828 381 q 781 353 828 356 q 743 347 768 349 q 667 346 718 346 q 599 346 615 346 q 576 347 583 346 q 539 347 547 347 q 528 346 531 347 q 509 340 514 343 q 504 322 504 336 q 503 268 504 307 q 501 253 501 263 q 500 214 500 244 q 631 215 583 214 q 704 218 678 217 q 777 220 744 219 q 836 221 810 221 q 847 211 840 221 q 863 161 853 201 q 886 51 872 121 q 889 31 889 44 q 863 1 889 1 q 764 -3 818 1 q 737 -4 754 -4 q 665 -4 719 -4 q 558 -4 617 -4 q 449 -5 499 -4 q 375 -6 400 -6 z "},"É":{"ha":896,"x_min":42,"x_max":889,"o":"m 375 -6 l 156 -6 q 135 -4 140 -6 q 119 -2 128 -3 q 101 0 111 -1 l 72 7 q 61 11 65 7 q 61 14 61 14 q 57 108 61 50 q 55 146 57 131 q 51 174 53 161 l 49 232 q 48 260 47 244 q 47 294 49 275 l 44 336 q 44 383 43 363 q 43 418 44 404 q 42 435 43 425 q 42 470 42 446 q 42 542 42 494 q 44 755 42 674 q 51 897 46 836 q 86 922 51 911 q 119 924 100 924 q 154 925 138 925 q 252 926 211 925 q 319 929 293 926 q 463 931 401 931 q 567 932 524 932 l 628 932 q 729 929 686 932 q 803 924 772 926 q 835 872 824 924 q 839 856 838 867 q 844 821 840 844 q 850 774 847 790 q 856 742 853 757 q 857 726 857 739 q 856 715 856 725 q 840 703 854 703 q 825 704 838 704 q 759 701 794 704 q 679 694 724 697 l 607 689 l 535 682 q 524 667 531 682 q 515 653 519 657 q 510 638 511 650 l 507 590 q 511 567 506 572 q 532 561 517 561 l 656 561 q 779 553 708 561 l 793 553 q 825 522 819 553 l 828 385 l 828 381 q 781 353 828 356 q 743 347 768 349 q 667 346 718 346 q 599 346 615 346 q 576 347 583 346 q 539 347 547 347 q 528 346 531 347 q 509 340 514 343 q 504 322 504 336 q 503 268 504 307 q 501 253 501 263 q 500 214 500 244 q 631 215 583 214 q 704 218 678 217 q 777 220 744 219 q 836 221 810 221 q 847 211 840 221 q 863 161 853 201 q 886 51 872 121 q 889 31 889 44 q 863 1 889 1 q 764 -3 818 1 q 737 -4 754 -4 q 665 -4 719 -4 q 558 -4 617 -4 q 449 -5 499 -4 q 375 -6 400 -6 m 456 1018 l 444 1022 l 440 1018 l 325 1018 q 303 1029 308 1018 q 299 1060 299 1040 q 303 1102 299 1083 q 310 1132 308 1121 q 339 1231 325 1182 q 368 1335 353 1279 l 379 1343 l 439 1353 l 521 1357 l 529 1353 q 543 1356 535 1356 l 557 1356 q 561 1354 560 1356 q 567 1353 563 1353 l 575 1351 l 633 1349 l 644 1344 q 647 1346 647 1344 l 654 1346 q 692 1335 683 1340 q 700 1322 700 1331 q 696 1308 700 1317 q 682 1282 693 1301 q 669 1258 679 1276 q 640 1210 658 1240 q 628 1189 633 1197 q 619 1175 622 1181 l 601 1142 q 565 1091 578 1108 q 547 1063 553 1074 q 531 1039 540 1053 q 507 1018 517 1018 l 456 1018 z "},"Ĕ":{"ha":896,"x_min":42,"x_max":889,"o":"m 375 -6 l 156 -6 q 135 -4 140 -6 q 119 -2 128 -3 q 101 0 111 -1 l 72 7 q 61 11 65 7 q 61 14 61 14 q 57 108 61 50 q 55 146 57 131 q 51 174 53 161 l 49 232 q 48 260 47 244 q 47 294 49 275 l 44 336 q 44 383 43 363 q 43 418 44 404 q 42 435 43 425 q 42 470 42 446 q 42 542 42 494 q 44 755 42 674 q 51 897 46 836 q 86 922 51 911 q 119 924 100 924 q 154 925 138 925 q 252 926 211 925 q 319 929 293 926 q 463 931 401 931 q 567 932 524 932 l 628 932 q 729 929 686 932 q 803 924 772 926 q 835 872 824 924 q 839 856 838 867 q 844 821 840 844 q 850 774 847 790 q 856 742 853 757 q 857 726 857 739 q 856 715 856 725 q 840 703 854 703 q 825 704 838 704 q 759 701 794 704 q 679 694 724 697 l 607 689 l 535 682 q 524 667 531 682 q 515 653 519 657 q 510 638 511 650 l 507 590 q 511 567 506 572 q 532 561 517 561 l 656 561 q 779 553 708 561 l 793 553 q 825 522 819 553 l 828 385 l 828 381 q 781 353 828 356 q 743 347 768 349 q 667 346 718 346 q 599 346 615 346 q 576 347 583 346 q 539 347 547 347 q 528 346 531 347 q 509 340 514 343 q 504 322 504 336 q 503 268 504 307 q 501 253 501 263 q 500 214 500 244 q 631 215 583 214 q 704 218 678 217 q 777 220 744 219 q 836 221 810 221 q 847 211 840 221 q 863 161 853 201 q 886 51 872 121 q 889 31 889 44 q 863 1 889 1 q 764 -3 818 1 q 737 -4 754 -4 q 665 -4 719 -4 q 558 -4 617 -4 q 449 -5 499 -4 q 375 -6 400 -6 m 426 1013 q 316 1032 371 1013 q 218 1082 261 1051 q 150 1159 175 1114 q 125 1256 125 1204 q 128 1306 125 1282 q 136 1354 131 1331 q 149 1364 139 1364 l 332 1363 q 340 1359 336 1363 q 343 1350 344 1356 q 339 1274 339 1308 l 340 1247 l 342 1246 q 343 1243 343 1244 q 344 1240 343 1242 q 384 1210 351 1222 q 454 1197 417 1197 q 521 1226 492 1197 q 550 1299 550 1256 q 551 1333 550 1317 q 550 1367 551 1350 q 558 1375 550 1375 l 753 1368 q 758 1364 757 1368 q 763 1325 767 1347 q 760 1276 760 1303 q 676 1099 760 1194 q 571 1031 633 1050 q 426 1013 508 1013 z "},"Ě":{"ha":896,"x_min":42,"x_max":889,"o":"m 375 -6 l 156 -6 q 135 -4 140 -6 q 119 -2 128 -3 q 101 0 111 -1 l 72 7 q 61 11 65 7 q 61 14 61 14 q 57 108 61 50 q 55 146 57 131 q 51 174 53 161 l 49 232 q 48 260 47 244 q 47 294 49 275 l 44 336 q 44 383 43 363 q 43 418 44 404 q 42 435 43 425 q 42 470 42 446 q 42 542 42 494 q 44 755 42 674 q 51 897 46 836 q 86 922 51 911 q 119 924 100 924 q 154 925 138 925 q 252 926 211 925 q 319 929 293 926 q 463 931 401 931 q 567 932 524 932 l 628 932 q 729 929 686 932 q 803 924 772 926 q 835 872 824 924 q 839 856 838 867 q 844 821 840 844 q 850 774 847 790 q 856 742 853 757 q 857 726 857 739 q 856 715 856 725 q 840 703 854 703 q 825 704 838 704 q 759 701 794 704 q 679 694 724 697 l 607 689 l 535 682 q 524 667 531 682 q 515 653 519 657 q 510 638 511 650 l 507 590 q 511 567 506 572 q 532 561 517 561 l 656 561 q 779 553 708 561 l 793 553 q 825 522 819 553 l 828 385 l 828 381 q 781 353 828 356 q 743 347 768 349 q 667 346 718 346 q 599 346 615 346 q 576 347 583 346 q 539 347 547 347 q 528 346 531 347 q 509 340 514 343 q 504 322 504 336 q 503 268 504 307 q 501 253 501 263 q 500 214 500 244 q 631 215 583 214 q 704 218 678 217 q 777 220 744 219 q 836 221 810 221 q 847 211 840 221 q 863 161 853 201 q 886 51 872 121 q 889 31 889 44 q 863 1 889 1 q 764 -3 818 1 q 737 -4 754 -4 q 665 -4 719 -4 q 558 -4 617 -4 q 449 -5 499 -4 q 375 -6 400 -6 m 192 1335 q 201 1333 196 1333 q 208 1332 207 1332 q 218 1335 213 1335 l 253 1335 l 257 1332 l 261 1335 l 304 1335 q 331 1317 314 1335 q 372 1276 347 1300 l 388 1263 q 410 1235 397 1254 q 442 1188 422 1215 q 477 1224 461 1208 q 507 1257 493 1240 q 515 1267 511 1263 q 526 1278 519 1272 q 546 1302 535 1290 q 568 1325 557 1314 q 583 1335 578 1335 l 728 1335 q 744 1317 744 1335 l 744 1313 l 743 1308 q 732 1274 739 1292 q 714 1238 725 1257 q 683 1182 703 1215 q 632 1106 664 1149 l 585 1043 l 560 1031 l 528 1028 l 360 1028 l 310 1038 l 301 1043 q 281 1074 289 1061 q 267 1092 272 1086 l 233 1142 l 210 1185 q 195 1208 200 1197 q 185 1224 190 1218 q 158 1272 168 1251 q 143 1308 147 1292 l 143 1317 q 157 1335 143 1335 l 192 1335 z "},"Ê":{"ha":896,"x_min":42,"x_max":889,"o":"m 375 -6 l 156 -6 q 135 -4 140 -6 q 119 -2 128 -3 q 101 0 111 -1 l 72 7 q 61 11 65 7 q 61 14 61 14 q 57 108 61 50 q 55 146 57 131 q 51 174 53 161 l 49 232 q 48 260 47 244 q 47 294 49 275 l 44 336 q 44 383 43 363 q 43 418 44 404 q 42 435 43 425 q 42 470 42 446 q 42 542 42 494 q 44 755 42 674 q 51 897 46 836 q 86 922 51 911 q 119 924 100 924 q 154 925 138 925 q 252 926 211 925 q 319 929 293 926 q 463 931 401 931 q 567 932 524 932 l 628 932 q 729 929 686 932 q 803 924 772 926 q 835 872 824 924 q 839 856 838 867 q 844 821 840 844 q 850 774 847 790 q 856 742 853 757 q 857 726 857 739 q 856 715 856 725 q 840 703 854 703 q 825 704 838 704 q 759 701 794 704 q 679 694 724 697 l 607 689 l 535 682 q 524 667 531 682 q 515 653 519 657 q 510 638 511 650 l 507 590 q 511 567 506 572 q 532 561 517 561 l 656 561 q 779 553 708 561 l 793 553 q 825 522 819 553 l 828 385 l 828 381 q 781 353 828 356 q 743 347 768 349 q 667 346 718 346 q 599 346 615 346 q 576 347 583 346 q 539 347 547 347 q 528 346 531 347 q 509 340 514 343 q 504 322 504 336 q 503 268 504 307 q 501 253 501 263 q 500 214 500 244 q 631 215 583 214 q 704 218 678 217 q 777 220 744 219 q 836 221 810 221 q 847 211 840 221 q 863 161 853 201 q 886 51 872 121 q 889 31 889 44 q 863 1 889 1 q 764 -3 818 1 q 737 -4 754 -4 q 665 -4 719 -4 q 558 -4 617 -4 q 449 -5 499 -4 q 375 -6 400 -6 m 215 1013 l 185 1013 q 172 1031 172 1013 l 172 1040 q 210 1133 178 1072 q 219 1151 214 1140 q 232 1176 224 1163 l 254 1224 l 283 1278 q 297 1299 289 1285 q 315 1331 304 1313 l 322 1338 l 368 1347 l 521 1347 l 550 1344 l 572 1331 l 615 1263 q 689 1118 657 1193 q 715 1040 710 1071 l 717 1036 l 717 1031 q 701 1013 717 1013 l 571 1013 q 557 1022 564 1013 q 532 1053 539 1043 q 519 1074 525 1064 q 510 1085 514 1081 q 501 1096 506 1090 q 474 1132 488 1113 q 443 1174 460 1151 q 414 1121 425 1142 q 393 1090 403 1100 l 379 1076 q 341 1033 356 1053 q 318 1013 326 1013 l 279 1013 l 275 1014 l 271 1013 l 240 1013 q 231 1014 235 1013 q 215 1013 218 1014 z "},"Ế":{"ha":896,"x_min":42,"x_max":972,"o":"m 375 -6 l 156 -6 q 135 -4 140 -6 q 119 -2 128 -3 q 101 0 111 -1 l 72 7 q 61 11 65 7 q 61 14 61 14 q 57 108 61 50 q 55 146 57 131 q 51 174 53 161 l 49 232 q 48 260 47 244 q 47 294 49 275 l 44 336 q 44 383 43 363 q 43 418 44 404 q 42 435 43 425 q 42 470 42 446 q 42 542 42 494 q 44 755 42 674 q 51 897 46 836 q 86 922 51 911 q 119 924 100 924 q 154 925 138 925 q 252 926 211 925 q 319 929 293 926 q 463 931 401 931 q 567 932 524 932 l 628 932 q 729 929 686 932 q 803 924 772 926 q 835 872 824 924 q 839 856 838 867 q 844 821 840 844 q 850 774 847 790 q 856 742 853 757 q 857 726 857 739 q 856 715 856 725 q 840 703 854 703 q 825 704 838 704 q 759 701 794 704 q 679 694 724 697 l 607 689 l 535 682 q 524 667 531 682 q 515 653 519 657 q 510 638 511 650 l 507 590 q 511 567 506 572 q 532 561 517 561 l 656 561 q 779 553 708 561 l 793 553 q 825 522 819 553 l 828 385 l 828 381 q 781 353 828 356 q 743 347 768 349 q 667 346 718 346 q 599 346 615 346 q 576 347 583 346 q 539 347 547 347 q 528 346 531 347 q 509 340 514 343 q 504 322 504 336 q 503 268 504 307 q 501 253 501 263 q 500 214 500 244 q 631 215 583 214 q 704 218 678 217 q 777 220 744 219 q 836 221 810 221 q 847 211 840 221 q 863 161 853 201 q 886 51 872 121 q 889 31 889 44 q 863 1 889 1 q 764 -3 818 1 q 737 -4 754 -4 q 665 -4 719 -4 q 558 -4 617 -4 q 449 -5 499 -4 q 375 -6 400 -6 m 246 1024 l 242 1018 l 142 1018 q 130 1025 133 1018 q 126 1042 126 1032 l 126 1049 q 128 1057 126 1056 q 142 1078 135 1068 q 157 1096 149 1088 q 204 1168 193 1143 l 240 1213 q 268 1247 247 1226 q 300 1279 288 1265 l 304 1290 l 356 1321 l 496 1321 q 501 1318 499 1319 q 510 1317 504 1317 l 532 1317 l 569 1314 l 593 1299 l 697 1142 l 724 1106 q 742 1080 733 1092 q 760 1057 751 1068 l 763 1049 l 763 1042 q 744 1018 763 1018 l 592 1018 q 575 1032 582 1018 l 539 1065 q 490 1108 514 1089 q 444 1149 465 1128 q 403 1113 428 1135 q 358 1072 378 1090 q 335 1049 339 1053 q 296 1018 307 1018 l 250 1018 l 246 1024 m 763 1228 l 751 1231 l 746 1228 l 714 1228 q 692 1238 697 1228 q 688 1265 688 1247 q 688 1303 688 1288 q 689 1329 688 1319 q 690 1353 690 1335 q 690 1373 690 1360 q 688 1406 689 1386 q 683 1500 683 1488 l 694 1508 l 729 1518 q 783 1518 761 1518 q 818 1519 804 1518 l 906 1514 l 917 1511 q 919 1513 919 1511 l 926 1513 q 936 1510 931 1511 q 947 1507 942 1508 q 966 1501 960 1504 q 972 1489 972 1497 q 968 1476 972 1485 q 964 1467 967 1474 q 954 1454 961 1461 q 949 1443 953 1450 q 940 1425 946 1436 q 915 1381 929 1400 q 890 1338 900 1358 q 865 1288 878 1311 q 836 1246 851 1265 q 814 1228 824 1228 l 763 1228 z "},"Ệ":{"ha":896,"x_min":42,"x_max":889,"o":"m 375 -6 l 156 -6 q 135 -4 140 -6 q 119 -2 128 -3 q 101 0 111 -1 l 72 7 q 61 11 65 7 q 61 14 61 14 q 57 108 61 50 q 55 146 57 131 q 51 174 53 161 l 49 232 q 48 260 47 244 q 47 294 49 275 l 44 336 q 44 383 43 363 q 43 418 44 404 q 42 435 43 425 q 42 470 42 446 q 42 542 42 494 q 44 755 42 674 q 51 897 46 836 q 86 922 51 911 q 119 924 100 924 q 154 925 138 925 q 252 926 211 925 q 319 929 293 926 q 463 931 401 931 q 567 932 524 932 l 628 932 q 729 929 686 932 q 803 924 772 926 q 835 872 824 924 q 839 856 838 867 q 844 821 840 844 q 850 774 847 790 q 856 742 853 757 q 857 726 857 739 q 856 715 856 725 q 840 703 854 703 q 825 704 838 704 q 759 701 794 704 q 679 694 724 697 l 607 689 l 535 682 q 524 667 531 682 q 515 653 519 657 q 510 638 511 650 l 507 590 q 511 567 506 572 q 532 561 517 561 l 656 561 q 779 553 708 561 l 793 553 q 825 522 819 553 l 828 385 l 828 381 q 781 353 828 356 q 743 347 768 349 q 667 346 718 346 q 599 346 615 346 q 576 347 583 346 q 539 347 547 347 q 528 346 531 347 q 509 340 514 343 q 504 322 504 336 q 503 268 504 307 q 501 253 501 263 q 500 214 500 244 q 631 215 583 214 q 704 218 678 217 q 777 220 744 219 q 836 221 810 221 q 847 211 840 221 q 863 161 853 201 q 886 51 872 121 q 889 31 889 44 q 863 1 889 1 q 764 -3 818 1 q 737 -4 754 -4 q 665 -4 719 -4 q 558 -4 617 -4 q 449 -5 499 -4 q 375 -6 400 -6 m 246 1024 l 242 1018 l 142 1018 q 130 1025 133 1018 q 126 1042 126 1032 l 126 1049 q 128 1057 126 1056 q 142 1078 135 1068 q 157 1096 149 1088 q 204 1168 193 1143 l 240 1213 q 268 1247 247 1226 q 300 1279 288 1265 l 304 1290 l 356 1321 l 496 1321 q 501 1318 499 1319 q 510 1317 504 1317 l 532 1317 l 569 1314 l 593 1299 l 697 1142 l 724 1106 q 742 1080 733 1092 q 760 1057 751 1068 l 763 1049 l 763 1042 q 744 1018 763 1018 l 592 1018 q 575 1032 582 1018 l 539 1065 q 490 1108 514 1089 q 444 1149 465 1128 q 403 1113 428 1135 q 358 1072 378 1090 q 335 1049 339 1053 q 296 1018 307 1018 l 250 1018 l 246 1024 m 474 -412 l 442 -412 q 421 -411 425 -412 q 409 -410 415 -410 q 399 -410 403 -410 l 292 -400 l 283 -392 q 281 -365 282 -381 q 281 -332 281 -349 q 286 -228 281 -262 q 287 -206 286 -218 q 289 -179 288 -193 l 289 -143 q 325 -124 292 -124 q 353 -124 340 -124 q 371 -125 365 -124 q 393 -126 389 -125 q 406 -128 400 -128 q 417 -128 411 -128 q 432 -127 424 -128 q 450 -125 440 -126 l 557 -125 q 563 -124 560 -125 q 575 -124 565 -124 q 607 -140 607 -124 l 607 -143 q 605 -154 606 -150 q 604 -162 604 -158 l 604 -193 q 606 -207 604 -203 l 606 -367 q 603 -372 603 -372 q 601 -382 601 -375 q 588 -400 599 -392 q 583 -401 585 -400 q 581 -401 582 -401 q 569 -403 578 -403 q 567 -400 567 -403 l 561 -400 l 551 -404 l 524 -407 q 518 -408 519 -407 q 517 -409 517 -408 q 514 -410 517 -410 l 504 -411 q 501 -410 503 -411 q 493 -410 499 -410 q 490 -409 492 -410 q 489 -408 489 -408 q 483 -407 488 -407 q 481 -410 481 -407 l 474 -412 z "},"Ề":{"ha":896,"x_min":42,"x_max":889,"o":"m 375 -6 l 156 -6 q 135 -4 140 -6 q 119 -2 128 -3 q 101 0 111 -1 l 72 7 q 61 11 65 7 q 61 14 61 14 q 57 108 61 50 q 55 146 57 131 q 51 174 53 161 l 49 232 q 48 260 47 244 q 47 294 49 275 l 44 336 q 44 383 43 363 q 43 418 44 404 q 42 435 43 425 q 42 470 42 446 q 42 542 42 494 q 44 755 42 674 q 51 897 46 836 q 86 922 51 911 q 119 924 100 924 q 154 925 138 925 q 252 926 211 925 q 319 929 293 926 q 463 931 401 931 q 567 932 524 932 l 628 932 q 729 929 686 932 q 803 924 772 926 q 835 872 824 924 q 839 856 838 867 q 844 821 840 844 q 850 774 847 790 q 856 742 853 757 q 857 726 857 739 q 856 715 856 725 q 840 703 854 703 q 825 704 838 704 q 759 701 794 704 q 679 694 724 697 l 607 689 l 535 682 q 524 667 531 682 q 515 653 519 657 q 510 638 511 650 l 507 590 q 511 567 506 572 q 532 561 517 561 l 656 561 q 779 553 708 561 l 793 553 q 825 522 819 553 l 828 385 l 828 381 q 781 353 828 356 q 743 347 768 349 q 667 346 718 346 q 599 346 615 346 q 576 347 583 346 q 539 347 547 347 q 528 346 531 347 q 509 340 514 343 q 504 322 504 336 q 503 268 504 307 q 501 253 501 263 q 500 214 500 244 q 631 215 583 214 q 704 218 678 217 q 777 220 744 219 q 836 221 810 221 q 847 211 840 221 q 863 161 853 201 q 886 51 872 121 q 889 31 889 44 q 863 1 889 1 q 764 -3 818 1 q 737 -4 754 -4 q 665 -4 719 -4 q 558 -4 617 -4 q 449 -5 499 -4 q 375 -6 400 -6 m 246 1024 l 242 1018 l 142 1018 q 130 1025 133 1018 q 126 1042 126 1032 l 126 1049 q 128 1057 126 1056 q 142 1078 135 1068 q 157 1096 149 1088 q 204 1168 193 1143 l 240 1213 q 268 1247 247 1226 q 300 1279 288 1265 l 304 1290 l 356 1321 l 496 1321 q 501 1318 499 1319 q 510 1317 504 1317 l 532 1317 l 569 1314 l 593 1299 l 697 1142 l 724 1106 q 742 1080 733 1092 q 760 1057 751 1068 l 763 1049 l 763 1042 q 744 1018 763 1018 l 592 1018 q 575 1032 582 1018 l 539 1065 q 490 1108 514 1089 q 444 1149 465 1128 q 403 1113 428 1135 q 358 1072 378 1090 q 335 1049 339 1053 q 296 1018 307 1018 l 250 1018 l 246 1024 m 783 1225 l 732 1225 q 708 1246 724 1225 q 682 1291 694 1265 q 656 1347 669 1317 q 650 1358 653 1353 q 644 1369 647 1364 q 638 1383 642 1376 q 631 1394 633 1389 q 617 1421 624 1407 q 603 1450 610 1435 l 590 1475 q 583 1488 586 1482 q 576 1500 579 1494 q 572 1514 572 1508 q 582 1526 572 1522 q 599 1533 588 1532 q 609 1536 604 1535 q 618 1539 614 1538 l 625 1539 q 629 1538 625 1538 l 639 1540 l 728 1547 q 764 1546 742 1546 q 817 1546 786 1546 l 851 1535 l 861 1526 q 860 1479 861 1504 q 858 1425 860 1454 q 856 1390 857 1404 q 856 1367 856 1375 q 856 1350 856 1357 q 857 1338 856 1343 q 858 1308 858 1326 q 858 1267 858 1290 q 853 1236 858 1247 q 832 1225 849 1225 l 799 1225 l 794 1229 l 783 1225 z "},"Ể":{"ha":896,"x_min":42,"x_max":1042,"o":"m 375 -6 l 156 -6 q 135 -4 140 -6 q 119 -2 128 -3 q 101 0 111 -1 l 72 7 q 61 11 65 7 q 61 14 61 14 q 57 108 61 50 q 55 146 57 131 q 51 174 53 161 l 49 232 q 48 260 47 244 q 47 294 49 275 l 44 336 q 44 383 43 363 q 43 418 44 404 q 42 435 43 425 q 42 470 42 446 q 42 542 42 494 q 44 755 42 674 q 51 897 46 836 q 86 922 51 911 q 119 924 100 924 q 154 925 138 925 q 252 926 211 925 q 319 929 293 926 q 463 931 401 931 q 567 932 524 932 l 628 932 q 729 929 686 932 q 803 924 772 926 q 835 872 824 924 q 839 856 838 867 q 844 821 840 844 q 850 774 847 790 q 856 742 853 757 q 857 726 857 739 q 856 715 856 725 q 840 703 854 703 q 825 704 838 704 q 759 701 794 704 q 679 694 724 697 l 607 689 l 535 682 q 524 667 531 682 q 515 653 519 657 q 510 638 511 650 l 507 590 q 511 567 506 572 q 532 561 517 561 l 656 561 q 779 553 708 561 l 793 553 q 825 522 819 553 l 828 385 l 828 381 q 781 353 828 356 q 743 347 768 349 q 667 346 718 346 q 599 346 615 346 q 576 347 583 346 q 539 347 547 347 q 528 346 531 347 q 509 340 514 343 q 504 322 504 336 q 503 268 504 307 q 501 253 501 263 q 500 214 500 244 q 631 215 583 214 q 704 218 678 217 q 777 220 744 219 q 836 221 810 221 q 847 211 840 221 q 863 161 853 201 q 886 51 872 121 q 889 31 889 44 q 863 1 889 1 q 764 -3 818 1 q 737 -4 754 -4 q 665 -4 719 -4 q 558 -4 617 -4 q 449 -5 499 -4 q 375 -6 400 -6 m 246 1024 l 242 1018 l 142 1018 q 130 1025 133 1018 q 126 1042 126 1032 l 126 1049 q 128 1057 126 1056 q 142 1078 135 1068 q 157 1096 149 1088 q 204 1168 193 1143 l 240 1213 q 268 1247 247 1226 q 300 1279 288 1265 l 304 1290 l 356 1321 l 496 1321 q 501 1318 499 1319 q 510 1317 504 1317 l 532 1317 l 569 1314 l 593 1299 l 697 1142 l 724 1106 q 742 1080 733 1092 q 760 1057 751 1068 l 763 1049 l 763 1042 q 744 1018 763 1018 l 592 1018 q 575 1032 582 1018 l 539 1065 q 490 1108 514 1089 q 444 1149 465 1128 q 403 1113 428 1135 q 358 1072 378 1090 q 335 1049 339 1053 q 296 1018 307 1018 l 250 1018 l 246 1024 m 711 1225 q 684 1240 690 1225 q 678 1276 678 1254 q 684 1332 678 1306 q 725 1383 690 1358 q 752 1391 732 1388 q 778 1397 772 1394 q 808 1415 797 1408 q 818 1431 818 1421 q 797 1447 818 1442 q 722 1453 775 1453 q 672 1451 693 1453 q 636 1447 650 1450 q 610 1443 614 1443 q 599 1456 599 1443 q 601 1502 599 1479 q 606 1549 603 1525 q 608 1556 607 1553 q 610 1565 608 1560 q 618 1583 610 1576 q 628 1587 622 1586 q 635 1588 633 1588 q 724 1596 681 1594 q 764 1597 744 1597 q 803 1597 783 1597 q 892 1587 847 1597 q 967 1567 938 1576 q 996 1549 986 1558 q 1018 1521 1006 1539 q 1033 1501 1025 1511 q 1042 1476 1042 1492 q 1033 1420 1042 1450 q 995 1364 1024 1390 q 908 1319 967 1338 q 867 1301 882 1313 q 842 1283 851 1290 q 828 1275 833 1275 q 822 1276 822 1275 l 821 1242 q 808 1225 821 1225 l 800 1225 l 789 1226 l 763 1226 q 742 1225 756 1225 q 711 1225 728 1225 z "},"Ễ":{"ha":896,"x_min":42,"x_max":889,"o":"m 375 -6 l 156 -6 q 135 -4 140 -6 q 119 -2 128 -3 q 101 0 111 -1 l 72 7 q 61 11 65 7 q 61 14 61 14 q 57 108 61 50 q 55 146 57 131 q 51 174 53 161 l 49 232 q 48 260 47 244 q 47 294 49 275 l 44 336 q 44 383 43 363 q 43 418 44 404 q 42 435 43 425 q 42 470 42 446 q 42 542 42 494 q 44 755 42 674 q 51 897 46 836 q 86 922 51 911 q 119 924 100 924 q 154 925 138 925 q 252 926 211 925 q 319 929 293 926 q 463 931 401 931 q 567 932 524 932 l 628 932 q 729 929 686 932 q 803 924 772 926 q 835 872 824 924 q 839 856 838 867 q 844 821 840 844 q 850 774 847 790 q 856 742 853 757 q 857 726 857 739 q 856 715 856 725 q 840 703 854 703 q 825 704 838 704 q 759 701 794 704 q 679 694 724 697 l 607 689 l 535 682 q 524 667 531 682 q 515 653 519 657 q 510 638 511 650 l 507 590 q 511 567 506 572 q 532 561 517 561 l 656 561 q 779 553 708 561 l 793 553 q 825 522 819 553 l 828 385 l 828 381 q 781 353 828 356 q 743 347 768 349 q 667 346 718 346 q 599 346 615 346 q 576 347 583 346 q 539 347 547 347 q 528 346 531 347 q 509 340 514 343 q 504 322 504 336 q 503 268 504 307 q 501 253 501 263 q 500 214 500 244 q 631 215 583 214 q 704 218 678 217 q 777 220 744 219 q 836 221 810 221 q 847 211 840 221 q 863 161 853 201 q 886 51 872 121 q 889 31 889 44 q 863 1 889 1 q 764 -3 818 1 q 737 -4 754 -4 q 665 -4 719 -4 q 558 -4 617 -4 q 449 -5 499 -4 q 375 -6 400 -6 m 246 1024 l 242 1018 l 142 1018 q 130 1025 133 1018 q 126 1042 126 1032 l 126 1049 q 128 1057 126 1056 q 142 1078 135 1068 q 157 1096 149 1088 q 204 1168 193 1143 l 240 1213 q 268 1247 247 1226 q 300 1279 288 1265 l 304 1290 l 356 1321 l 496 1321 q 501 1318 499 1319 q 510 1317 504 1317 l 532 1317 l 569 1314 l 593 1299 l 697 1142 l 724 1106 q 742 1080 733 1092 q 760 1057 751 1068 l 763 1049 l 763 1042 q 744 1018 763 1018 l 592 1018 q 575 1032 582 1018 l 539 1065 q 490 1108 514 1089 q 444 1149 465 1128 q 403 1113 428 1135 q 358 1072 378 1090 q 335 1049 339 1053 q 296 1018 307 1018 l 250 1018 l 246 1024 m 544 1668 q 558 1685 544 1683 q 579 1686 571 1686 l 732 1692 q 742 1682 738 1686 q 750 1672 747 1678 q 765 1633 761 1654 q 771 1583 769 1611 l 772 1542 q 769 1510 772 1524 q 758 1485 765 1496 q 679 1397 732 1432 q 627 1374 654 1382 q 563 1365 600 1365 q 503 1374 531 1365 q 451 1397 476 1382 q 447 1402 450 1399 q 436 1410 443 1406 q 422 1419 428 1414 q 413 1429 417 1424 q 347 1486 381 1471 q 311 1494 326 1494 q 290 1475 297 1494 q 283 1440 283 1456 q 281 1419 283 1433 q 276 1397 279 1404 q 271 1397 274 1392 q 161 1403 179 1397 q 131 1421 132 1411 q 124 1438 125 1426 q 122 1447 122 1440 q 119 1454 119 1450 q 117 1463 118 1458 q 122 1526 117 1489 q 140 1601 126 1564 q 181 1663 154 1639 q 332 1704 226 1704 q 348 1701 339 1704 q 369 1694 357 1699 q 390 1687 382 1689 q 401 1683 397 1685 q 445 1665 429 1678 q 467 1636 461 1651 q 470 1627 468 1632 q 478 1619 472 1622 q 487 1612 483 1617 q 494 1600 490 1607 q 533 1575 511 1575 q 564 1600 564 1575 q 562 1620 564 1608 q 554 1644 560 1632 l 554 1646 l 544 1668 z "},"Ȅ":{"ha":896,"x_min":38,"x_max":889,"o":"m 375 -6 l 156 -6 q 135 -4 140 -6 q 119 -2 128 -3 q 101 0 111 -1 l 72 7 q 61 11 65 7 q 61 14 61 14 q 57 108 61 50 q 55 146 57 131 q 51 174 53 161 l 49 232 q 48 260 47 244 q 47 294 49 275 l 44 336 q 44 383 43 363 q 43 418 44 404 q 42 435 43 425 q 42 470 42 446 q 42 542 42 494 q 44 755 42 674 q 51 897 46 836 q 86 922 51 911 q 119 924 100 924 q 154 925 138 925 q 252 926 211 925 q 319 929 293 926 q 463 931 401 931 q 567 932 524 932 l 628 932 q 729 929 686 932 q 803 924 772 926 q 835 872 824 924 q 839 856 838 867 q 844 821 840 844 q 850 774 847 790 q 856 742 853 757 q 857 726 857 739 q 856 715 856 725 q 840 703 854 703 q 825 704 838 704 q 759 701 794 704 q 679 694 724 697 l 607 689 l 535 682 q 524 667 531 682 q 515 653 519 657 q 510 638 511 650 l 507 590 q 511 567 506 572 q 532 561 517 561 l 656 561 q 779 553 708 561 l 793 553 q 825 522 819 553 l 828 385 l 828 381 q 781 353 828 356 q 743 347 768 349 q 667 346 718 346 q 599 346 615 346 q 576 347 583 346 q 539 347 547 347 q 528 346 531 347 q 509 340 514 343 q 504 322 504 336 q 503 268 504 307 q 501 253 501 263 q 500 214 500 244 q 631 215 583 214 q 704 218 678 217 q 777 220 744 219 q 836 221 810 221 q 847 211 840 221 q 863 161 853 201 q 886 51 872 121 q 889 31 889 44 q 863 1 889 1 q 764 -3 818 1 q 737 -4 754 -4 q 665 -4 719 -4 q 558 -4 617 -4 q 449 -5 499 -4 q 375 -6 400 -6 m 599 1014 l 574 1017 l 547 1017 q 531 1040 538 1017 q 514 1096 525 1061 q 493 1163 503 1131 q 479 1207 483 1194 q 473 1222 476 1213 q 465 1243 469 1231 q 463 1252 464 1247 q 458 1263 461 1257 q 450 1294 454 1276 q 444 1315 446 1311 q 440 1326 442 1321 q 438 1333 439 1331 q 436 1340 436 1336 q 435 1346 436 1344 q 434 1351 433 1349 q 435 1356 435 1353 q 449 1371 435 1367 q 465 1374 454 1372 q 489 1378 475 1376 l 494 1378 q 499 1375 494 1375 l 510 1379 l 547 1378 l 554 1379 q 557 1380 556 1379 q 560 1381 558 1381 l 564 1381 l 578 1379 q 592 1376 589 1379 l 603 1379 q 627 1373 619 1375 q 644 1369 635 1371 q 674 1365 654 1368 l 719 1357 l 726 1349 q 735 1288 732 1328 q 739 1202 738 1247 q 740 1117 740 1157 q 739 1056 740 1076 q 726 1026 735 1035 q 701 1017 717 1018 l 640 1011 l 615 1013 l 610 1017 l 599 1014 m 267 1021 l 215 1021 q 193 1042 206 1021 q 173 1078 181 1064 q 157 1110 165 1092 q 133 1164 149 1129 q 123 1181 128 1172 q 114 1197 118 1189 l 97 1232 q 87 1252 93 1240 q 75 1271 81 1264 q 42 1331 61 1289 q 38 1343 38 1339 q 47 1357 38 1351 q 85 1368 58 1363 l 89 1368 q 93 1367 90 1367 l 94 1367 l 104 1371 l 125 1374 l 135 1375 q 139 1376 138 1375 q 142 1378 140 1378 l 156 1378 q 171 1375 165 1378 l 181 1379 l 261 1375 l 321 1365 l 333 1357 q 369 1257 360 1310 q 389 1161 379 1204 q 401 1109 392 1133 q 410 1063 410 1085 q 405 1032 410 1043 q 385 1021 400 1021 l 282 1021 l 276 1025 l 267 1021 z "},"Ë":{"ha":896,"x_min":42,"x_max":889,"o":"m 375 -6 l 156 -6 q 135 -4 140 -6 q 119 -2 128 -3 q 101 0 111 -1 l 72 7 q 61 11 65 7 q 61 14 61 14 q 57 108 61 50 q 55 146 57 131 q 51 174 53 161 l 49 232 q 48 260 47 244 q 47 294 49 275 l 44 336 q 44 383 43 363 q 43 418 44 404 q 42 435 43 425 q 42 470 42 446 q 42 542 42 494 q 44 755 42 674 q 51 897 46 836 q 86 922 51 911 q 119 924 100 924 q 154 925 138 925 q 252 926 211 925 q 319 929 293 926 q 463 931 401 931 q 567 932 524 932 l 628 932 q 729 929 686 932 q 803 924 772 926 q 835 872 824 924 q 839 856 838 867 q 844 821 840 844 q 850 774 847 790 q 856 742 853 757 q 857 726 857 739 q 856 715 856 725 q 840 703 854 703 q 825 704 838 704 q 759 701 794 704 q 679 694 724 697 l 607 689 l 535 682 q 524 667 531 682 q 515 653 519 657 q 510 638 511 650 l 507 590 q 511 567 506 572 q 532 561 517 561 l 656 561 q 779 553 708 561 l 793 553 q 825 522 819 553 l 828 385 l 828 381 q 781 353 828 356 q 743 347 768 349 q 667 346 718 346 q 599 346 615 346 q 576 347 583 346 q 539 347 547 347 q 528 346 531 347 q 509 340 514 343 q 504 322 504 336 q 503 268 504 307 q 501 253 501 263 q 500 214 500 244 q 631 215 583 214 q 704 218 678 217 q 777 220 744 219 q 836 221 810 221 q 847 211 840 221 q 863 161 853 201 q 886 51 872 121 q 889 31 889 44 q 863 1 889 1 q 764 -3 818 1 q 737 -4 754 -4 q 665 -4 719 -4 q 558 -4 617 -4 q 449 -5 499 -4 q 375 -6 400 -6 m 89 1042 l 81 1050 l 71 1094 l 71 1135 l 69 1163 l 68 1171 q 74 1189 68 1183 l 78 1232 l 78 1236 l 76 1243 q 83 1260 79 1251 q 92 1275 86 1268 q 117 1282 99 1282 l 261 1282 q 294 1285 283 1285 q 310 1286 304 1286 q 324 1286 321 1286 q 328 1285 326 1286 q 336 1283 335 1285 q 346 1282 339 1282 l 356 1282 q 361 1283 360 1282 q 365 1285 363 1285 l 369 1285 q 386 1250 386 1285 l 386 1222 q 384 1208 385 1214 q 383 1194 383 1201 q 384 1192 383 1193 q 386 1185 385 1190 l 386 1111 q 388 1104 388 1108 q 388 1079 388 1100 q 365 1042 388 1044 l 89 1042 m 594 1042 l 513 1050 l 504 1094 l 504 1135 q 500 1171 504 1157 l 500 1178 q 499 1189 499 1179 l 499 1208 q 497 1218 497 1213 q 497 1246 497 1224 q 499 1249 497 1247 q 497 1251 499 1250 l 497 1257 q 501 1261 499 1258 q 506 1268 503 1264 q 515 1278 510 1276 q 550 1282 531 1282 l 694 1282 q 728 1285 718 1285 q 742 1286 738 1286 q 757 1286 754 1286 q 761 1285 760 1286 q 768 1283 767 1285 q 779 1282 771 1282 l 789 1282 q 794 1283 793 1282 q 799 1285 796 1285 l 803 1285 q 818 1250 818 1285 l 818 1232 l 817 1194 l 817 1190 q 818 1185 817 1186 l 818 1140 l 817 1125 l 817 1111 q 818 1097 817 1099 q 820 1088 819 1092 q 821 1079 821 1083 q 799 1042 821 1043 l 594 1042 z "},"Ė":{"ha":896,"x_min":42,"x_max":889,"o":"m 375 -6 l 156 -6 q 135 -4 140 -6 q 119 -2 128 -3 q 101 0 111 -1 l 72 7 q 61 11 65 7 q 61 14 61 14 q 57 108 61 50 q 55 146 57 131 q 51 174 53 161 l 49 232 q 48 260 47 244 q 47 294 49 275 l 44 336 q 44 383 43 363 q 43 418 44 404 q 42 435 43 425 q 42 470 42 446 q 42 542 42 494 q 44 755 42 674 q 51 897 46 836 q 86 922 51 911 q 119 924 100 924 q 154 925 138 925 q 252 926 211 925 q 319 929 293 926 q 463 931 401 931 q 567 932 524 932 l 628 932 q 729 929 686 932 q 803 924 772 926 q 835 872 824 924 q 839 856 838 867 q 844 821 840 844 q 850 774 847 790 q 856 742 853 757 q 857 726 857 739 q 856 715 856 725 q 840 703 854 703 q 825 704 838 704 q 759 701 794 704 q 679 694 724 697 l 607 689 l 535 682 q 524 667 531 682 q 515 653 519 657 q 510 638 511 650 l 507 590 q 511 567 506 572 q 532 561 517 561 l 656 561 q 779 553 708 561 l 793 553 q 825 522 819 553 l 828 385 l 828 381 q 781 353 828 356 q 743 347 768 349 q 667 346 718 346 q 599 346 615 346 q 576 347 583 346 q 539 347 547 347 q 528 346 531 347 q 509 340 514 343 q 504 322 504 336 q 503 268 504 307 q 501 253 501 263 q 500 214 500 244 q 631 215 583 214 q 704 218 678 217 q 777 220 744 219 q 836 221 810 221 q 847 211 840 221 q 863 161 853 201 q 886 51 872 121 q 889 31 889 44 q 863 1 889 1 q 764 -3 818 1 q 737 -4 754 -4 q 665 -4 719 -4 q 558 -4 617 -4 q 449 -5 499 -4 q 375 -6 400 -6 m 476 1014 l 442 1014 q 418 1015 422 1014 q 405 1017 411 1017 q 393 1018 399 1018 l 275 1028 l 265 1038 q 263 1067 264 1049 q 263 1104 263 1086 q 268 1219 263 1181 q 269 1244 268 1231 q 271 1274 269 1257 l 272 1314 q 311 1335 275 1335 q 342 1335 329 1335 q 363 1333 356 1335 q 388 1332 383 1333 q 401 1331 394 1331 q 414 1331 407 1331 q 430 1331 421 1331 q 450 1333 439 1332 l 569 1333 q 589 1335 572 1335 q 625 1317 625 1335 l 625 1314 q 623 1302 624 1307 q 622 1292 622 1297 l 622 1258 q 624 1243 622 1247 l 624 1065 q 622 1062 622 1064 q 621 1058 622 1060 q 619 1054 619 1057 q 618 1049 619 1051 q 603 1028 614 1035 q 596 1026 597 1028 q 583 1025 593 1025 q 581 1028 581 1025 l 574 1028 l 564 1024 l 532 1021 q 526 1019 528 1021 q 521 1018 525 1018 l 511 1015 q 507 1016 510 1015 q 499 1018 504 1017 q 493 1019 494 1018 q 488 1021 492 1021 q 485 1018 485 1021 l 476 1014 z "},"Ẹ":{"ha":896,"x_min":42,"x_max":889,"o":"m 375 -6 l 156 -6 q 135 -4 140 -6 q 119 -2 128 -3 q 101 0 111 -1 l 72 7 q 61 11 65 7 q 61 14 61 14 q 57 108 61 50 q 55 146 57 131 q 51 174 53 161 l 49 232 q 48 260 47 244 q 47 294 49 275 l 44 336 q 44 383 43 363 q 43 418 44 404 q 42 435 43 425 q 42 470 42 446 q 42 542 42 494 q 44 755 42 674 q 51 897 46 836 q 86 922 51 911 q 119 924 100 924 q 154 925 138 925 q 252 926 211 925 q 319 929 293 926 q 463 931 401 931 q 567 932 524 932 l 628 932 q 729 929 686 932 q 803 924 772 926 q 835 872 824 924 q 839 856 838 867 q 844 821 840 844 q 850 774 847 790 q 856 742 853 757 q 857 726 857 739 q 856 715 856 725 q 840 703 854 703 q 825 704 838 704 q 759 701 794 704 q 679 694 724 697 l 607 689 l 535 682 q 524 667 531 682 q 515 653 519 657 q 510 638 511 650 l 507 590 q 511 567 506 572 q 532 561 517 561 l 656 561 q 779 553 708 561 l 793 553 q 825 522 819 553 l 828 385 l 828 381 q 781 353 828 356 q 743 347 768 349 q 667 346 718 346 q 599 346 615 346 q 576 347 583 346 q 539 347 547 347 q 528 346 531 347 q 509 340 514 343 q 504 322 504 336 q 503 268 504 307 q 501 253 501 263 q 500 214 500 244 q 631 215 583 214 q 704 218 678 217 q 777 220 744 219 q 836 221 810 221 q 847 211 840 221 q 863 161 853 201 q 886 51 872 121 q 889 31 889 44 q 863 1 889 1 q 764 -3 818 1 q 737 -4 754 -4 q 665 -4 719 -4 q 558 -4 617 -4 q 449 -5 499 -4 q 375 -6 400 -6 m 474 -412 l 442 -412 q 421 -411 425 -412 q 409 -410 415 -410 q 399 -410 403 -410 l 292 -400 l 283 -392 q 281 -365 282 -381 q 281 -332 281 -349 q 286 -228 281 -262 q 287 -206 286 -218 q 289 -179 288 -193 l 289 -143 q 325 -124 292 -124 q 353 -124 340 -124 q 371 -125 365 -124 q 393 -126 389 -125 q 406 -128 400 -128 q 417 -128 411 -128 q 432 -127 424 -128 q 450 -125 440 -126 l 557 -125 q 563 -124 560 -125 q 575 -124 565 -124 q 607 -140 607 -124 l 607 -143 q 605 -154 606 -150 q 604 -162 604 -158 l 604 -193 q 606 -207 604 -203 l 606 -367 q 603 -372 603 -372 q 601 -382 601 -375 q 588 -400 599 -392 q 583 -401 585 -400 q 581 -401 582 -401 q 569 -403 578 -403 q 567 -400 567 -403 l 561 -400 l 551 -404 l 524 -407 q 518 -408 519 -407 q 517 -409 517 -408 q 514 -410 517 -410 l 504 -411 q 501 -410 503 -411 q 493 -410 499 -410 q 490 -409 492 -410 q 489 -408 489 -408 q 483 -407 488 -407 q 481 -410 481 -407 l 474 -412 z "},"È":{"ha":896,"x_min":42,"x_max":889,"o":"m 375 -6 l 156 -6 q 135 -4 140 -6 q 119 -2 128 -3 q 101 0 111 -1 l 72 7 q 61 11 65 7 q 61 14 61 14 q 57 108 61 50 q 55 146 57 131 q 51 174 53 161 l 49 232 q 48 260 47 244 q 47 294 49 275 l 44 336 q 44 383 43 363 q 43 418 44 404 q 42 435 43 425 q 42 470 42 446 q 42 542 42 494 q 44 755 42 674 q 51 897 46 836 q 86 922 51 911 q 119 924 100 924 q 154 925 138 925 q 252 926 211 925 q 319 929 293 926 q 463 931 401 931 q 567 932 524 932 l 628 932 q 729 929 686 932 q 803 924 772 926 q 835 872 824 924 q 839 856 838 867 q 844 821 840 844 q 850 774 847 790 q 856 742 853 757 q 857 726 857 739 q 856 715 856 725 q 840 703 854 703 q 825 704 838 704 q 759 701 794 704 q 679 694 724 697 l 607 689 l 535 682 q 524 667 531 682 q 515 653 519 657 q 510 638 511 650 l 507 590 q 511 567 506 572 q 532 561 517 561 l 656 561 q 779 553 708 561 l 793 553 q 825 522 819 553 l 828 385 l 828 381 q 781 353 828 356 q 743 347 768 349 q 667 346 718 346 q 599 346 615 346 q 576 347 583 346 q 539 347 547 347 q 528 346 531 347 q 509 340 514 343 q 504 322 504 336 q 503 268 504 307 q 501 253 501 263 q 500 214 500 244 q 631 215 583 214 q 704 218 678 217 q 777 220 744 219 q 836 221 810 221 q 847 211 840 221 q 863 161 853 201 q 886 51 872 121 q 889 31 889 44 q 863 1 889 1 q 764 -3 818 1 q 737 -4 754 -4 q 665 -4 719 -4 q 558 -4 617 -4 q 449 -5 499 -4 q 375 -6 400 -6 m 432 1018 l 381 1018 q 370 1022 375 1018 q 357 1039 365 1026 q 342 1063 349 1053 q 323 1091 335 1074 q 286 1142 311 1108 l 268 1175 q 260 1189 265 1181 q 247 1210 254 1197 q 219 1258 229 1240 q 206 1282 208 1276 q 197 1299 200 1292 q 192 1308 193 1306 q 188 1322 188 1317 q 196 1335 188 1331 q 233 1346 204 1340 l 240 1346 q 243 1344 240 1344 l 254 1349 l 313 1351 l 321 1353 q 326 1354 325 1353 q 331 1356 328 1356 l 344 1356 q 358 1353 353 1356 l 367 1357 l 449 1353 l 508 1343 l 519 1335 q 547 1238 533 1286 q 578 1132 561 1189 q 584 1102 579 1121 q 589 1060 589 1083 q 563 1018 589 1018 l 447 1018 l 443 1022 l 432 1018 z "},"Ẻ":{"ha":896,"x_min":42,"x_max":889,"o":"m 375 -6 l 156 -6 q 135 -4 140 -6 q 119 -2 128 -3 q 101 0 111 -1 l 72 7 q 61 11 65 7 q 61 14 61 14 q 57 108 61 50 q 55 146 57 131 q 51 174 53 161 l 49 232 q 48 260 47 244 q 47 294 49 275 l 44 336 q 44 383 43 363 q 43 418 44 404 q 42 435 43 425 q 42 470 42 446 q 42 542 42 494 q 44 755 42 674 q 51 897 46 836 q 86 922 51 911 q 119 924 100 924 q 154 925 138 925 q 252 926 211 925 q 319 929 293 926 q 463 931 401 931 q 567 932 524 932 l 628 932 q 729 929 686 932 q 803 924 772 926 q 835 872 824 924 q 839 856 838 867 q 844 821 840 844 q 850 774 847 790 q 856 742 853 757 q 857 726 857 739 q 856 715 856 725 q 840 703 854 703 q 825 704 838 704 q 759 701 794 704 q 679 694 724 697 l 607 689 l 535 682 q 524 667 531 682 q 515 653 519 657 q 510 638 511 650 l 507 590 q 511 567 506 572 q 532 561 517 561 l 656 561 q 779 553 708 561 l 793 553 q 825 522 819 553 l 828 385 l 828 381 q 781 353 828 356 q 743 347 768 349 q 667 346 718 346 q 599 346 615 346 q 576 347 583 346 q 539 347 547 347 q 528 346 531 347 q 509 340 514 343 q 504 322 504 336 q 503 268 504 307 q 501 253 501 263 q 500 214 500 244 q 631 215 583 214 q 704 218 678 217 q 777 220 744 219 q 836 221 810 221 q 847 211 840 221 q 863 161 853 201 q 886 51 872 121 q 889 31 889 44 q 863 1 889 1 q 764 -3 818 1 q 737 -4 754 -4 q 665 -4 719 -4 q 558 -4 617 -4 q 449 -5 499 -4 q 375 -6 400 -6 m 360 1035 q 326 1054 333 1035 q 318 1107 318 1074 q 326 1183 318 1147 q 379 1256 333 1219 q 412 1265 386 1260 q 446 1274 438 1269 q 483 1299 471 1290 q 496 1319 496 1307 q 469 1343 496 1335 q 374 1351 442 1351 q 310 1349 338 1351 q 265 1343 283 1346 q 242 1338 251 1340 q 232 1336 233 1336 q 218 1356 218 1336 q 226 1483 218 1418 q 230 1494 229 1489 q 232 1507 231 1500 q 243 1532 232 1524 q 256 1538 249 1538 q 264 1539 264 1539 q 321 1545 293 1542 q 375 1550 349 1549 q 426 1551 401 1550 q 475 1553 451 1553 q 589 1538 532 1553 q 683 1508 646 1522 q 721 1483 710 1497 q 747 1444 732 1469 q 769 1417 758 1431 q 779 1383 779 1404 q 767 1305 779 1346 q 719 1227 756 1264 q 608 1167 683 1190 q 556 1140 575 1156 q 525 1117 538 1125 q 507 1103 514 1104 q 500 1107 500 1103 l 499 1058 q 483 1035 499 1035 l 472 1035 l 458 1036 l 425 1036 q 399 1035 417 1035 q 360 1035 382 1035 z "},"Ȇ":{"ha":896,"x_min":42,"x_max":889,"o":"m 375 -6 l 156 -6 q 135 -4 140 -6 q 119 -2 128 -3 q 101 0 111 -1 l 72 7 q 61 11 65 7 q 61 14 61 14 q 57 108 61 50 q 55 146 57 131 q 51 174 53 161 l 49 232 q 48 260 47 244 q 47 294 49 275 l 44 336 q 44 383 43 363 q 43 418 44 404 q 42 435 43 425 q 42 470 42 446 q 42 542 42 494 q 44 755 42 674 q 51 897 46 836 q 86 922 51 911 q 119 924 100 924 q 154 925 138 925 q 252 926 211 925 q 319 929 293 926 q 463 931 401 931 q 567 932 524 932 l 628 932 q 729 929 686 932 q 803 924 772 926 q 835 872 824 924 q 839 856 838 867 q 844 821 840 844 q 850 774 847 790 q 856 742 853 757 q 857 726 857 739 q 856 715 856 725 q 840 703 854 703 q 825 704 838 704 q 759 701 794 704 q 679 694 724 697 l 607 689 l 535 682 q 524 667 531 682 q 515 653 519 657 q 510 638 511 650 l 507 590 q 511 567 506 572 q 532 561 517 561 l 656 561 q 779 553 708 561 l 793 553 q 825 522 819 553 l 828 385 l 828 381 q 781 353 828 356 q 743 347 768 349 q 667 346 718 346 q 599 346 615 346 q 576 347 583 346 q 539 347 547 347 q 528 346 531 347 q 509 340 514 343 q 504 322 504 336 q 503 268 504 307 q 501 253 501 263 q 500 214 500 244 q 631 215 583 214 q 704 218 678 217 q 777 220 744 219 q 836 221 810 221 q 847 211 840 221 q 863 161 853 201 q 886 51 872 121 q 889 31 889 44 q 863 1 889 1 q 764 -3 818 1 q 737 -4 754 -4 q 665 -4 719 -4 q 558 -4 617 -4 q 449 -5 499 -4 q 375 -6 400 -6 m 463 1375 q 671 1306 578 1375 q 764 1132 764 1236 q 761 1081 764 1106 q 753 1033 758 1057 q 740 1024 750 1024 l 557 1025 q 548 1029 551 1025 q 546 1038 544 1033 q 550 1114 550 1083 l 549 1140 l 547 1142 q 546 1144 546 1143 q 544 1147 546 1146 q 506 1178 538 1165 q 435 1190 474 1190 q 367 1160 396 1190 q 339 1089 339 1131 q 338 1054 339 1071 q 339 1021 338 1038 q 331 1013 339 1013 l 136 1019 q 131 1024 133 1019 q 126 1063 122 1040 q 129 1111 129 1085 q 149 1197 129 1154 q 213 1289 169 1239 q 463 1375 286 1375 z "},"Ē":{"ha":896,"x_min":42,"x_max":889,"o":"m 375 -6 l 156 -6 q 135 -4 140 -6 q 119 -2 128 -3 q 101 0 111 -1 l 72 7 q 61 11 65 7 q 61 14 61 14 q 57 108 61 50 q 55 146 57 131 q 51 174 53 161 l 49 232 q 48 260 47 244 q 47 294 49 275 l 44 336 q 44 383 43 363 q 43 418 44 404 q 42 435 43 425 q 42 470 42 446 q 42 542 42 494 q 44 755 42 674 q 51 897 46 836 q 86 922 51 911 q 119 924 100 924 q 154 925 138 925 q 252 926 211 925 q 319 929 293 926 q 463 931 401 931 q 567 932 524 932 l 628 932 q 729 929 686 932 q 803 924 772 926 q 835 872 824 924 q 839 856 838 867 q 844 821 840 844 q 850 774 847 790 q 856 742 853 757 q 857 726 857 739 q 856 715 856 725 q 840 703 854 703 q 825 704 838 704 q 759 701 794 704 q 679 694 724 697 l 607 689 l 535 682 q 524 667 531 682 q 515 653 519 657 q 510 638 511 650 l 507 590 q 511 567 506 572 q 532 561 517 561 l 656 561 q 779 553 708 561 l 793 553 q 825 522 819 553 l 828 385 l 828 381 q 781 353 828 356 q 743 347 768 349 q 667 346 718 346 q 599 346 615 346 q 576 347 583 346 q 539 347 547 347 q 528 346 531 347 q 509 340 514 343 q 504 322 504 336 q 503 268 504 307 q 501 253 501 263 q 500 214 500 244 q 631 215 583 214 q 704 218 678 217 q 777 220 744 219 q 836 221 810 221 q 847 211 840 221 q 863 161 853 201 q 886 51 872 121 q 889 31 889 44 q 863 1 889 1 q 764 -3 818 1 q 737 -4 754 -4 q 665 -4 719 -4 q 558 -4 617 -4 q 449 -5 499 -4 q 375 -6 400 -6 m 703 1035 l 656 1035 q 640 1036 649 1036 q 619 1036 631 1036 l 589 1038 l 554 1038 l 540 1039 l 496 1039 q 478 1039 485 1036 q 463 1041 471 1040 q 443 1042 454 1042 l 221 1042 q 163 1056 176 1042 q 153 1076 153 1061 l 153 1208 q 151 1227 151 1215 q 151 1257 151 1239 q 163 1279 151 1271 q 171 1286 164 1281 q 186 1292 178 1292 l 369 1292 q 397 1291 379 1292 q 443 1289 415 1290 l 499 1288 q 578 1285 547 1286 q 624 1285 610 1285 l 656 1285 q 708 1278 683 1285 q 732 1250 732 1271 q 732 1232 732 1240 q 733 1217 732 1224 q 735 1204 735 1210 q 735 1194 735 1199 l 735 1181 q 735 1161 735 1171 q 736 1143 735 1151 l 736 1111 q 731 1063 736 1079 q 703 1035 726 1035 z "},"Ę":{"ha":896,"x_min":42,"x_max":890,"o":"m 375 -6 l 156 -6 q 135 -4 140 -6 q 119 -2 128 -3 q 101 0 111 -1 l 72 7 q 61 11 65 7 q 61 14 61 14 q 57 108 61 50 q 55 146 57 131 q 51 174 53 161 l 49 232 q 48 260 47 244 q 47 294 49 275 l 44 336 q 44 383 43 363 q 43 418 44 404 q 42 435 43 425 q 42 470 42 446 q 42 542 42 494 q 44 755 42 674 q 51 897 46 836 q 86 922 51 911 q 119 924 100 924 q 154 925 138 925 q 252 926 211 925 q 319 929 293 926 q 463 931 401 931 q 567 932 524 932 l 628 932 q 729 929 686 932 q 803 924 772 926 q 835 872 824 924 q 839 856 838 867 q 844 821 840 844 q 850 774 847 790 q 856 742 853 757 q 857 726 857 739 q 856 715 856 725 q 840 703 854 703 q 825 704 838 704 q 759 701 794 704 q 679 694 724 697 l 607 689 l 535 682 q 524 667 531 682 q 515 653 519 657 q 510 638 511 650 l 507 590 q 511 567 506 572 q 532 561 517 561 l 656 561 q 779 553 708 561 l 793 553 q 825 522 819 553 l 828 385 l 828 381 q 781 353 828 356 q 743 347 768 349 q 667 346 718 346 q 599 346 615 346 q 576 347 583 346 q 539 347 547 347 q 528 346 531 347 q 509 340 514 343 q 504 322 504 336 q 503 268 504 307 q 501 253 501 263 q 500 214 500 244 q 631 215 583 214 q 704 218 678 217 q 777 220 744 219 q 836 221 810 221 q 847 211 840 221 q 863 161 853 201 q 886 51 872 121 q 889 31 889 44 q 863 1 889 1 q 764 -3 818 1 q 737 -4 754 -4 q 665 -4 719 -4 q 558 -4 617 -4 q 449 -5 499 -4 q 375 -6 400 -6 m 738 -394 l 724 -397 q 492 -365 575 -397 q 393 -285 417 -339 q 386 -240 386 -264 q 406 -142 386 -178 q 483 -68 425 -107 q 495 -58 489 -62 q 510 -49 501 -54 q 523 -41 517 -44 q 532 -36 529 -37 l 643 0 q 647 1 646 0 q 649 3 649 1 q 651 6 650 6 l 678 6 l 710 4 q 811 0 774 4 l 753 -60 q 689 -139 717 -90 q 671 -189 671 -171 q 679 -219 671 -210 q 703 -233 688 -229 q 715 -237 706 -235 q 732 -237 724 -240 q 744 -236 738 -236 q 760 -236 750 -236 q 881 -212 814 -236 q 890 -226 890 -217 l 890 -233 l 867 -347 q 855 -359 865 -353 q 831 -372 844 -365 q 793 -384 810 -379 q 765 -390 776 -389 q 756 -392 760 -392 q 749 -393 751 -393 q 738 -394 740 -393 z "},"Ẽ":{"ha":896,"x_min":42,"x_max":889,"o":"m 375 -6 l 156 -6 q 135 -4 140 -6 q 119 -2 128 -3 q 101 0 111 -1 l 72 7 q 61 11 65 7 q 61 14 61 14 q 57 108 61 50 q 55 146 57 131 q 51 174 53 161 l 49 232 q 48 260 47 244 q 47 294 49 275 l 44 336 q 44 383 43 363 q 43 418 44 404 q 42 435 43 425 q 42 470 42 446 q 42 542 42 494 q 44 755 42 674 q 51 897 46 836 q 86 922 51 911 q 119 924 100 924 q 154 925 138 925 q 252 926 211 925 q 319 929 293 926 q 463 931 401 931 q 567 932 524 932 l 628 932 q 729 929 686 932 q 803 924 772 926 q 835 872 824 924 q 839 856 838 867 q 844 821 840 844 q 850 774 847 790 q 856 742 853 757 q 857 726 857 739 q 856 715 856 725 q 840 703 854 703 q 825 704 838 704 q 759 701 794 704 q 679 694 724 697 l 607 689 l 535 682 q 524 667 531 682 q 515 653 519 657 q 510 638 511 650 l 507 590 q 511 567 506 572 q 532 561 517 561 l 656 561 q 779 553 708 561 l 793 553 q 825 522 819 553 l 828 385 l 828 381 q 781 353 828 356 q 743 347 768 349 q 667 346 718 346 q 599 346 615 346 q 576 347 583 346 q 539 347 547 347 q 528 346 531 347 q 509 340 514 343 q 504 322 504 336 q 503 268 504 307 q 501 253 501 263 q 500 214 500 244 q 631 215 583 214 q 704 218 678 217 q 777 220 744 219 q 836 221 810 221 q 847 211 840 221 q 863 161 853 201 q 886 51 872 121 q 889 31 889 44 q 863 1 889 1 q 764 -3 818 1 q 737 -4 754 -4 q 665 -4 719 -4 q 558 -4 617 -4 q 449 -5 499 -4 q 375 -6 400 -6 m 544 1311 q 558 1328 544 1326 q 579 1329 571 1329 l 732 1335 q 742 1325 738 1329 q 750 1315 747 1321 q 765 1276 761 1297 q 771 1226 769 1254 l 772 1185 q 769 1153 772 1167 q 758 1128 765 1139 q 679 1040 732 1075 q 627 1017 654 1025 q 563 1008 600 1008 q 503 1017 531 1008 q 451 1040 476 1025 q 447 1045 450 1042 q 436 1053 443 1049 q 422 1062 428 1057 q 413 1072 417 1067 q 347 1129 381 1114 q 311 1138 326 1138 q 290 1118 297 1138 q 283 1083 283 1099 q 281 1062 283 1076 q 276 1040 279 1047 q 271 1040 274 1035 q 161 1046 179 1040 q 131 1064 132 1054 q 124 1081 125 1069 q 122 1090 122 1083 q 119 1097 119 1093 q 117 1106 118 1101 q 122 1169 117 1132 q 140 1244 126 1207 q 181 1306 154 1282 q 332 1347 226 1347 q 348 1344 339 1347 q 369 1338 357 1342 q 390 1330 382 1332 q 401 1326 397 1328 q 445 1308 429 1321 q 467 1279 461 1294 q 470 1270 468 1275 q 478 1263 472 1265 q 487 1255 483 1260 q 494 1243 490 1250 q 533 1218 511 1218 q 564 1243 564 1218 q 562 1263 564 1251 q 554 1288 560 1275 l 554 1289 l 544 1311 z "},"Ə":{"ha":1193,"x_min":64,"x_max":1131,"o":"m 686 -33 l 511 -29 q 272 21 374 -26 q 118 149 171 68 q 64 326 64 228 l 64 463 l 90 490 l 432 488 l 601 490 l 658 493 l 657 536 l 650 592 q 627 638 644 619 q 574 671 610 657 q 552 680 564 676 q 528 686 540 683 q 496 692 500 690 q 481 694 490 693 q 457 699 472 696 l 428 699 l 328 692 q 258 683 299 690 q 167 667 218 676 l 131 660 l 108 685 l 108 886 l 132 918 q 228 936 171 928 q 344 951 285 944 q 446 956 404 957 l 631 953 l 757 939 q 945 872 860 928 q 1081 729 1031 817 q 1129 539 1129 640 l 1131 424 q 1088 222 1131 319 q 968 58 1046 124 q 886 6 929 25 q 796 -19 843 -12 l 686 -33 m 597 101 q 624 119 614 101 q 640 163 635 138 l 649 214 l 657 263 q 662 300 660 282 q 664 335 664 318 l 533 325 q 550 174 535 251 q 597 101 564 101 z "},"F":{"ha":808,"x_min":42,"x_max":794,"o":"m 126 -12 l 103 -14 q 76 1 85 -14 q 65 34 67 15 q 63 64 63 53 l 63 93 q 60 144 61 117 q 58 192 58 171 q 53 295 56 253 q 49 363 51 338 q 46 413 49 386 q 42 449 43 439 l 42 907 q 51 922 42 921 l 60 922 l 64 921 q 117 922 88 921 q 185 925 146 924 q 276 927 233 926 q 353 928 318 928 l 367 928 q 390 926 372 926 l 428 926 q 465 926 449 926 q 492 925 482 926 l 628 925 q 660 923 640 924 q 708 922 679 922 q 725 921 721 922 q 737 919 731 919 q 750 918 743 918 q 760 922 756 918 q 792 865 789 922 q 794 853 793 860 q 794 840 794 846 q 793 822 794 836 q 792 794 792 807 q 791 767 792 783 q 790 726 790 750 q 775 711 790 713 q 744 710 760 710 l 665 710 l 626 708 q 585 704 614 704 q 553 706 554 704 q 547 703 547 703 q 543 701 546 701 q 542 696 543 697 q 540 689 540 694 q 538 656 540 683 q 534 593 536 628 q 532 529 532 558 l 531 526 q 536 514 531 519 l 694 514 q 731 494 724 514 q 736 415 736 479 l 736 303 q 715 282 731 282 q 705 281 710 282 q 694 279 700 281 l 638 276 l 611 276 q 583 274 592 276 l 557 269 l 539 269 q 511 264 517 269 q 506 260 510 263 q 499 250 501 257 q 497 149 499 190 q 496 85 496 108 q 492 32 494 54 q 483 -6 489 10 q 453 -6 471 -6 q 413 -8 436 -7 q 394 -9 401 -8 q 385 -11 388 -10 l 371 -11 q 363 -10 364 -11 q 357 -8 361 -8 l 353 -7 q 349 -6 353 -6 q 338 -11 343 -6 l 228 3 q 222 1 226 1 l 210 -3 l 126 -12 z "},"G":{"ha":1054,"x_min":28,"x_max":1019,"o":"m 1018 464 q 1019 453 1018 456 l 1019 214 q 1017 202 1018 208 q 1015 189 1015 196 l 1015 183 q 1013 57 1015 99 q 1003 0 1010 15 q 972 -1 986 0 q 947 -3 957 -1 l 918 -3 q 904 -3 904 -3 q 901 0 901 0 l 896 0 q 894 -3 894 -1 l 719 -3 q 708 -4 718 -4 q 699 4 701 -4 q 686 58 690 29 q 684 78 685 65 q 682 104 683 90 q 606 3 668 40 q 444 -33 544 -33 q 342 -21 390 -33 q 251 14 294 -8 q 92 171 157 56 q 28 481 28 286 q 70 678 28 592 q 186 828 113 765 q 370 918 256 886 q 611 950 485 950 q 685 947 643 950 q 788 935 728 943 q 821 931 799 935 l 863 924 q 903 916 886 919 q 931 913 921 913 l 935 910 q 940 903 936 907 q 951 894 947 894 l 954 894 l 957 869 q 958 849 957 860 q 960 826 958 838 q 965 774 963 794 q 967 736 967 753 q 936 650 967 674 l 783 678 l 764 678 q 722 681 742 678 q 674 681 701 683 q 672 680 672 681 q 671 679 672 679 q 538 637 586 679 q 489 475 489 594 q 499 336 489 381 q 524 271 508 292 q 567 235 539 249 q 624 221 594 221 q 646 228 640 221 q 674 254 651 236 q 673 274 674 265 q 671 304 672 283 l 669 331 q 668 382 668 346 q 668 447 668 418 l 668 481 q 672 499 668 494 q 686 503 676 503 q 711 501 690 501 l 856 501 q 909 501 888 501 q 939 503 931 501 q 970 503 958 503 q 988 501 982 503 q 1012 490 1006 499 q 1018 464 1018 481 z "},"Ğ":{"ha":1054,"x_min":28,"x_max":1019,"o":"m 1018 464 q 1019 453 1018 456 l 1019 214 q 1017 202 1018 208 q 1015 189 1015 196 l 1015 183 q 1013 57 1015 99 q 1003 0 1010 15 q 972 -1 986 0 q 947 -3 957 -1 l 918 -3 q 904 -3 904 -3 q 901 0 901 0 l 896 0 q 894 -3 894 -1 l 719 -3 q 708 -4 718 -4 q 699 4 701 -4 q 686 58 690 29 q 684 78 685 65 q 682 104 683 90 q 606 3 668 40 q 444 -33 544 -33 q 342 -21 390 -33 q 251 14 294 -8 q 92 171 157 56 q 28 481 28 286 q 70 678 28 592 q 186 828 113 765 q 370 918 256 886 q 611 950 485 950 q 685 947 643 950 q 788 935 728 943 q 821 931 799 935 l 863 924 q 903 916 886 919 q 931 913 921 913 l 935 910 q 940 903 936 907 q 951 894 947 894 l 954 894 l 957 869 q 958 849 957 860 q 960 826 958 838 q 965 774 963 794 q 967 736 967 753 q 936 650 967 674 l 783 678 l 764 678 q 722 681 742 678 q 674 681 701 683 q 672 680 672 681 q 671 679 672 679 q 538 637 586 679 q 489 475 489 594 q 499 336 489 381 q 524 271 508 292 q 567 235 539 249 q 624 221 594 221 q 646 228 640 221 q 674 254 651 236 q 673 274 674 265 q 671 304 672 283 l 669 331 q 668 382 668 346 q 668 447 668 418 l 668 481 q 672 499 668 494 q 686 503 676 503 q 711 501 690 501 l 856 501 q 909 501 888 501 q 939 503 931 501 q 970 503 958 503 q 988 501 982 503 q 1012 490 1006 499 q 1018 464 1018 481 m 558 1013 q 448 1032 503 1013 q 350 1082 393 1051 q 282 1159 307 1114 q 257 1256 257 1204 q 260 1306 257 1282 q 268 1354 263 1331 q 281 1364 271 1364 l 464 1363 q 472 1359 468 1363 q 475 1350 476 1356 q 471 1274 471 1308 l 472 1247 l 474 1246 q 475 1243 475 1244 q 476 1240 475 1242 q 516 1210 483 1222 q 586 1197 549 1197 q 653 1226 624 1197 q 682 1299 682 1256 q 683 1333 682 1317 q 682 1367 683 1350 q 690 1375 682 1375 l 885 1368 q 890 1364 889 1368 q 895 1325 899 1347 q 892 1276 892 1303 q 808 1099 892 1194 q 703 1031 765 1050 q 558 1013 640 1013 z "},"Ǧ":{"ha":1054,"x_min":28,"x_max":1019,"o":"m 1018 464 q 1019 453 1018 456 l 1019 214 q 1017 202 1018 208 q 1015 189 1015 196 l 1015 183 q 1013 57 1015 99 q 1003 0 1010 15 q 972 -1 986 0 q 947 -3 957 -1 l 918 -3 q 904 -3 904 -3 q 901 0 901 0 l 896 0 q 894 -3 894 -1 l 719 -3 q 708 -4 718 -4 q 699 4 701 -4 q 686 58 690 29 q 684 78 685 65 q 682 104 683 90 q 606 3 668 40 q 444 -33 544 -33 q 342 -21 390 -33 q 251 14 294 -8 q 92 171 157 56 q 28 481 28 286 q 70 678 28 592 q 186 828 113 765 q 370 918 256 886 q 611 950 485 950 q 685 947 643 950 q 788 935 728 943 q 821 931 799 935 l 863 924 q 903 916 886 919 q 931 913 921 913 l 935 910 q 940 903 936 907 q 951 894 947 894 l 954 894 l 957 869 q 958 849 957 860 q 960 826 958 838 q 965 774 963 794 q 967 736 967 753 q 936 650 967 674 l 783 678 l 764 678 q 722 681 742 678 q 674 681 701 683 q 672 680 672 681 q 671 679 672 679 q 538 637 586 679 q 489 475 489 594 q 499 336 489 381 q 524 271 508 292 q 567 235 539 249 q 624 221 594 221 q 646 228 640 221 q 674 254 651 236 q 673 274 674 265 q 671 304 672 283 l 669 331 q 668 382 668 346 q 668 447 668 418 l 668 481 q 672 499 668 494 q 686 503 676 503 q 711 501 690 501 l 856 501 q 909 501 888 501 q 939 503 931 501 q 970 503 958 503 q 988 501 982 503 q 1012 490 1006 499 q 1018 464 1018 481 m 324 1335 q 333 1333 328 1333 q 340 1332 339 1332 q 350 1335 344 1335 l 385 1335 l 389 1332 l 393 1335 l 436 1335 q 463 1317 446 1335 q 504 1276 479 1300 l 519 1263 q 542 1235 529 1254 q 574 1188 554 1215 q 609 1224 593 1208 q 639 1257 625 1240 q 647 1267 643 1263 q 658 1278 651 1272 q 678 1302 667 1290 q 700 1325 689 1314 q 715 1335 710 1335 l 860 1335 q 876 1317 876 1335 l 876 1313 l 875 1308 q 864 1274 871 1292 q 846 1238 857 1257 q 815 1182 835 1215 q 764 1106 796 1149 l 717 1043 l 692 1031 l 660 1028 l 492 1028 l 442 1038 l 433 1043 q 413 1074 421 1061 q 399 1092 404 1086 l 365 1142 l 342 1185 q 327 1208 332 1197 q 317 1224 322 1218 q 290 1272 300 1251 q 275 1308 279 1292 l 275 1317 q 289 1335 275 1335 l 324 1335 z "},"Ĝ":{"ha":1054,"x_min":28,"x_max":1019,"o":"m 1018 464 q 1019 453 1018 456 l 1019 214 q 1017 202 1018 208 q 1015 189 1015 196 l 1015 183 q 1013 57 1015 99 q 1003 0 1010 15 q 972 -1 986 0 q 947 -3 957 -1 l 918 -3 q 904 -3 904 -3 q 901 0 901 0 l 896 0 q 894 -3 894 -1 l 719 -3 q 708 -4 718 -4 q 699 4 701 -4 q 686 58 690 29 q 684 78 685 65 q 682 104 683 90 q 606 3 668 40 q 444 -33 544 -33 q 342 -21 390 -33 q 251 14 294 -8 q 92 171 157 56 q 28 481 28 286 q 70 678 28 592 q 186 828 113 765 q 370 918 256 886 q 611 950 485 950 q 685 947 643 950 q 788 935 728 943 q 821 931 799 935 l 863 924 q 903 916 886 919 q 931 913 921 913 l 935 910 q 940 903 936 907 q 951 894 947 894 l 954 894 l 957 869 q 958 849 957 860 q 960 826 958 838 q 965 774 963 794 q 967 736 967 753 q 936 650 967 674 l 783 678 l 764 678 q 722 681 742 678 q 674 681 701 683 q 672 680 672 681 q 671 679 672 679 q 538 637 586 679 q 489 475 489 594 q 499 336 489 381 q 524 271 508 292 q 567 235 539 249 q 624 221 594 221 q 646 228 640 221 q 674 254 651 236 q 673 274 674 265 q 671 304 672 283 l 669 331 q 668 382 668 346 q 668 447 668 418 l 668 481 q 672 499 668 494 q 686 503 676 503 q 711 501 690 501 l 856 501 q 909 501 888 501 q 939 503 931 501 q 970 503 958 503 q 988 501 982 503 q 1012 490 1006 499 q 1018 464 1018 481 m 347 1013 l 317 1013 q 304 1031 304 1013 l 304 1040 q 342 1133 310 1072 q 351 1151 346 1140 q 364 1176 356 1163 l 386 1224 l 415 1278 q 428 1299 421 1285 q 447 1331 436 1313 l 454 1338 l 500 1347 l 653 1347 l 682 1344 l 704 1331 l 747 1263 q 821 1118 789 1193 q 847 1040 842 1071 l 849 1036 l 849 1031 q 833 1013 849 1013 l 703 1013 q 689 1022 696 1013 q 664 1053 671 1043 q 651 1074 657 1064 q 642 1085 646 1081 q 633 1096 638 1090 q 606 1132 619 1113 q 575 1174 592 1151 q 546 1121 557 1142 q 525 1090 535 1100 l 511 1076 q 473 1033 488 1053 q 450 1013 458 1013 l 411 1013 l 407 1014 l 403 1013 l 372 1013 q 363 1014 367 1013 q 347 1013 350 1014 z "},"Ģ":{"ha":1054,"x_min":28,"x_max":1019,"o":"m 1018 464 q 1019 453 1018 456 l 1019 214 q 1017 202 1018 208 q 1015 189 1015 196 l 1015 183 q 1013 57 1015 99 q 1003 0 1010 15 q 972 -1 986 0 q 947 -3 957 -1 l 918 -3 q 904 -3 904 -3 q 901 0 901 0 l 896 0 q 894 -3 894 -1 l 719 -3 q 708 -4 718 -4 q 699 4 701 -4 q 686 58 690 29 q 684 78 685 65 q 682 104 683 90 q 606 3 668 40 q 444 -33 544 -33 q 342 -21 390 -33 q 251 14 294 -8 q 92 171 157 56 q 28 481 28 286 q 70 678 28 592 q 186 828 113 765 q 370 918 256 886 q 611 950 485 950 q 685 947 643 950 q 788 935 728 943 q 821 931 799 935 l 863 924 q 903 916 886 919 q 931 913 921 913 l 935 910 q 940 903 936 907 q 951 894 947 894 l 954 894 l 957 869 q 958 849 957 860 q 960 826 958 838 q 965 774 963 794 q 967 736 967 753 q 936 650 967 674 l 783 678 l 764 678 q 722 681 742 678 q 674 681 701 683 q 672 680 672 681 q 671 679 672 679 q 538 637 586 679 q 489 475 489 594 q 499 336 489 381 q 524 271 508 292 q 567 235 539 249 q 624 221 594 221 q 646 228 640 221 q 674 254 651 236 q 673 274 674 265 q 671 304 672 283 l 669 331 q 668 382 668 346 q 668 447 668 418 l 668 481 q 672 499 668 494 q 686 503 676 503 q 711 501 690 501 l 856 501 q 909 501 888 501 q 939 503 931 501 q 970 503 958 503 q 988 501 982 503 q 1012 490 1006 499 q 1018 464 1018 481 m 492 -528 q 485 -517 489 -524 q 478 -504 482 -511 q 465 -471 468 -490 q 461 -439 461 -451 q 460 -427 460 -432 q 460 -421 460 -422 q 556 -381 526 -410 q 567 -365 563 -372 q 575 -353 572 -358 q 576 -347 575 -349 q 576 -343 576 -344 q 565 -339 576 -339 q 556 -340 563 -340 q 528 -337 544 -337 q 465 -333 493 -337 q 442 -329 457 -333 q 436 -326 439 -328 q 432 -322 433 -324 q 428 -272 429 -294 q 425 -235 426 -249 q 424 -183 425 -208 q 422 -147 424 -158 l 429 -142 l 488 -136 q 519 -132 507 -133 q 540 -131 532 -131 l 596 -131 l 608 -133 q 632 -136 611 -136 q 640 -133 635 -133 q 687 -136 661 -133 q 726 -142 713 -139 q 729 -140 728 -142 q 732 -139 731 -139 l 735 -139 q 749 -142 739 -140 q 760 -147 758 -144 q 766 -156 765 -153 q 767 -167 767 -160 q 768 -171 767 -169 q 769 -182 769 -172 q 772 -205 769 -187 q 776 -235 774 -222 q 778 -246 778 -240 q 779 -257 779 -251 q 783 -292 782 -278 q 785 -315 785 -307 q 783 -340 785 -333 q 744 -442 775 -404 q 635 -503 713 -479 q 492 -528 560 -528 z "},"Ġ":{"ha":1054,"x_min":28,"x_max":1019,"o":"m 1018 464 q 1019 453 1018 456 l 1019 214 q 1017 202 1018 208 q 1015 189 1015 196 l 1015 183 q 1013 57 1015 99 q 1003 0 1010 15 q 972 -1 986 0 q 947 -3 957 -1 l 918 -3 q 904 -3 904 -3 q 901 0 901 0 l 896 0 q 894 -3 894 -1 l 719 -3 q 708 -4 718 -4 q 699 4 701 -4 q 686 58 690 29 q 684 78 685 65 q 682 104 683 90 q 606 3 668 40 q 444 -33 544 -33 q 342 -21 390 -33 q 251 14 294 -8 q 92 171 157 56 q 28 481 28 286 q 70 678 28 592 q 186 828 113 765 q 370 918 256 886 q 611 950 485 950 q 685 947 643 950 q 788 935 728 943 q 821 931 799 935 l 863 924 q 903 916 886 919 q 931 913 921 913 l 935 910 q 940 903 936 907 q 951 894 947 894 l 954 894 l 957 869 q 958 849 957 860 q 960 826 958 838 q 965 774 963 794 q 967 736 967 753 q 936 650 967 674 l 783 678 l 764 678 q 722 681 742 678 q 674 681 701 683 q 672 680 672 681 q 671 679 672 679 q 538 637 586 679 q 489 475 489 594 q 499 336 489 381 q 524 271 508 292 q 567 235 539 249 q 624 221 594 221 q 646 228 640 221 q 674 254 651 236 q 673 274 674 265 q 671 304 672 283 l 669 331 q 668 382 668 346 q 668 447 668 418 l 668 481 q 672 499 668 494 q 686 503 676 503 q 711 501 690 501 l 856 501 q 909 501 888 501 q 939 503 931 501 q 970 503 958 503 q 988 501 982 503 q 1012 490 1006 499 q 1018 464 1018 481 m 608 1014 l 574 1014 q 550 1015 554 1014 q 537 1017 543 1017 q 525 1018 531 1018 l 407 1028 l 397 1038 q 395 1067 396 1049 q 394 1104 394 1086 q 400 1219 394 1181 q 401 1244 400 1231 q 403 1274 401 1257 l 404 1314 q 443 1335 407 1335 q 474 1335 461 1335 q 494 1333 488 1335 q 519 1332 515 1333 q 533 1331 526 1331 q 546 1331 539 1331 q 562 1331 553 1331 q 582 1333 571 1332 l 701 1333 q 721 1335 704 1335 q 757 1317 757 1335 l 757 1314 q 755 1302 756 1307 q 754 1292 754 1297 l 754 1258 q 756 1243 754 1247 l 756 1065 q 754 1062 754 1064 q 753 1058 754 1060 q 751 1054 751 1057 q 750 1049 751 1051 q 735 1028 746 1035 q 728 1026 729 1028 q 715 1025 725 1025 q 713 1028 713 1025 l 706 1028 l 696 1024 l 664 1021 q 658 1019 660 1021 q 653 1018 657 1018 l 643 1015 q 639 1016 642 1015 q 631 1018 636 1017 q 625 1019 626 1018 q 619 1021 624 1021 q 617 1018 617 1021 l 608 1014 z "},"H":{"ha":1221,"x_min":42,"x_max":1179,"o":"m 331 -7 q 188 -4 243 -7 q 83 13 133 -1 q 73 27 78 13 q 68 49 68 42 l 42 538 l 42 567 q 42 581 42 572 q 43 600 42 590 q 44 630 44 614 q 44 668 44 646 l 47 740 l 47 782 q 48 823 47 803 q 50 861 49 843 q 53 881 50 876 l 53 885 q 57 889 54 886 q 64 894 60 892 q 76 904 72 900 q 117 917 89 917 l 219 917 q 240 915 226 915 q 271 915 253 915 q 308 915 290 915 q 335 914 325 915 l 472 914 q 523 902 508 914 q 538 854 538 890 l 538 840 q 536 829 538 835 q 535 818 535 824 l 532 797 l 532 779 q 533 768 532 772 q 535 753 535 764 q 535 722 535 735 q 533 700 535 708 l 532 643 l 569 643 q 610 638 586 639 q 646 636 633 636 q 662 634 653 635 q 683 633 671 633 l 685 728 q 686 744 686 735 q 686 764 686 753 l 688 821 l 688 833 q 689 870 688 853 q 693 896 690 888 q 714 908 706 908 q 727 910 718 910 q 754 911 736 911 l 790 911 q 826 912 810 911 q 857 914 843 913 l 936 914 q 1028 915 992 914 q 1083 917 1065 915 l 1121 917 q 1164 910 1154 917 q 1179 861 1179 900 q 1178 799 1179 835 q 1176 715 1178 763 q 1172 574 1172 628 q 1174 560 1172 565 q 1176 551 1175 554 l 1176 546 l 1142 32 q 1131 14 1142 26 q 1110 1 1119 1 l 728 1 q 724 4 726 1 q 719 8 722 7 q 714 25 715 17 q 710 46 713 33 l 706 75 l 690 332 l 681 332 q 647 332 661 332 q 619 333 632 332 q 578 335 594 335 q 556 336 563 336 l 543 336 q 532 313 532 336 l 532 94 q 531 66 532 86 q 524 26 529 46 q 503 1 518 7 l 481 0 q 390 -4 426 -3 q 331 -7 353 -6 z "},"Ħ":{"ha":1303,"x_min":3,"x_max":1306,"o":"m 369 -8 q 256 -7 300 -8 q 181 -1 211 -6 q 122 11 151 4 q 113 24 118 11 q 107 47 107 38 l 81 456 l 81 483 q 81 501 81 492 q 83 521 82 510 l 83 654 q 83 679 83 674 q 85 688 83 685 l 83 688 q 63 690 78 688 q 28 693 49 692 q 7 706 7 697 l 7 731 q 5 744 6 739 q 4 754 4 749 l 4 775 q 3 781 3 778 q 3 799 3 785 q 10 804 3 804 q 51 814 13 806 q 64 815 60 814 q 76 817 67 817 l 88 817 q 89 839 89 826 q 90 879 89 851 q 90 895 90 892 q 92 900 90 899 q 96 903 93 901 q 103 908 99 906 q 115 918 107 913 q 156 931 131 931 l 258 931 q 278 929 265 929 q 310 929 292 929 q 356 929 344 929 q 375 928 367 929 l 511 928 q 576 840 576 928 l 576 826 q 574 814 574 824 l 726 814 l 726 818 q 728 879 726 854 q 733 910 731 904 q 753 921 742 921 q 792 924 769 924 l 829 925 q 861 926 844 925 q 896 928 878 926 l 975 928 q 1056 928 1015 928 q 1122 931 1096 929 l 1160 931 q 1204 922 1194 931 q 1215 908 1213 917 q 1218 876 1218 899 l 1218 811 q 1239 810 1221 810 q 1252 809 1246 810 q 1264 807 1258 808 q 1275 805 1271 806 q 1281 804 1279 804 q 1288 803 1285 803 q 1294 801 1292 803 q 1299 796 1299 800 l 1299 778 q 1300 768 1300 776 l 1301 758 q 1303 751 1303 757 q 1304 746 1303 747 q 1306 740 1306 744 l 1306 724 q 1294 699 1306 706 q 1231 685 1276 685 l 1213 685 q 1213 594 1213 618 q 1211 567 1213 569 l 1210 490 q 1211 476 1210 482 q 1214 468 1213 471 q 1215 463 1215 467 l 1181 32 q 1169 12 1181 24 q 1149 0 1157 0 l 767 0 q 758 7 763 0 q 753 23 754 14 q 749 44 751 32 q 744 74 747 56 l 729 233 l 719 233 q 660 235 672 233 q 617 237 633 236 q 594 238 601 238 l 583 238 q 571 214 571 238 q 571 150 571 171 q 571 122 571 129 q 570 109 571 114 q 569 92 569 104 q 562 30 569 56 q 542 0 554 4 l 521 -1 q 429 -6 467 -4 q 369 -8 392 -7 m 722 550 l 722 686 q 700 688 713 688 q 647 688 688 688 l 572 688 l 572 686 l 571 560 l 607 560 q 641 555 618 557 q 685 553 664 553 q 705 551 696 551 q 722 550 714 550 z "},"Ĥ":{"ha":1221,"x_min":42,"x_max":1179,"o":"m 331 -7 q 188 -4 243 -7 q 83 13 133 -1 q 73 27 78 13 q 68 49 68 42 l 42 538 l 42 567 q 42 581 42 572 q 43 600 42 590 q 44 630 44 614 q 44 668 44 646 l 47 740 l 47 782 q 48 823 47 803 q 50 861 49 843 q 53 881 50 876 l 53 885 q 57 889 54 886 q 64 894 60 892 q 76 904 72 900 q 117 917 89 917 l 219 917 q 240 915 226 915 q 271 915 253 915 q 308 915 290 915 q 335 914 325 915 l 472 914 q 523 902 508 914 q 538 854 538 890 l 538 840 q 536 829 538 835 q 535 818 535 824 l 532 797 l 532 779 q 533 768 532 772 q 535 753 535 764 q 535 722 535 735 q 533 700 535 708 l 532 643 l 569 643 q 610 638 586 639 q 646 636 633 636 q 662 634 653 635 q 683 633 671 633 l 685 728 q 686 744 686 735 q 686 764 686 753 l 688 821 l 688 833 q 689 870 688 853 q 693 896 690 888 q 714 908 706 908 q 727 910 718 910 q 754 911 736 911 l 790 911 q 826 912 810 911 q 857 914 843 913 l 936 914 q 1028 915 992 914 q 1083 917 1065 915 l 1121 917 q 1164 910 1154 917 q 1179 861 1179 900 q 1178 799 1179 835 q 1176 715 1178 763 q 1172 574 1172 628 q 1174 560 1172 565 q 1176 551 1175 554 l 1176 546 l 1142 32 q 1131 14 1142 26 q 1110 1 1119 1 l 728 1 q 724 4 726 1 q 719 8 722 7 q 714 25 715 17 q 710 46 713 33 l 706 75 l 690 332 l 681 332 q 647 332 661 332 q 619 333 632 332 q 578 335 594 335 q 556 336 563 336 l 543 336 q 532 313 532 336 l 532 94 q 531 66 532 86 q 524 26 529 46 q 503 1 518 7 l 481 0 q 390 -4 426 -3 q 331 -7 353 -6 m 382 1013 l 351 1013 q 339 1031 339 1013 l 339 1040 q 376 1133 344 1072 q 385 1151 381 1140 q 399 1176 390 1163 l 421 1224 l 450 1278 q 463 1299 456 1285 q 482 1331 471 1313 l 489 1338 l 535 1347 l 688 1347 l 717 1344 l 739 1331 l 782 1263 q 856 1118 824 1193 q 882 1040 876 1071 l 883 1036 l 883 1031 q 868 1013 883 1013 l 738 1013 q 724 1022 731 1013 q 699 1053 706 1043 q 686 1074 692 1064 q 676 1085 681 1081 q 668 1096 672 1090 q 640 1132 654 1113 q 610 1174 626 1151 q 581 1121 592 1142 q 560 1090 569 1100 l 546 1076 q 508 1033 522 1053 q 485 1013 493 1013 l 446 1013 l 442 1014 l 438 1013 l 407 1013 q 397 1014 401 1013 q 382 1013 385 1014 z "},"I":{"ha":567,"x_min":42,"x_max":525,"o":"m 143 -26 l 107 -32 q 78 -12 88 -32 q 67 33 69 8 q 65 69 65 57 q 64 100 65 96 q 61 160 63 124 q 56 247 60 197 l 50 308 q 43 431 44 381 q 42 517 42 482 l 42 904 q 64 923 42 918 q 115 928 86 928 q 135 928 124 928 q 157 926 146 928 q 176 924 168 925 q 190 924 185 924 q 221 922 201 922 q 265 921 240 921 l 271 925 l 340 925 q 353 921 347 921 l 358 921 q 376 924 361 924 q 379 925 378 925 l 382 925 q 393 924 388 925 l 403 921 l 488 921 q 514 912 507 921 q 521 896 521 903 l 525 644 q 524 636 525 640 l 519 613 q 514 560 514 583 q 514 521 514 538 l 514 210 l 510 150 q 507 113 508 129 q 507 83 506 96 q 492 0 507 21 q 464 -12 483 -12 l 463 -10 l 456 -8 q 453 -10 453 -8 l 446 -10 q 439 -12 442 -11 q 435 -15 436 -14 q 421 -14 431 -15 q 397 -10 411 -12 l 375 -8 q 367 -15 368 -8 l 224 -15 l 182 -22 l 143 -26 z "},"Ĳ":{"ha":1347,"x_min":42,"x_max":1303,"o":"m 143 -26 l 107 -32 q 78 -12 88 -32 q 67 33 69 8 q 65 69 65 57 q 64 100 65 96 q 61 160 63 124 q 56 247 60 197 l 50 308 q 43 431 44 381 q 42 517 42 482 l 42 904 q 64 923 42 918 q 115 928 86 928 q 135 928 124 928 q 157 926 146 928 q 176 924 168 925 q 190 924 185 924 q 221 922 201 922 q 265 921 240 921 l 271 925 l 340 925 q 353 921 347 921 l 358 921 q 376 924 361 924 q 379 925 378 925 l 382 925 q 393 924 388 925 l 403 921 l 488 921 q 514 912 507 921 q 521 896 521 903 l 525 644 q 524 636 525 640 l 519 613 q 514 560 514 583 q 514 521 514 538 l 514 210 l 510 150 q 507 113 508 129 q 507 83 506 96 q 492 0 507 21 q 464 -12 483 -12 l 463 -10 l 456 -8 q 453 -10 453 -8 l 446 -10 q 439 -12 442 -11 q 435 -15 436 -14 q 421 -14 431 -15 q 397 -10 411 -12 l 375 -8 q 367 -15 368 -8 l 224 -15 l 182 -22 l 143 -26 m 943 -17 q 888 -19 914 -19 q 836 -18 863 -18 q 760 -14 790 -18 q 702 1 729 -10 q 636 29 675 11 l 575 58 q 574 65 574 60 l 576 94 q 579 109 578 101 q 582 122 581 117 q 582 155 582 131 q 583 208 582 179 q 585 261 583 236 q 588 296 586 286 q 588 310 588 304 q 589 318 589 315 q 590 324 589 321 q 594 328 590 325 q 607 324 597 331 q 681 298 657 307 q 720 285 706 289 q 754 282 735 282 q 779 292 767 282 q 797 324 792 303 q 807 353 800 328 q 811 373 810 365 q 813 381 813 381 q 814 399 814 386 q 814 429 814 411 q 815 519 814 461 q 818 668 817 578 l 818 728 l 817 879 q 827 910 817 901 q 849 922 838 919 q 865 924 861 924 l 976 925 l 1238 925 q 1290 911 1276 925 q 1296 898 1293 906 q 1299 878 1299 890 q 1301 847 1299 860 q 1303 826 1303 833 l 1303 538 q 1300 525 1300 538 l 1300 514 q 1300 499 1299 507 q 1299 485 1300 489 q 1297 470 1297 479 q 1297 449 1297 461 l 1297 425 l 1296 414 q 1294 323 1296 360 q 1285 250 1292 286 q 1174 56 1264 126 q 943 -17 1083 -14 z "},"Í":{"ha":567,"x_min":42,"x_max":539,"o":"m 143 -26 l 107 -32 q 78 -12 88 -32 q 67 33 69 8 q 65 69 65 57 q 64 100 65 96 q 61 160 63 124 q 56 247 60 197 l 50 308 q 43 431 44 381 q 42 517 42 482 l 42 904 q 64 923 42 918 q 115 928 86 928 q 135 928 124 928 q 157 926 146 928 q 176 924 168 925 q 190 924 185 924 q 221 922 201 922 q 265 921 240 921 l 271 925 l 340 925 q 353 921 347 921 l 358 921 q 376 924 361 924 q 379 925 378 925 l 382 925 q 393 924 388 925 l 403 921 l 488 921 q 514 912 507 921 q 521 896 521 903 l 525 644 q 524 636 525 640 l 519 613 q 514 560 514 583 q 514 521 514 538 l 514 210 l 510 150 q 507 113 508 129 q 507 83 506 96 q 492 0 507 21 q 464 -12 483 -12 l 463 -10 l 456 -8 q 453 -10 453 -8 l 446 -10 q 439 -12 442 -11 q 435 -15 436 -14 q 421 -14 431 -15 q 397 -10 411 -12 l 375 -8 q 367 -15 368 -8 l 224 -15 l 182 -22 l 143 -26 m 294 1018 l 283 1022 l 279 1018 l 164 1018 q 142 1029 147 1018 q 138 1060 138 1040 q 142 1102 138 1083 q 149 1132 147 1121 q 178 1231 164 1182 q 207 1335 192 1279 l 218 1343 l 278 1353 l 360 1357 l 368 1353 q 382 1356 374 1356 l 396 1356 q 400 1354 399 1356 q 406 1353 401 1353 l 414 1351 l 472 1349 l 483 1344 q 486 1346 486 1344 l 493 1346 q 531 1335 522 1340 q 539 1322 539 1331 q 535 1308 539 1317 q 521 1282 532 1301 q 508 1258 518 1276 q 479 1210 497 1240 q 467 1189 472 1197 q 458 1175 461 1181 l 440 1142 q 404 1091 417 1108 q 385 1063 392 1074 q 369 1039 379 1053 q 346 1018 356 1018 l 294 1018 z "},"Ĭ":{"ha":567,"x_min":-36,"x_max":606,"o":"m 143 -26 l 107 -32 q 78 -12 88 -32 q 67 33 69 8 q 65 69 65 57 q 64 100 65 96 q 61 160 63 124 q 56 247 60 197 l 50 308 q 43 431 44 381 q 42 517 42 482 l 42 904 q 64 923 42 918 q 115 928 86 928 q 135 928 124 928 q 157 926 146 928 q 176 924 168 925 q 190 924 185 924 q 221 922 201 922 q 265 921 240 921 l 271 925 l 340 925 q 353 921 347 921 l 358 921 q 376 924 361 924 q 379 925 378 925 l 382 925 q 393 924 388 925 l 403 921 l 488 921 q 514 912 507 921 q 521 896 521 903 l 525 644 q 524 636 525 640 l 519 613 q 514 560 514 583 q 514 521 514 538 l 514 210 l 510 150 q 507 113 508 129 q 507 83 506 96 q 492 0 507 21 q 464 -12 483 -12 l 463 -10 l 456 -8 q 453 -10 453 -8 l 446 -10 q 439 -12 442 -11 q 435 -15 436 -14 q 421 -14 431 -15 q 397 -10 411 -12 l 375 -8 q 367 -15 368 -8 l 224 -15 l 182 -22 l 143 -26 m 265 1013 q 155 1032 210 1013 q 57 1082 100 1051 q -11 1159 14 1114 q -36 1256 -36 1204 q -33 1306 -36 1282 q -25 1354 -31 1331 q -12 1364 -22 1364 l 171 1363 q 179 1359 175 1363 q 182 1350 183 1356 q 178 1274 178 1308 l 179 1247 l 181 1246 q 182 1243 182 1244 q 183 1240 182 1242 q 223 1210 190 1222 q 293 1197 256 1197 q 360 1226 331 1197 q 389 1299 389 1256 q 390 1333 389 1317 q 389 1367 390 1350 q 397 1375 389 1375 l 592 1368 q 597 1364 596 1368 q 602 1325 606 1347 q 599 1276 599 1303 q 515 1099 599 1194 q 410 1031 472 1050 q 265 1013 347 1013 z "},"Î":{"ha":567,"x_min":11,"x_max":556,"o":"m 143 -26 l 107 -32 q 78 -12 88 -32 q 67 33 69 8 q 65 69 65 57 q 64 100 65 96 q 61 160 63 124 q 56 247 60 197 l 50 308 q 43 431 44 381 q 42 517 42 482 l 42 904 q 64 923 42 918 q 115 928 86 928 q 135 928 124 928 q 157 926 146 928 q 176 924 168 925 q 190 924 185 924 q 221 922 201 922 q 265 921 240 921 l 271 925 l 340 925 q 353 921 347 921 l 358 921 q 376 924 361 924 q 379 925 378 925 l 382 925 q 393 924 388 925 l 403 921 l 488 921 q 514 912 507 921 q 521 896 521 903 l 525 644 q 524 636 525 640 l 519 613 q 514 560 514 583 q 514 521 514 538 l 514 210 l 510 150 q 507 113 508 129 q 507 83 506 96 q 492 0 507 21 q 464 -12 483 -12 l 463 -10 l 456 -8 q 453 -10 453 -8 l 446 -10 q 439 -12 442 -11 q 435 -15 436 -14 q 421 -14 431 -15 q 397 -10 411 -12 l 375 -8 q 367 -15 368 -8 l 224 -15 l 182 -22 l 143 -26 m 54 1013 l 24 1013 q 11 1031 11 1013 l 11 1040 q 49 1133 17 1072 q 58 1151 53 1140 q 71 1176 63 1163 l 93 1224 l 122 1278 q 135 1299 128 1285 q 154 1331 143 1313 l 161 1338 l 207 1347 l 360 1347 l 389 1344 l 411 1331 l 454 1263 q 528 1118 496 1193 q 554 1040 549 1071 l 556 1036 l 556 1031 q 540 1013 556 1013 l 410 1013 q 396 1022 403 1013 q 371 1053 378 1043 q 358 1074 364 1064 q 349 1085 353 1081 q 340 1096 344 1090 q 313 1132 326 1113 q 282 1174 299 1151 q 253 1121 264 1142 q 232 1090 242 1100 l 218 1076 q 180 1033 194 1053 q 157 1013 165 1013 l 118 1013 l 114 1014 l 110 1013 l 79 1013 q 69 1014 74 1013 q 54 1013 57 1014 z "},"Ȉ":{"ha":567,"x_min":-124,"x_max":579,"o":"m 143 -26 l 107 -32 q 78 -12 88 -32 q 67 33 69 8 q 65 69 65 57 q 64 100 65 96 q 61 160 63 124 q 56 247 60 197 l 50 308 q 43 431 44 381 q 42 517 42 482 l 42 904 q 64 923 42 918 q 115 928 86 928 q 135 928 124 928 q 157 926 146 928 q 176 924 168 925 q 190 924 185 924 q 221 922 201 922 q 265 921 240 921 l 271 925 l 340 925 q 353 921 347 921 l 358 921 q 376 924 361 924 q 379 925 378 925 l 382 925 q 393 924 388 925 l 403 921 l 488 921 q 514 912 507 921 q 521 896 521 903 l 525 644 q 524 636 525 640 l 519 613 q 514 560 514 583 q 514 521 514 538 l 514 210 l 510 150 q 507 113 508 129 q 507 83 506 96 q 492 0 507 21 q 464 -12 483 -12 l 463 -10 l 456 -8 q 453 -10 453 -8 l 446 -10 q 439 -12 442 -11 q 435 -15 436 -14 q 421 -14 431 -15 q 397 -10 411 -12 l 375 -8 q 367 -15 368 -8 l 224 -15 l 182 -22 l 143 -26 m 438 1014 l 413 1017 l 386 1017 q 369 1040 376 1017 q 353 1096 364 1061 q 332 1163 342 1131 q 318 1207 322 1194 q 312 1222 315 1213 q 304 1243 308 1231 q 301 1252 303 1247 q 297 1263 300 1257 q 289 1294 293 1276 q 283 1315 285 1311 q 279 1326 281 1321 q 276 1333 278 1331 q 275 1340 275 1336 q 274 1346 275 1344 q 273 1351 272 1349 q 274 1356 274 1353 q 288 1371 274 1367 q 303 1374 293 1372 q 328 1378 314 1376 l 333 1378 q 338 1375 333 1375 l 349 1379 l 386 1378 l 393 1379 q 396 1380 394 1379 q 399 1381 397 1381 l 403 1381 l 417 1379 q 431 1376 428 1379 l 442 1379 q 466 1373 458 1375 q 483 1369 474 1371 q 513 1365 493 1368 l 558 1357 l 565 1349 q 574 1288 571 1328 q 578 1202 576 1247 q 579 1117 579 1157 q 578 1056 579 1076 q 565 1026 574 1035 q 540 1017 556 1018 l 479 1011 l 454 1013 l 449 1017 l 438 1014 m 106 1021 l 54 1021 q 32 1042 44 1021 q 12 1078 19 1064 q -4 1110 4 1092 q -28 1164 -12 1129 q -38 1181 -33 1172 q -47 1197 -43 1189 l -64 1232 q -74 1252 -68 1240 q -86 1271 -81 1264 q -119 1331 -100 1289 q -124 1343 -124 1339 q -114 1357 -124 1351 q -76 1368 -103 1363 l -72 1368 q -68 1367 -71 1367 l -67 1367 l -57 1371 l -36 1374 l -26 1375 q -22 1376 -24 1375 q -19 1378 -21 1378 l -6 1378 q 10 1375 4 1378 l 19 1379 l 100 1375 l 160 1365 l 172 1357 q 208 1257 199 1310 q 228 1161 218 1204 q 240 1109 231 1133 q 249 1063 249 1085 q 244 1032 249 1043 q 224 1021 239 1021 l 121 1021 l 115 1025 l 106 1021 z "},"Ï":{"ha":567,"x_min":-93,"x_max":660,"o":"m 143 -26 l 107 -32 q 78 -12 88 -32 q 67 33 69 8 q 65 69 65 57 q 64 100 65 96 q 61 160 63 124 q 56 247 60 197 l 50 308 q 43 431 44 381 q 42 517 42 482 l 42 904 q 64 923 42 918 q 115 928 86 928 q 135 928 124 928 q 157 926 146 928 q 176 924 168 925 q 190 924 185 924 q 221 922 201 922 q 265 921 240 921 l 271 925 l 340 925 q 353 921 347 921 l 358 921 q 376 924 361 924 q 379 925 378 925 l 382 925 q 393 924 388 925 l 403 921 l 488 921 q 514 912 507 921 q 521 896 521 903 l 525 644 q 524 636 525 640 l 519 613 q 514 560 514 583 q 514 521 514 538 l 514 210 l 510 150 q 507 113 508 129 q 507 83 506 96 q 492 0 507 21 q 464 -12 483 -12 l 463 -10 l 456 -8 q 453 -10 453 -8 l 446 -10 q 439 -12 442 -11 q 435 -15 436 -14 q 421 -14 431 -15 q 397 -10 411 -12 l 375 -8 q 367 -15 368 -8 l 224 -15 l 182 -22 l 143 -26 m -72 1042 l -81 1050 l -90 1094 l -90 1135 l -92 1163 l -93 1171 q -87 1189 -93 1183 l -83 1232 l -83 1236 l -85 1243 q -78 1260 -82 1251 q -69 1275 -75 1268 q -44 1282 -62 1282 l 100 1282 q 133 1285 122 1285 q 149 1286 143 1286 q 163 1286 160 1286 q 167 1285 165 1286 q 175 1283 174 1285 q 185 1282 178 1282 l 194 1282 q 200 1283 199 1282 q 204 1285 201 1285 l 208 1285 q 225 1250 225 1285 l 225 1222 q 223 1208 224 1214 q 222 1194 222 1201 q 223 1192 222 1193 q 225 1185 224 1190 l 225 1111 q 226 1104 226 1108 q 226 1079 226 1100 q 204 1042 226 1044 l -72 1042 m 433 1042 l 351 1050 l 343 1094 l 343 1135 q 339 1171 343 1157 l 339 1178 q 338 1189 338 1179 l 338 1208 q 336 1218 336 1213 q 336 1246 336 1224 q 338 1249 336 1247 q 336 1251 338 1250 l 336 1257 q 340 1261 338 1258 q 344 1268 342 1264 q 354 1278 349 1276 q 389 1282 369 1282 l 533 1282 q 567 1285 557 1285 q 581 1286 576 1286 q 596 1286 593 1286 q 600 1285 599 1286 q 607 1283 606 1285 q 618 1282 610 1282 l 628 1282 q 633 1283 632 1282 q 638 1285 635 1285 l 642 1285 q 657 1250 657 1285 l 657 1232 l 656 1194 l 656 1190 q 657 1185 656 1186 l 657 1140 l 656 1125 l 656 1111 q 657 1097 656 1099 q 659 1088 658 1092 q 660 1079 660 1083 q 638 1042 660 1043 l 433 1042 z "},"İ":{"ha":567,"x_min":42,"x_max":525,"o":"m 143 -26 l 107 -32 q 78 -12 88 -32 q 67 33 69 8 q 65 69 65 57 q 64 100 65 96 q 61 160 63 124 q 56 247 60 197 l 50 308 q 43 431 44 381 q 42 517 42 482 l 42 904 q 64 923 42 918 q 115 928 86 928 q 135 928 124 928 q 157 926 146 928 q 176 924 168 925 q 190 924 185 924 q 221 922 201 922 q 265 921 240 921 l 271 925 l 340 925 q 353 921 347 921 l 358 921 q 376 924 361 924 q 379 925 378 925 l 382 925 q 393 924 388 925 l 403 921 l 488 921 q 514 912 507 921 q 521 896 521 903 l 525 644 q 524 636 525 640 l 519 613 q 514 560 514 583 q 514 521 514 538 l 514 210 l 510 150 q 507 113 508 129 q 507 83 506 96 q 492 0 507 21 q 464 -12 483 -12 l 463 -10 l 456 -8 q 453 -10 453 -8 l 446 -10 q 439 -12 442 -11 q 435 -15 436 -14 q 421 -14 431 -15 q 397 -10 411 -12 l 375 -8 q 367 -15 368 -8 l 224 -15 l 182 -22 l 143 -26 m 315 1014 l 281 1014 q 257 1015 261 1014 q 244 1017 250 1017 q 232 1018 238 1018 l 114 1028 l 104 1038 q 102 1067 103 1049 q 101 1104 101 1086 q 107 1219 101 1181 q 108 1244 107 1231 q 110 1274 108 1257 l 111 1314 q 150 1335 114 1335 q 181 1335 168 1335 q 201 1333 194 1335 q 226 1332 222 1333 q 240 1331 233 1331 q 253 1331 246 1331 q 269 1331 260 1331 q 289 1333 278 1332 l 408 1333 q 428 1335 411 1335 q 464 1317 464 1335 l 464 1314 q 462 1302 463 1307 q 461 1292 461 1297 l 461 1258 q 463 1243 461 1247 l 463 1065 q 461 1062 461 1064 q 460 1058 461 1060 q 458 1054 458 1057 q 457 1049 458 1051 q 442 1028 453 1035 q 435 1026 436 1028 q 422 1025 432 1025 q 419 1028 419 1025 l 413 1028 l 403 1024 l 371 1021 q 365 1019 367 1021 q 360 1018 364 1018 l 350 1015 q 346 1016 349 1015 q 338 1018 343 1017 q 332 1019 333 1018 q 326 1021 331 1021 q 324 1018 324 1021 l 315 1014 z "},"Ị":{"ha":567,"x_min":42,"x_max":525,"o":"m 143 -26 l 107 -32 q 78 -12 88 -32 q 67 33 69 8 q 65 69 65 57 q 64 100 65 96 q 61 160 63 124 q 56 247 60 197 l 50 308 q 43 431 44 381 q 42 517 42 482 l 42 904 q 64 923 42 918 q 115 928 86 928 q 135 928 124 928 q 157 926 146 928 q 176 924 168 925 q 190 924 185 924 q 221 922 201 922 q 265 921 240 921 l 271 925 l 340 925 q 353 921 347 921 l 358 921 q 376 924 361 924 q 379 925 378 925 l 382 925 q 393 924 388 925 l 403 921 l 488 921 q 514 912 507 921 q 521 896 521 903 l 525 644 q 524 636 525 640 l 519 613 q 514 560 514 583 q 514 521 514 538 l 514 210 l 510 150 q 507 113 508 129 q 507 83 506 96 q 492 0 507 21 q 464 -12 483 -12 l 463 -10 l 456 -8 q 453 -10 453 -8 l 446 -10 q 439 -12 442 -11 q 435 -15 436 -14 q 421 -14 431 -15 q 397 -10 411 -12 l 375 -8 q 367 -15 368 -8 l 224 -15 l 182 -22 l 143 -26 m 313 -412 l 281 -412 q 260 -411 264 -412 q 248 -410 254 -410 q 238 -410 242 -410 l 131 -400 l 122 -392 q 120 -365 121 -381 q 119 -332 119 -349 q 125 -228 119 -262 q 126 -206 125 -218 q 128 -179 126 -193 l 128 -143 q 164 -124 131 -124 q 192 -124 179 -124 q 210 -125 204 -124 q 232 -126 228 -125 q 244 -128 239 -128 q 256 -128 250 -128 q 271 -127 263 -128 q 289 -125 279 -126 l 396 -125 q 401 -124 399 -125 q 414 -124 404 -124 q 446 -140 446 -124 l 446 -143 q 444 -154 444 -150 q 443 -162 443 -158 l 443 -193 q 444 -207 443 -203 l 444 -367 q 442 -372 442 -372 q 440 -382 440 -375 q 426 -400 438 -392 q 422 -401 424 -400 q 419 -401 421 -401 q 408 -403 417 -403 q 406 -400 406 -403 l 400 -400 l 390 -404 l 363 -407 q 357 -408 358 -407 q 356 -409 356 -408 q 353 -410 356 -410 l 343 -411 q 340 -410 342 -411 q 332 -410 338 -410 q 329 -409 331 -410 q 328 -408 328 -408 q 322 -407 326 -407 q 319 -410 319 -407 l 313 -412 z "},"Ì":{"ha":567,"x_min":26,"x_max":525,"o":"m 143 -26 l 107 -32 q 78 -12 88 -32 q 67 33 69 8 q 65 69 65 57 q 64 100 65 96 q 61 160 63 124 q 56 247 60 197 l 50 308 q 43 431 44 381 q 42 517 42 482 l 42 904 q 64 923 42 918 q 115 928 86 928 q 135 928 124 928 q 157 926 146 928 q 176 924 168 925 q 190 924 185 924 q 221 922 201 922 q 265 921 240 921 l 271 925 l 340 925 q 353 921 347 921 l 358 921 q 376 924 361 924 q 379 925 378 925 l 382 925 q 393 924 388 925 l 403 921 l 488 921 q 514 912 507 921 q 521 896 521 903 l 525 644 q 524 636 525 640 l 519 613 q 514 560 514 583 q 514 521 514 538 l 514 210 l 510 150 q 507 113 508 129 q 507 83 506 96 q 492 0 507 21 q 464 -12 483 -12 l 463 -10 l 456 -8 q 453 -10 453 -8 l 446 -10 q 439 -12 442 -11 q 435 -15 436 -14 q 421 -14 431 -15 q 397 -10 411 -12 l 375 -8 q 367 -15 368 -8 l 224 -15 l 182 -22 l 143 -26 m 271 1018 l 219 1018 q 209 1022 214 1018 q 196 1039 204 1026 q 181 1063 188 1053 q 162 1091 174 1074 q 125 1142 150 1108 l 107 1175 q 99 1189 104 1181 q 86 1210 93 1197 q 58 1258 68 1240 q 44 1282 47 1276 q 35 1299 39 1292 q 31 1308 32 1306 q 26 1322 26 1317 q 35 1335 26 1331 q 72 1346 43 1340 l 79 1346 q 82 1344 79 1344 l 93 1349 l 151 1351 l 160 1353 q 165 1354 164 1353 q 169 1356 167 1356 l 183 1356 q 197 1353 192 1356 l 206 1357 l 288 1353 l 347 1343 l 358 1335 q 386 1238 372 1286 q 417 1132 400 1189 q 423 1102 418 1121 q 428 1060 428 1083 q 401 1018 428 1018 l 286 1018 l 282 1022 l 271 1018 z "},"Ỉ":{"ha":567,"x_min":42,"x_max":581,"o":"m 143 -26 l 107 -32 q 78 -12 88 -32 q 67 33 69 8 q 65 69 65 57 q 64 100 65 96 q 61 160 63 124 q 56 247 60 197 l 50 308 q 43 431 44 381 q 42 517 42 482 l 42 904 q 64 923 42 918 q 115 928 86 928 q 135 928 124 928 q 157 926 146 928 q 176 924 168 925 q 190 924 185 924 q 221 922 201 922 q 265 921 240 921 l 271 925 l 340 925 q 353 921 347 921 l 358 921 q 376 924 361 924 q 379 925 378 925 l 382 925 q 393 924 388 925 l 403 921 l 488 921 q 514 912 507 921 q 521 896 521 903 l 525 644 q 524 636 525 640 l 519 613 q 514 560 514 583 q 514 521 514 538 l 514 210 l 510 150 q 507 113 508 129 q 507 83 506 96 q 492 0 507 21 q 464 -12 483 -12 l 463 -10 l 456 -8 q 453 -10 453 -8 l 446 -10 q 439 -12 442 -11 q 435 -15 436 -14 q 421 -14 431 -15 q 397 -10 411 -12 l 375 -8 q 367 -15 368 -8 l 224 -15 l 182 -22 l 143 -26 m 208 1021 q 178 1038 186 1021 q 171 1085 171 1056 q 178 1153 171 1121 q 225 1217 185 1186 q 255 1225 232 1221 q 285 1233 278 1229 q 318 1256 307 1249 q 329 1274 329 1263 q 306 1294 329 1288 q 221 1301 282 1301 q 165 1299 189 1301 q 125 1294 140 1297 q 105 1291 113 1293 q 94 1289 97 1289 q 82 1306 82 1289 q 90 1419 82 1361 q 93 1430 93 1425 q 94 1440 93 1435 q 104 1463 94 1454 q 116 1467 110 1467 q 124 1468 122 1468 q 174 1474 149 1471 q 222 1478 199 1476 q 267 1480 246 1479 q 311 1481 289 1481 q 412 1467 361 1481 q 496 1442 463 1453 q 529 1419 519 1432 q 553 1385 539 1407 q 572 1360 563 1372 q 581 1331 581 1349 q 570 1260 581 1297 q 528 1192 560 1224 q 429 1138 496 1160 q 383 1115 400 1128 q 356 1093 367 1101 q 340 1083 346 1083 q 333 1085 333 1082 l 332 1042 q 318 1021 332 1021 l 308 1021 l 296 1022 l 267 1022 q 243 1021 258 1021 q 208 1021 228 1021 z "},"Ȋ":{"ha":567,"x_min":-39,"x_max":603,"o":"m 143 -26 l 107 -32 q 78 -12 88 -32 q 67 33 69 8 q 65 69 65 57 q 64 100 65 96 q 61 160 63 124 q 56 247 60 197 l 50 308 q 43 431 44 381 q 42 517 42 482 l 42 904 q 64 923 42 918 q 115 928 86 928 q 135 928 124 928 q 157 926 146 928 q 176 924 168 925 q 190 924 185 924 q 221 922 201 922 q 265 921 240 921 l 271 925 l 340 925 q 353 921 347 921 l 358 921 q 376 924 361 924 q 379 925 378 925 l 382 925 q 393 924 388 925 l 403 921 l 488 921 q 514 912 507 921 q 521 896 521 903 l 525 644 q 524 636 525 640 l 519 613 q 514 560 514 583 q 514 521 514 538 l 514 210 l 510 150 q 507 113 508 129 q 507 83 506 96 q 492 0 507 21 q 464 -12 483 -12 l 463 -10 l 456 -8 q 453 -10 453 -8 l 446 -10 q 439 -12 442 -11 q 435 -15 436 -14 q 421 -14 431 -15 q 397 -10 411 -12 l 375 -8 q 367 -15 368 -8 l 224 -15 l 182 -22 l 143 -26 m 301 1375 q 510 1306 417 1375 q 603 1132 603 1236 q 600 1081 603 1106 q 592 1033 597 1057 q 579 1024 589 1024 l 396 1025 q 387 1029 390 1025 q 385 1038 383 1033 q 389 1114 389 1083 l 388 1140 l 386 1142 q 385 1144 385 1143 q 383 1147 385 1146 q 344 1178 376 1165 q 274 1190 313 1190 q 206 1160 235 1190 q 178 1089 178 1131 q 177 1054 178 1071 q 178 1021 176 1038 q 169 1013 178 1013 l -25 1019 q -31 1024 -28 1019 q -35 1063 -39 1040 q -32 1111 -32 1085 q -12 1197 -32 1154 q 51 1289 8 1239 q 301 1375 125 1375 z "},"Ī":{"ha":567,"x_min":-10,"x_max":575,"o":"m 143 -26 l 107 -32 q 78 -12 88 -32 q 67 33 69 8 q 65 69 65 57 q 64 100 65 96 q 61 160 63 124 q 56 247 60 197 l 50 308 q 43 431 44 381 q 42 517 42 482 l 42 904 q 64 923 42 918 q 115 928 86 928 q 135 928 124 928 q 157 926 146 928 q 176 924 168 925 q 190 924 185 924 q 221 922 201 922 q 265 921 240 921 l 271 925 l 340 925 q 353 921 347 921 l 358 921 q 376 924 361 924 q 379 925 378 925 l 382 925 q 393 924 388 925 l 403 921 l 488 921 q 514 912 507 921 q 521 896 521 903 l 525 644 q 524 636 525 640 l 519 613 q 514 560 514 583 q 514 521 514 538 l 514 210 l 510 150 q 507 113 508 129 q 507 83 506 96 q 492 0 507 21 q 464 -12 483 -12 l 463 -10 l 456 -8 q 453 -10 453 -8 l 446 -10 q 439 -12 442 -11 q 435 -15 436 -14 q 421 -14 431 -15 q 397 -10 411 -12 l 375 -8 q 367 -15 368 -8 l 224 -15 l 182 -22 l 143 -26 m 542 1035 l 494 1035 q 478 1036 488 1036 q 458 1036 469 1036 l 428 1038 l 393 1038 l 379 1039 l 335 1039 q 317 1039 324 1036 q 301 1041 310 1040 q 282 1042 293 1042 l 60 1042 q 1 1056 15 1042 q -8 1076 -8 1061 l -8 1208 q -10 1227 -10 1215 q -10 1257 -10 1239 q 1 1279 -10 1271 q 10 1286 3 1281 q 25 1292 17 1292 l 208 1292 q 236 1291 218 1292 q 282 1289 254 1290 l 338 1288 q 417 1285 386 1286 q 463 1285 449 1285 l 494 1285 q 547 1278 522 1285 q 571 1250 571 1271 q 571 1232 571 1240 q 572 1217 571 1224 q 574 1204 574 1210 q 574 1194 574 1199 l 574 1181 q 574 1161 574 1171 q 575 1143 574 1151 l 575 1111 q 569 1063 575 1079 q 542 1035 565 1035 z "},"Į":{"ha":567,"x_min":29,"x_max":533,"o":"m 143 -26 l 107 -32 q 78 -12 88 -32 q 67 33 69 8 q 65 69 65 57 q 64 100 65 96 q 61 160 63 124 q 56 247 60 197 l 50 308 q 43 431 44 381 q 42 517 42 482 l 42 904 q 64 923 42 918 q 115 928 86 928 q 135 928 124 928 q 157 926 146 928 q 176 924 168 925 q 190 924 185 924 q 221 922 201 922 q 265 921 240 921 l 271 925 l 340 925 q 353 921 347 921 l 358 921 q 376 924 361 924 q 379 925 378 925 l 382 925 q 393 924 388 925 l 403 921 l 488 921 q 514 912 507 921 q 521 896 521 903 l 525 644 q 524 636 525 640 l 519 613 q 514 560 514 583 q 514 521 514 538 l 514 210 l 510 150 q 507 113 508 129 q 507 83 506 96 q 492 0 507 21 q 464 -12 483 -12 l 463 -10 l 456 -8 q 453 -10 453 -8 l 446 -10 q 439 -12 442 -11 q 435 -15 436 -14 q 421 -14 431 -15 q 397 -10 411 -12 l 375 -8 q 367 -15 368 -8 l 224 -15 l 182 -22 l 143 -26 m 381 -394 l 367 -397 q 135 -365 218 -397 q 36 -285 60 -339 q 29 -240 29 -264 q 49 -142 29 -178 q 126 -68 68 -107 q 138 -58 132 -62 q 153 -49 144 -54 q 166 -41 160 -44 q 175 -36 172 -37 l 286 0 q 290 1 289 0 q 292 3 292 1 q 294 6 293 6 l 321 6 l 353 4 q 454 0 417 4 l 396 -60 q 332 -139 360 -90 q 314 -189 314 -171 q 322 -219 314 -210 q 346 -233 331 -229 q 358 -237 349 -235 q 375 -237 367 -240 q 387 -236 381 -236 q 403 -236 393 -236 q 524 -212 457 -236 q 533 -226 533 -217 l 533 -233 l 510 -347 q 498 -359 508 -353 q 474 -372 488 -365 q 436 -384 453 -379 q 408 -390 419 -389 q 399 -392 403 -392 q 392 -393 394 -393 q 381 -394 383 -393 z "},"Ĩ":{"ha":567,"x_min":-124,"x_max":690,"o":"m 143 -26 l 107 -32 q 78 -12 88 -32 q 67 33 69 8 q 65 69 65 57 q 64 100 65 96 q 61 160 63 124 q 56 247 60 197 l 50 308 q 43 431 44 381 q 42 517 42 482 l 42 904 q 64 923 42 918 q 115 928 86 928 q 135 928 124 928 q 157 926 146 928 q 176 924 168 925 q 190 924 185 924 q 221 922 201 922 q 265 921 240 921 l 271 925 l 340 925 q 353 921 347 921 l 358 921 q 376 924 361 924 q 379 925 378 925 l 382 925 q 393 924 388 925 l 403 921 l 488 921 q 514 912 507 921 q 521 896 521 903 l 525 644 q 524 636 525 640 l 519 613 q 514 560 514 583 q 514 521 514 538 l 514 210 l 510 150 q 507 113 508 129 q 507 83 506 96 q 492 0 507 21 q 464 -12 483 -12 l 463 -10 l 456 -8 q 453 -10 453 -8 l 446 -10 q 439 -12 442 -11 q 435 -15 436 -14 q 421 -14 431 -15 q 397 -10 411 -12 l 375 -8 q 367 -15 368 -8 l 224 -15 l 182 -22 l 143 -26 m 408 1408 q 424 1428 408 1426 q 451 1431 440 1431 l 640 1438 q 653 1426 647 1432 q 664 1414 660 1419 q 682 1364 676 1392 q 689 1303 688 1336 l 690 1251 q 686 1212 690 1229 q 674 1181 682 1194 q 575 1072 640 1114 q 510 1042 544 1053 q 431 1032 476 1032 q 357 1042 390 1032 q 292 1072 324 1053 q 285 1077 290 1072 q 274 1088 281 1082 q 256 1099 263 1092 q 243 1111 249 1106 q 163 1182 204 1164 q 118 1193 136 1193 q 92 1169 100 1193 q 83 1125 83 1144 q 81 1099 83 1117 q 75 1072 78 1081 q 68 1072 71 1065 q -69 1079 -46 1072 q -107 1101 -106 1090 q -115 1122 -112 1107 q -117 1133 -117 1125 q -122 1142 -121 1138 q -124 1153 -122 1147 q -118 1232 -124 1185 q -95 1326 -112 1279 q -44 1401 -78 1372 q 143 1453 13 1453 q 164 1449 153 1453 q 190 1442 175 1446 q 215 1432 206 1435 q 229 1428 225 1429 q 284 1403 265 1419 q 311 1368 303 1388 q 315 1358 313 1364 q 325 1349 318 1351 q 336 1338 332 1344 q 346 1324 340 1332 q 394 1293 367 1293 q 432 1324 432 1293 q 429 1349 432 1335 q 419 1379 426 1364 l 419 1381 l 408 1408 z "}}}
